{
.appVersion = "3137";
.formatVersion = 3;
axes = (
{
name = Weight;
tag = wght;
},
{
name = "Hyper Expansion";
tag = HEXP;
}
);
classes = (
{
automatic = 1;

glyphs = (
{
color = 6;
glyphname = A;
kernLeft = A;
kernRight = A;
layers = (
{
anchors = (
{
name = bottom;
pos = (350,0);
},
{
name = ogonek;
pos = (675,0);
},
{
name = top;
pos = (350,700);
}
);
layerId = "5A878C7E-547A-4951-B48F-676DBBC9B762";
shapes = (
{
closed = 1;
nodes = (
(135,0,l),
(294,418,ls),
(311,462,o),
(344,568,o),
(360,613,c),
(337,612,l),
(344.935,589.781,o),
(393,441,o),
(400,422,cs),
(560,0,l),
(675,0,l),
(406,700,l),
(296,700,l),
(25,0,l)
);
},
{
closed = 1;
nodes = (
(549,174,l),
(503,278,l),
(185,278,l),
(145,174,l)
);
}
);
width = 700;
},
{
anchors = (
{
name = bottom;
pos = (496,0);
},
{
name = ogonek;
pos = (899,0);
},
{
name = top;
pos = (496,700);
}
);
layerId = "649E0662-786D-44F6-8E8D-A6782F19FFAA";
shapes = (
{
closed = 1;
nodes = (
(206,0,l),
(439,478,ls),
(464,529,o),
(486,573,o),
(510,638,c),
(478,637,l),
(499,573,o),
(521,533,o),
(546,482,cs),
(781,0,l),
(900,0,l),
(560,700,l),
(434,700,l),
(92,0,l)
);
},
{
closed = 1;
nodes = (
(716,164,l),
(699,268,l),
(284,268,l),
(241,164,l)
);
}
);
width = 992;
},
{
anchors = (
{
name = bottom;
pos = (316,0);
},
{
name = ogonek;
pos = (591,0);
},
{
name = top;
pos = (316,700);
}
);
layerId = "E41BA830-E06B-4916-8D61-039D08A6FFE2";
shapes = (
{
closed = 1;
nodes = (
(67,0,l),
(250,483,ls),
(262,514,o),
(304,628,o),
(321,675,c),
(307,676,l),
(332,613,o),
(372,503,o),
(379,485,cs),
(564,0,l),
(611,0,l),
(342,700,l),
(290,700,l),
(21,0,l)
);
},
{
closed = 1;
nodes = (
(506,217,l),
(489,259,l),
(141,259,l),
(126,217,l)
);
}
);
width = 631.69768;
},
{
anchors = (
{
name = bottom;
pos = (462,0);
},
{
name = ogonek;
pos = (812,0);
},
{
name = top;
pos = (462,700);
}
);
layerId = "60FFA52A-095B-47EE-98E9-9B5B7A5F3F54";
shapes = (
{
closed = 1;
nodes = (
(138,0,l),
(403,543,ls),
(424,586,o),
(445,627,o),
(465,673,c),
(456,673,l),
(476,630,o),
(498,586,o),
(518,545,cs),
(785,0,l),
(832,0,l),
(489,700,l),
(436,700,l),
(92,0,l)
);
},
{
closed = 1;
nodes = (
(697,208,l),
(685,249,l),
(239,249,l),
(221,208,l)
);
}
);
width = 923.69767;
},
{
anchors = (
{
name = bottom;
pos = (349,0);
},
{
name = ogonek;
pos = (653,0);
},
{
name = top;
pos = (349,700);
}
);
layerId = "C30A2D91-B9D3-4A88-AAF0-AD27EF9042EE";
shapes = (
{
closed = 1;
nodes = (
(168,0,l),
(300,353,ls),
(324,419,o),
(346,479,o),
(362,546,c),
(333,545,l),
(346,490,o),
(372,410,o),
(392,355,cs),
(525,0,l),
(697,0,l),
(422,700,l),
(277,700,l),
(0,0,l)
);
},
{
closed = 1;
nodes = (
(560,134,l),
(506,264,l),
(186,264,l),
(132,134,l)
);
}
);
width = 697.18804;
},
{
anchors = (
{
name = bottom;
pos = (495,0);
},
{
name = ogonek;
pos = (878,0);
},
{
name = top;
pos = (495,700);
}
);
layerId = "F0741901-C5E8-42E7-A5F2-E893972BE6B8";
shapes = (
{
closed = 1;
nodes = (
(240,0,l),
(445,413,ls),
(473,469,o),
(494,515,o),
(512,572,c),
(473,571,l),
(491,516,o),
(510,473,o),
(538,415,cs),
(746,0,l),
(922,0,l),
(577,700,l),
(415,700,l),
(67,0,l)
);
},
{
closed = 1;
nodes = (
(726,124,l),
(702,254,l),
(285,254,l),
(228,124,l)
);
}
);
width = 989.58895;
}
);
unicode = 65;
},
{
color = 6;
glyphname = AE;
kernLeft = AE;
kernRight = E;
layers = (
{
anchors = (
{
name = bottom;
pos = (485,0);
},
{
name = top;
pos = (645,700);
}
);
layerId = "5A878C7E-547A-4951-B48F-676DBBC9B762";
shapes = (
{
closed = 1;
nodes = (
(114,0,l),
(490,550,l),
(465,558,l),
(465,245,l),
(266,245,l),
(203,153,l),
(465,153,l),
(465,0,l),
(894,0,l),
(894,93,l),
(566,93,l),
(566,308,l),
(849,308,l),
(849,402,l),
(566,402,l),
(566,607,l),
(894,607,l),
(894,700,l),
(493,700,l),
(5,0,l)
);
}
);
width = 969;
},
{
anchors = (
{
name = bottom;
pos = (712,0);
},
{
name = top;
pos = (945,700);
}
);
layerId = "649E0662-786D-44F6-8E8D-A6782F19FFAA";
shapes = (
{
closed = 1;
nodes = (
(221,0,l),
(722,563,l),
(692,575,l),
(692,257,l),
(434,257,l),
(341,153,l),
(692,153,l),
(692,0,l),
(1261,0,l),
(1261,104,l),
(800,104,l),
(800,293,l),
(1216,293,l),
(1216,397,l),
(800,397,l),
(800,596,l),
(1261,596,l),
(1261,700,l),
(720,700,l),
(92,0,l)
);
}
);
width = 1421;
},
{
anchors = (
{
name = bottom;
pos = (469,0);
},
{
name = top;
pos = (637,700);
}
);
layerId = "E41BA830-E06B-4916-8D61-039D08A6FFE2";
shapes = (
{
closed = 1;
nodes = (
(48,0,l),
(492,655,l),
(482,660,l),
(482,239,l),
(202,239,l),
(176,202,l),
(482,202,l),
(482,0,l),
(869,0,l),
(869,39,l),
(521,39,l),
(521,340,l),
(814,340,l),
(814,379,l),
(521,379,l),
(521,661,l),
(869,661,l),
(869,700,l),
(480,700,l),
(1,0,l)
);
}
);
userData = {
com.schriftgestaltung.Glyphs.glyph.rightMetricsKey = E;
};
width = 936;
},
{
anchors = (
{
name = bottom;
pos = (695,0);
},
{
name = top;
pos = (924,700);
}
);
layerId = "60FFA52A-095B-47EE-98E9-9B5B7A5F3F54";
shapes = (
{
closed = 1;
nodes = (
(144,0,l),
(722,650,l),
(710,657,l),
(710,242,l),
(350,242,l),
(313,201,l),
(710,201,l),
(710,0,l),
(1233,0,l),
(1233,41,l),
(752,41,l),
(752,329,l),
(1178,329,l),
(1178,370,l),
(752,370,l),
(752,659,l),
(1233,659,l),
(1233,700,l),
(713,700,l),
(90,0,l)
);
}
);
userData = {
com.schriftgestaltung.Glyphs.glyph.rightMetricsKey = E;
};
width = 1384.93023;
},
{
anchors = (
{
name = bottom;
pos = (537,0);
},
{
name = top;
pos = (718,700);
}
);
layerId = "C30A2D91-B9D3-4A88-AAF0-AD27EF9042EE";
shapes = (
{
closed = 1;
nodes = (
(176,0,l),
(549,546,l),
(523,554,l),
(523,275,l),
(348,275,l),
(256,141,l),
(523,141,l),
(523,0,l),
(1013,0,l),
(1013,141,l),
(686,141,l),
(686,286,l),
(968,286,l),
(968,422,l),
(686,422,l),
(686,559,l),
(1013,559,l),
(1013,700,l),
(480,700,l),
(-8,0,l)
);
}
);
userData = {
com.schriftgestaltung.Glyphs.glyph.rightMetricsKey = E;
};
width = 1072.37946;
},
{
anchors = (
{
name = bottom;
pos = (763,0);
},
{
name = top;
pos = (1024,700);
}
);
layerId = "F0741901-C5E8-42E7-A5F2-E893972BE6B8";
shapes = (
{
closed = 1;
nodes = (
(283,0,l),
(781,559,l),
(750,571,l),
(750,287,l),
(517,287,l),
(394,141,l),
(750,141,l),
(750,0,l),
(1379,0,l),
(1379,152,l),
(919,152,l),
(919,271,l),
(1335,271,l),
(1335,417,l),
(919,417,l),
(919,548,l),
(1379,548,l),
(1379,700,l),
(707,700,l),
(79,0,l)
);
}
);
userData = {
com.schriftgestaltung.Glyphs.glyph.rightMetricsKey = E;
};
width = 1523;
}
);
metricRight = E;
unicode = 198;
},
{
color = 6;
glyphname = B;
kernLeft = H;
kernRight = B;
layers = (
{
anchors = (
{
name = bottom;
pos = (341,0);
},
{
name = top;
pos = (341,700);
}
);
layerId = "5A878C7E-547A-4951-B48F-676DBBC9B762";
shapes = (
{
closed = 1;
nodes = (
(400,0,ls),
(546.667,0,o),
(633,72.667,o),
(633,206,cs),
(633,304,o),
(570,371,o),
(477,392,c),
(477,372,l),
(552,392,o),
(596,448,o),
(596,524,cs),
(596,638.667,o),
(524.667,700,o),
(390,700,cs),
(98,700,l),
(98,0,l)
);
},
{
closed = 1;
nodes = (
(206,306,l),
(389,306,ls),
(470.333,306,o),
(523,270.667,o),
(523,208,cs),
(523,141.333,o),
(475.333,104,o),
(394,104,cs),
(206,104,l)
);
},
{
closed = 1;
nodes = (
(206,596,l),
(372,596,ls),
(446.667,596,o),
(488,563,o),
(488,503,cs),
(488,448.333,o),
(444,410,o),
(384,410,cs),
(206,410,l)
);
}
);
width = 681;
},
{
anchors = (
{
name = bottom;
pos = (500,0);
},
{
name = top;
pos = (500,700);
}
);
layerId = "649E0662-786D-44F6-8E8D-A6782F19FFAA";
shapes = (
{
closed = 1;
nodes = (
(590,0,ls),
(721,0,o),
(867,43,o),
(867,206,cs),
(867,316,o),
(781,370,o),
(692,390,c),
(685,371,l),
(780,393,o),
(830,451,o),
(830,524,cs),
(830,637,o),
(739,700,o),
(564,700,cs),
(182,700,l),
(182,0,l)
);
},
{
closed = 1;
nodes = (
(290,311,l),
(589,311,ls),
(665,311,o),
(757,287,o),
(757,208,cs),
(757,137,o),
(689,104,o),
(594,104,cs),
(290,104,l)
);
},
{
closed = 1;
nodes = (
(290,596,l),
(572,596,ls),
(655,596,o),
(719,572,o),
(719,508,cs),
(719,451,o),
(656,416,o),
(584,416,cs),
(290,416,l)
);
}
);
width = 995;
},
{
anchors = (
{
name = bottom;
pos = (329,0);
},
{
name = top;
pos = (329,700);
}
);
layerId = "E41BA830-E06B-4916-8D61-039D08A6FFE2";
shapes = (
{
closed = 1;
nodes = (
(378,0,ls),
(535,0,o),
(606,82,o),
(606,195,cs),
(606,292,o),
(539,366,o),
(414,378,c),
(419,363,l),
(510,379,o),
(569,446,o),
(569,530,cs),
(569,627,o),
(497,700,o),
(381,700,cs),
(107,700,l),
(107,0,l)
);
},
{
closed = 1;
nodes = (
(149,345,l),
(380,345,ls),
(495,345,o),
(562,283,o),
(562,192,cs),
(562,105,o),
(508,41,o),
(378,41,cs),
(149,41,l)
);
},
{
closed = 1;
nodes = (
(149,659,l),
(374,659,ls),
(468,659,o),
(526,602,o),
(526,525,cs),
(526,447,o),
(459,386,o),
(375,386,cs),
(149,386,l)
);
}
);
userData = {
com.schriftgestaltung.Glyphs.glyph.leftMetricsKey = H;
com.schriftgestaltung.Glyphs.glyph.rightMetricsKey = O;
};
width = 658.74419;
},
{
anchors = (
{
name = bottom;
pos = (489,0);
},
{
name = top;
pos = (489,700);
}
);
layerId = "60FFA52A-095B-47EE-98E9-9B5B7A5F3F54";
shapes = (
{
closed = 1;
nodes = (
(585,0,ls),
(738,0,o),
(840,61,o),
(840,194,cs),
(840,306,o),
(763,369,o),
(638,381,c),
(637,368,l),
(745,385,o),
(803,443,o),
(803,531,cs),
(803,639,o),
(720,700,o),
(568,700,cs),
(191,700,l),
(191,0,l)
);
},
{
closed = 1;
nodes = (
(233,350,l),
(581,350,ls),
(712,350,o),
(797,298,o),
(797,194,cs),
(796,91,o),
(716,37,o),
(578,41,c),
(233,41,l)
);
},
{
closed = 1;
nodes = (
(233,659,l),
(575,659,ls),
(690,659,o),
(760,613,o),
(760,528,cs),
(760,441,o),
(694,391,o),
(585,391,cs),
(233,391,l)
);
}
);
userData = {
com.schriftgestaltung.Glyphs.glyph.leftMetricsKey = H;
com.schriftgestaltung.Glyphs.glyph.rightMetricsKey = O;
};
width = 973;
},
{
anchors = (
{
name = bottom;
pos = (351,0);
},
{
name = top;
pos = (351,700);
}
);
layerId = "C30A2D91-B9D3-4A88-AAF0-AD27EF9042EE";
shapes = (
{
closed = 1;
nodes = (
(408,0,ls),
(554,0,o),
(658,70,o),
(658,212,cs),
(658,304,o),
(596,370,o),
(506,393,c),
(507,372,l),
(580,393,o),
(621,448,o),
(621,527,cs),
(621,636,o),
(542,700,o),
(397,700,cs),
(87,700,l),
(87,0,l)
);
},
{
closed = 1;
nodes = (
(249,291,l),
(396,291,ls),
(454,291,o),
(490,266,o),
(490,220,cs),
(490,170,o),
(457,143,o),
(401,143,cs),
(249,143,l)
);
},
{
closed = 1;
nodes = (
(249,557,l),
(367,557,ls),
(426,557,o),
(455,531,o),
(455,489,cs),
(455,447,o),
(425,420,o),
(374,420,cs),
(249,420,l)
);
}
);
userData = {
com.schriftgestaltung.Glyphs.glyph.leftMetricsKey = H;
com.schriftgestaltung.Glyphs.glyph.rightMetricsKey = O;
};
width = 700.78546;
},
{
anchors = (
{
name = bottom;
pos = (510,0);
},
{
name = top;
pos = (510,700);
}
);
layerId = "F0741901-C5E8-42E7-A5F2-E893972BE6B8";
shapes = (
{
closed = 1;
nodes = (
(597,0,ls),
(727,0,o),
(892,41,o),
(892,212,cs),
(892,316,o),
(807,369,o),
(720,390,c),
(714,371,l),
(808,393,o),
(855,451,o),
(855,527,cs),
(855,635,o),
(756,700,o),
(571,700,cs),
(171,700,l),
(171,0,l)
);
},
{
closed = 1;
nodes = (
(333,296,l),
(596,296,ls),
(647,296,o),
(724,282,o),
(724,220,cs),
(724,166,o),
(670,143,o),
(601,143,c),
(333,143,l)
);
},
{
closed = 1;
nodes = (
(333,557,l),
(567,557,ls),
(633,557,o),
(686,541,o),
(686,494,cs),
(686,449,o),
(636,426,o),
(574,426,cs),
(333,426,l)
);
}
);
userData = {
com.schriftgestaltung.Glyphs.glyph.leftMetricsKey = H;
com.schriftgestaltung.Glyphs.glyph.rightMetricsKey = O;
};
width = 1016;
}
);
metricLeft = H;
metricRight = O;
unicode = 66;
},
{
color = 6;
glyphname = C;
kernLeft = C;
kernRight = C;
layers = (
{
anchors = (
{
name = bottom;
pos = (376,0);
},
{
name = top;
pos = (390,700);
}
);
layerId = "5A878C7E-547A-4951-B48F-676DBBC9B762";
shapes = (
{
closed = 1;
nodes = (
(480.667,-10,o),
(583.333,31.333,o),
(630,86,c),
(576,174,l),
(530.667,127.333,o),
(466.667,99,o),
(400,99,cs),
(256,99,o),
(158,196.667,o),
(158,350,cs),
(158,494,o),
(260.333,598,o),
(391,598,cs),
(453.667,598,o),
(513.667,568.667,o),
(571,510,c),
(643,585,l),
(593.667,655.667,o),
(492.333,706,o),
(391,706,cs),
(200.333,706,o),
(48,550,o),
(48,350,cs),
(48,138,o),
(187.333,-10,o),
(382,-10,cs)
);
}
);
width = 679;
},
{
anchors = (
{
name = bottom;
pos = (526,0);
},
{
name = top;
pos = (532,700);
}
);
layerId = "649E0662-786D-44F6-8E8D-A6782F19FFAA";
shapes = (
{
closed = 1;
nodes = (
(671,-10,o),
(793,57,o),
(850,104,c),
(798,194,l),
(738,150,o),
(659,95,o),
(540,95,cs),
(385,95,o),
(238,183,o),
(238,350,cs),
(238,503,o),
(381,600,o),
(522,600,cs),
(633,600,o),
(719,557,o),
(791,498,c),
(855,589,l),
(794,646,o),
(667,706,o),
(532,706,cs),
(316,706,o),
(128,555,o),
(128,350,cs),
(128,133,o),
(307,-10,o),
(532,-10,cs)
);
}
);
width = 981;
},
{
anchors = (
{
name = bottom;
pos = (385,0);
},
{
name = top;
pos = (397,700);
}
);
layerId = "E41BA830-E06B-4916-8D61-039D08A6FFE2";
shapes = (
{
closed = 1;
nodes = (
(492,-10,o),
(580,25,o),
(637,82,c),
(613,117,l),
(559,64,o),
(484,32,o),
(399,32,cs),
(224,32,o),
(97,162,o),
(97,347,cs),
(97,532,o),
(224,667,o),
(397,667,cs),
(486,667,o),
(563,627,o),
(621,562,c),
(652,592,l),
(593,663,o),
(502,709,o),
(397,709,cs),
(198,709,o),
(54,556,o),
(54,347,cs),
(54,137,o),
(196,-10,o),
(395,-10,cs)
);
}
);
userData = {
com.schriftgestaltung.Glyphs.glyph.leftMetricsKey = O;
};
width = 687.44186;
},
{
anchors = (
{
name = bottom;
pos = (545,0);
},
{
name = top;
pos = (553,700);
}
);
layerId = "60FFA52A-095B-47EE-98E9-9B5B7A5F3F54";
shapes = (
{
closed = 1;
nodes = (
(679,-10,o),
(788,38,o),
(858,99,c),
(837,134,l),
(768,75,o),
(674,31,o),
(555,31,cs),
(338,31,o),
(177,162,o),
(177,349,cs),
(177,533,o),
(337,668,o),
(550,668,cs),
(671,668,o),
(773,623,o),
(842,556,c),
(863,594,l),
(793,661,o),
(682,709,o),
(553,709,cs),
(310,709,o),
(133,554,o),
(133,349,cs),
(133,141,o),
(308,-10,o),
(553,-10,cs)
);
}
);
userData = {
com.schriftgestaltung.Glyphs.glyph.leftMetricsKey = O;
};
width = 989.44186;
},
{
anchors = (
{
name = bottom;
pos = (396,0);
},
{
name = top;
pos = (410,700);
}
);
layerId = "C30A2D91-B9D3-4A88-AAF0-AD27EF9042EE";
shapes = (
{
closed = 1;
nodes = (
(508,-10,o),
(616,31,o),
(665,86,c),
(582,218,l),
(545,177,o),
(488,149,o),
(426,149,cs),
(300,149,o),
(218,228,o),
(218,351,cs),
(218,475,o),
(303,554,o),
(411,554,cs),
(474,554,o),
(525,527,o),
(566,482,c),
(671,601,l),
(611,673,o),
(511,714,o),
(412,714,cs),
(200,714,o),
(43,560,o),
(43,352,cs),
(43,140,o),
(193,-10,o),
(405,-10,cs)
);
}
);
userData = {
com.schriftgestaltung.Glyphs.glyph.leftMetricsKey = O;
};
width = 693.10707;
},
{
anchors = (
{
name = bottom;
pos = (551,0);
},
{
name = top;
pos = (550,700);
}
);
layerId = "F0741901-C5E8-42E7-A5F2-E893972BE6B8";
shapes = (
{
closed = 1;
nodes = (
(698,-10,o),
(825,58,o),
(885,104,c),
(804,238,l),
(751,201,o),
(680,145,o),
(565,145,cs),
(430,145,o),
(298,213,o),
(298,351,cs),
(298,485,o),
(425,556,o),
(541,556,cs),
(653,556,o),
(729,515,o),
(785,469,c),
(883,605,l),
(811,662,o),
(685,714,o),
(552,714,cs),
(316,714,o),
(123,565,o),
(123,352,cs),
(123,134,o),
(313,-10,o),
(555,-10,cs)
);
}
);
userData = {
com.schriftgestaltung.Glyphs.glyph.leftMetricsKey = O;
};
width = 994.97084;
}
);
metricLeft = O;
unicode = 67;
},
{
color = 6;
glyphname = D;
kernLeft = H;
kernRight = D;
layers = (
{
anchors = (
{
name = bottom;
pos = (374,0);
},
{
name = center;
pos = (188,350);
},
{
name = top;
pos = (374,700);
}
);
layerId = "5A878C7E-547A-4951-B48F-676DBBC9B762";
shapes = (
{
closed = 1;
nodes = (
(372,0,ls),
(573.333,0,o),
(700,140.667,o),
(700,350,cs),
(700,558,o),
(572,700,o),
(372,700,cs),
(98,700,l),
(98,0,l)
);
},
{
closed = 1;
nodes = (
(206,605,l),
(200,596,l),
(367,596,ls),
(507,596,o),
(590,502,o),
(590,350,cs),
(590,196.667,o),
(508.333,104,o),
(367,104,cs),
(203,104,l),
(206,93,l)
);
}
);
width = 748;
},
{
anchors = (
{
name = bottom;
pos = (531,0);
},
{
name = center;
pos = (303,350);
},
{
name = top;
pos = (531,700);
}
);
layerId = "649E0662-786D-44F6-8E8D-A6782F19FFAA";
shapes = (
{
closed = 1;
nodes = (
(536,0,ls),
(793,0,o),
(929,158,o),
(929,350,cs),
(929,539,o),
(793,700,o),
(536,700,cs),
(182,700,l),
(182,0,l)
);
},
{
closed = 1;
nodes = (
(290,605,l),
(284,596,l),
(531,596,ls),
(730,596,o),
(814,482,o),
(814,350,cs),
(814,215,o),
(730,104,o),
(531,104,cs),
(287,104,l),
(290,93,l)
);
}
);
width = 1057;
},
{
anchors = (
{
name = bottom;
pos = (370,0);
},
{
name = center;
pos = (165,350);
},
{
name = top;
pos = (370,700);
}
);
layerId = "E41BA830-E06B-4916-8D61-039D08A6FFE2";
shapes = (
{
closed = 1;
nodes = (
(360,0,ls),
(538,0,o),
(686,147,o),
(686,350,cs),
(686,554,o),
(538,700,o),
(360,700,cs),
(107,700,l),
(107,0,l)
);
},
{
closed = 1;
nodes = (
(149,669,l),
(140,659,l),
(355,659,ls),
(512,659,o),
(643,528,o),
(643,350,cs),
(643,172,o),
(512,41,o),
(355,41,cs),
(141,41,l),
(149,32,l)
);
}
);
userData = {
com.schriftgestaltung.Glyphs.glyph.leftMetricsKey = H;
com.schriftgestaltung.Glyphs.glyph.rightMetricsKey = O;
};
width = 739;
},
{
anchors = (
{
name = bottom;
pos = (526,0);
},
{
name = center;
pos = (301,350);
},
{
name = top;
pos = (526,700);
}
);
layerId = "60FFA52A-095B-47EE-98E9-9B5B7A5F3F54";
shapes = (
{
closed = 1;
nodes = (
(524,0,ls),
(758,0,o),
(915,149,o),
(915,350,cs),
(915,551,o),
(758,700,o),
(524,700,cs),
(191,700,l),
(191,0,l)
);
},
{
closed = 1;
nodes = (
(233,669,l),
(223,659,l),
(519,659,ls),
(732,659,o),
(871,527,o),
(871,350,cs),
(871,172,o),
(732,41,o),
(519,41,cs),
(225,41,l),
(233,32,l)
);
}
);
userData = {
com.schriftgestaltung.Glyphs.glyph.leftMetricsKey = H;
com.schriftgestaltung.Glyphs.glyph.rightMetricsKey = O;
};
width = 1048;
},
{
anchors = (
{
name = bottom;
pos = (386,0);
},
{
name = center;
pos = (200,350);
},
{
name = top;
pos = (386,700);
}
);
layerId = "C30A2D91-B9D3-4A88-AAF0-AD27EF9042EE";
shapes = (
{
closed = 1;
nodes = (
(382,0,ls),
(589,0,o),
(729,143,o),
(729,350,cs),
(729,556,o),
(588,700,o),
(382,700,cs),
(87,700,l),
(87,0,l)
);
},
{
closed = 1;
nodes = (
(258,580,l),
(233,549,l),
(377,549,ls),
(486,549,o),
(556,470,o),
(556,350,cs),
(556,230,o),
(486,151,o),
(377,151,cs),
(236,151,l),
(258,118,l)
);
}
);
userData = {
com.schriftgestaltung.Glyphs.glyph.leftMetricsKey = H;
com.schriftgestaltung.Glyphs.glyph.rightMetricsKey = O;
};
width = 771.69786;
},
{
anchors = (
{
name = bottom;
pos = (542,0);
},
{
name = center;
pos = (314,350);
},
{
name = top;
pos = (542,700);
}
);
layerId = "F0741901-C5E8-42E7-A5F2-E893972BE6B8";
shapes = (
{
closed = 1;
nodes = (
(546,0,ls),
(809,0,o),
(958,161,o),
(958,350,cs),
(958,536,o),
(809,700,o),
(546,700,cs),
(171,700,l),
(171,0,l)
);
},
{
closed = 1;
nodes = (
(342,580,l),
(317,549,l),
(541,549,ls),
(709,549,o),
(780,450,o),
(780,350,cs),
(780,249,o),
(709,151,o),
(541,151,cs),
(320,151,l),
(342,118,l)
);
}
);
userData = {
com.schriftgestaltung.Glyphs.glyph.leftMetricsKey = H;
com.schriftgestaltung.Glyphs.glyph.rightMetricsKey = O;
};
width = 1082;
}
);
metricLeft = H;
metricRight = O;
unicode = 68;
},
{
color = 3;
glyphname = Eth;
kernLeft = H;
kernRight = D;
layers = (
{
layerId = "5A878C7E-547A-4951-B48F-676DBBC9B762";
shapes = (
{
closed = 1;
nodes = (
(317,305,l),
(317,395,l),
(49,395,l),
(49,305,l)
);
},
{
ref = D;
}
);
width = 748;
},
{
layerId = "649E0662-786D-44F6-8E8D-A6782F19FFAA";
shapes = (
{
closed = 1;
nodes = (
(507,307,l),
(507,393,l),
(99,393,l),
(99,307,l)
);
},
{
ref = D;
}
);
width = 1057;
},
{
layerId = "E41BA830-E06B-4916-8D61-039D08A6FFE2";
shapes = (
{
closed = 1;
nodes = (
(298,331,l),
(298,368,l),
(30,368,l),
(30,331,l)
);
},
{
alignment = -1;
ref = D;
}
);
width = 739.55814;
},
{
layerId = "60FFA52A-095B-47EE-98E9-9B5B7A5F3F54";
shapes = (
{
closed = 1;
nodes = (
(505,333,l),
(505,366,l),
(97,366,l),
(97,333,l)
);
},
{
alignment = -1;
ref = D;
}
);
width = 1048.55814;
},
{
layerId = "C30A2D91-B9D3-4A88-AAF0-AD27EF9042EE";
shapes = (
{
closed = 1;
nodes = (
(360,290,l),
(360,410,l),
(36,410,l),
(36,290,l)
);
},
{
alignment = -1;
ref = D;
}
);
width = 771.67543;
},
{
layerId = "F0741901-C5E8-42E7-A5F2-E893972BE6B8";
shapes = (
{
closed = 1;
nodes = (
(549,292,l),
(549,408,l),
(86,408,l),
(86,292,l)
);
},
{
alignment = -1;
ref = D;
}
);
width = 1080.57366;
}
);
unicode = 208;
},
{
color = 6;
glyphname = E;
kernLeft = H;
kernRight = E;
layers = (
{
anchors = (
{
name = bottom;
pos = (307,0);
},
{
name = ogonek;
pos = (509,0);
},
{
name = top;
pos = (327,700);
},
{
name = topleft;
pos = (20,700);
}
);
layerId = "5A878C7E-547A-4951-B48F-676DBBC9B762";
shapes = (
{
closed = 1;
nodes = (
(539,0,l),
(539,104,l),
(206,104,l),
(206,596,l),
(539,596,l),
(539,700,l),
(98,700,l),
(98,0,l)
);
},
{
closed = 1;
nodes = (
(484,307,l),
(484,411,l),
(147,411,l),
(147,307,l)
);
}
);
width = 614;
},
{
anchors = (
{
name = bottom;
pos = (461,0);
},
{
name = ogonek;
pos = (723,0);
},
{
name = top;
pos = (481,700);
},
{
name = topleft;
pos = (104,700);
}
);
layerId = "649E0662-786D-44F6-8E8D-A6782F19FFAA";
shapes = (
{
closed = 1;
nodes = (
(763,0,l),
(763,104,l),
(290,104,l),
(290,596,l),
(763,596,l),
(763,700,l),
(182,700,l),
(182,0,l)
);
},
{
closed = 1;
nodes = (
(708,307,l),
(708,411,l),
(241,411,l),
(241,307,l)
);
}
);
width = 923;
},
{
anchors = (
{
name = bottom;
pos = (289,0);
},
{
name = ogonek;
pos = (483,0);
},
{
name = top;
pos = (316,700);
},
{
name = topleft;
pos = (20,700);
}
);
layerId = "E41BA830-E06B-4916-8D61-039D08A6FFE2";
shapes = (
{
closed = 1;
nodes = (
(505,0,l),
(505,41,l),
(149,41,l),
(149,659,l),
(510,659,l),
(510,700,l),
(107,700,l),
(107,0,l)
);
},
{
closed = 1;
nodes = (
(453,341,l),
(453,382,l),
(129,382,l),
(129,341,l)
);
}
);
userData = {
com.schriftgestaltung.Glyphs.glyph.leftMetricsKey = H;
};
width = 577.16279;
},
{
anchors = (
{
name = bottom;
pos = (443,0);
},
{
name = ogonek;
pos = (704,0);
},
{
name = top;
pos = (470,700);
},
{
name = topleft;
pos = (104,700);
}
);
layerId = "60FFA52A-095B-47EE-98E9-9B5B7A5F3F54";
shapes = (
{
closed = 1;
nodes = (
(729,0,l),
(729,41,l),
(233,41,l),
(233,659,l),
(734,659,l),
(734,700,l),
(191,700,l),
(191,0,l)
);
},
{
closed = 1;
nodes = (
(677,341,l),
(677,382,l),
(214,382,l),
(214,341,l)
);
}
);
userData = {
com.schriftgestaltung.Glyphs.glyph.leftMetricsKey = H;
};
width = 886.16279;
},
{
anchors = (
{
name = bottom;
pos = (322,0);
},
{
name = ogonek;
pos = (544,0);
},
{
name = top;
pos = (342,700);
},
{
name = topleft;
pos = (20,700);
}
);
layerId = "C30A2D91-B9D3-4A88-AAF0-AD27EF9042EE";
shapes = (
{
closed = 1;
nodes = (
(586,0,l),
(586,146,l),
(254,146,l),
(254,554,l),
(575,554,l),
(575,700,l),
(87,700,l),
(87,0,l)
);
},
{
closed = 1;
nodes = (
(531,286,l),
(531,426,l),
(168,426,l),
(168,286,l)
);
}
);
userData = {
com.schriftgestaltung.Glyphs.glyph.leftMetricsKey = H;
};
width = 645.48382;
},
{
anchors = (
{
name = bottom;
pos = (476,0);
},
{
name = ogonek;
pos = (758,0);
},
{
name = top;
pos = (502,700);
},
{
name = topleft;
pos = (104,700);
}
);
layerId = "F0741901-C5E8-42E7-A5F2-E893972BE6B8";
shapes = (
{
closed = 1;
nodes = (
(810,0,l),
(810,146,l),
(338,146,l),
(338,554,l),
(799,554,l),
(799,700,l),
(171,700,l),
(171,0,l)
);
},
{
closed = 1;
nodes = (
(754,286,l),
(754,426,l),
(263,426,l),
(263,286,l)
);
}
);
userData = {
com.schriftgestaltung.Glyphs.glyph.leftMetricsKey = H;
};
width = 954.49216;
}
);
metricLeft = H;
unicode = 69;
},
{
color = 6;
glyphname = F;
kernLeft = H;
kernRight = F;
layers = (
{
anchors = (
{
name = bottom;
pos = (301,0);
},
{
name = top;
pos = (301,700);
}
);
layerId = "5A878C7E-547A-4951-B48F-676DBBC9B762";
shapes = (
{
closed = 1;
nodes = (
(206,0,l),
(206,700,l),
(98,700,l),
(98,0,l)
);
},
{
closed = 1;
nodes = (
(507,298,l),
(507,402,l),
(146,402,l),
(146,298,l)
);
},
{
closed = 1;
nodes = (
(552,596,l),
(552,700,l),
(146,700,l),
(146,596,l)
);
}
);
width = 602;
},
{
anchors = (
{
name = bottom;
pos = (445,0);
},
{
name = top;
pos = (445,700);
}
);
layerId = "649E0662-786D-44F6-8E8D-A6782F19FFAA";
shapes = (
{
closed = 1;
nodes = (
(290,0,l),
(290,700,l),
(182,700,l),
(182,0,l)
);
},
{
closed = 1;
nodes = (
(711,288,l),
(711,392,l),
(218,392,l),
(218,288,l)
);
},
{
closed = 1;
nodes = (
(756,596,l),
(756,700,l),
(232,700,l),
(232,596,l)
);
}
);
width = 896;
},
{
anchors = (
{
name = bottom;
pos = (291,0);
},
{
name = top;
pos = (291,700);
}
);
layerId = "E41BA830-E06B-4916-8D61-039D08A6FFE2";
shapes = (
{
closed = 1;
nodes = (
(149,0,l),
(149,700,l),
(107,700,l),
(107,0,l)
);
},
{
closed = 1;
nodes = (
(458,331,l),
(458,372,l),
(128,372,l),
(128,331,l)
);
},
{
closed = 1;
nodes = (
(513,659,l),
(513,700,l),
(129,700,l),
(129,659,l)
);
}
);
userData = {
com.schriftgestaltung.Glyphs.glyph.leftMetricsKey = H;
};
width = 581.27907;
},
{
anchors = (
{
name = bottom;
pos = (435,0);
},
{
name = top;
pos = (435,700);
}
);
layerId = "60FFA52A-095B-47EE-98E9-9B5B7A5F3F54";
shapes = (
{
closed = 1;
nodes = (
(233,0,l),
(233,700,l),
(191,700,l),
(191,0,l)
);
},
{
closed = 1;
nodes = (
(663,321,l),
(663,362,l),
(207,362,l),
(207,321,l)
);
},
{
closed = 1;
nodes = (
(717,659,l),
(717,700,l),
(214,700,l),
(214,659,l)
);
}
);
userData = {
com.schriftgestaltung.Glyphs.glyph.leftMetricsKey = H;
};
width = 875.27907;
},
{
anchors = (
{
name = bottom;
pos = (309,0);
},
{
name = top;
pos = (309,700);
}
);
layerId = "C30A2D91-B9D3-4A88-AAF0-AD27EF9042EE";
shapes = (
{
closed = 1;
nodes = (
(258,0,l),
(258,700,l),
(87,700,l),
(87,0,l)
);
},
{
closed = 1;
nodes = (
(531,268,l),
(531,411,l),
(167,411,l),
(167,268,l)
);
},
{
closed = 1;
nodes = (
(571,549,l),
(571,700,l),
(167,700,l),
(167,549,l)
);
}
);
userData = {
com.schriftgestaltung.Glyphs.glyph.leftMetricsKey = H;
};
width = 618.39004;
},
{
anchors = (
{
name = bottom;
pos = (453,0);
},
{
name = top;
pos = (453,700);
}
);
layerId = "F0741901-C5E8-42E7-A5F2-E893972BE6B8";
shapes = (
{
closed = 1;
nodes = (
(342,0,l),
(342,700,l),
(171,700,l),
(171,0,l)
);
},
{
closed = 1;
nodes = (
(735,258,l),
(735,401,l),
(239,401,l),
(239,258,l)
);
},
{
closed = 1;
nodes = (
(775,549,l),
(775,700,l),
(253,700,l),
(253,549,l)
);
}
);
userData = {
com.schriftgestaltung.Glyphs.glyph.leftMetricsKey = H;
};
width = 912.40304;
}
);
metricLeft = H;
unicode = 70;
},
{
color = 6;
glyphname = G;
kernLeft = C;
kernRight = G;
layers = (
{
anchors = (
{
name = bottom;
pos = (383,0);
},
{
name = top;
pos = (403,700);
}
);
layerId = "5A878C7E-547A-4951-B48F-676DBBC9B762";
shapes = (
{
closed = 1;
nodes = (
(585.869,-10,o),
(723,115.261,o),
(723,299,cs),
(723,317.667,o),
(722,336.333,o),
(718,359,c),
(408,359,l),
(408,252,l),
(622,252,l),
(607,266,l),
(607,246,ls),
(607,162,o),
(519.333,95,o),
(414,95,cs),
(274,95,o),
(158,210,o),
(158,350,cs),
(158,492.667,o),
(267.333,601,o),
(410,601,cs),
(476.667,601,o),
(542,571.333,o),
(602,514,c),
(672,587,l),
(620,657.667,o),
(516.667,706,o),
(410,706,cs),
(206,706,o),
(48,551.333,o),
(48,350,cs),
(48,147.333,o),
(207,-10,o),
(411,-10,cs)
);
}
);
width = 766;
},
{
anchors = (
{
name = bottom;
pos = (543,0);
},
{
name = top;
pos = (559,700);
}
);
layerId = "649E0662-786D-44F6-8E8D-A6782F19FFAA";
shapes = (
{
closed = 1;
nodes = (
(791,-10,o),
(962,92,o),
(962,303,cs),
(962,310,o),
(962,318,o),
(958,349,c),
(558,349,l),
(558,244,l),
(857,244,l),
(841,266,l),
(842,253,ls),
(849,161,o),
(716,95,o),
(553,95,cs),
(394,95,o),
(243,173,o),
(243,350,cs),
(243,493,o),
(381,601,o),
(560,601,cs),
(660,601,o),
(750,563,o),
(822,508,c),
(892,587,l),
(835,648,o),
(711,706,o),
(560,706,cs),
(319,706,o),
(128,551,o),
(128,350,cs),
(128,113,o),
(323,-10,o),
(544,-10,cs)
);
}
);
width = 1082;
},
{
anchors = (
{
name = bottom;
pos = (384,0);
},
{
name = top;
pos = (398,700);
}
);
layerId = "E41BA830-E06B-4916-8D61-039D08A6FFE2";
shapes = (
{
closed = 1;
nodes = (
(596,-10,o),
(722,112,o),
(722,330,cs),
(722,337,o),
(722,344,o),
(721,358,c),
(409,358,l),
(409,316,l),
(686,316,l),
(678,323,l),
(678,304,ls),
(678,144,o),
(575,31,o),
(403,31,cs),
(228,31,o),
(97,165,o),
(97,347,cs),
(97,532,o),
(226,668,o),
(401,668,cs),
(498,668,o),
(582,624,o),
(640,553,c),
(669,581,l),
(607,658,o),
(513,709,o),
(401,709,cs),
(199,709,o),
(54,557,o),
(54,347,cs),
(54,139,o),
(200,-10,o),
(402,-10,cs)
);
}
);
userData = {
com.schriftgestaltung.Glyphs.glyph.leftMetricsKey = O;
};
width = 766.76744;
},
{
anchors = (
{
name = bottom;
pos = (543,0);
},
{
name = top;
pos = (558,700);
}
);
layerId = "60FFA52A-095B-47EE-98E9-9B5B7A5F3F54";
shapes = (
{
closed = 1;
nodes = (
(793,-10,o),
(961,136,o),
(961,329,cs),
(961,332,o),
(961,336,o),
(960,348,c),
(559,348,l),
(559,307,l),
(928,307,l),
(916,320,l),
(916,311,ls),
(918,164,o),
(764,31,o),
(558,31,cs),
(340,31,o),
(178,160,o),
(178,349,cs),
(178,531,o),
(337,668,o),
(559,668,cs),
(678,668,o),
(780,624,o),
(850,559,c),
(872,594,l),
(803,661,o),
(692,709,o),
(559,709,cs),
(311,709,o),
(133,553,o),
(133,349,cs),
(133,137,o),
(311,-10,o),
(556,-10,cs)
);
}
);
userData = {
com.schriftgestaltung.Glyphs.glyph.leftMetricsKey = O;
};
width = 1082.76744;
},
{
anchors = (
{
name = bottom;
pos = (391,0);
},
{
name = top;
pos = (411,700);
}
);
layerId = "C30A2D91-B9D3-4A88-AAF0-AD27EF9042EE";
shapes = (
{
closed = 1;
nodes = (
(599,-10,o),
(740,117,o),
(740,298,cs),
(740,317,o),
(738,369,o),
(735,392,c),
(406,392,l),
(406,257,l),
(597,257,l),
(575,291,l),
(575,265,ls),
(575,196,o),
(509,142,o),
(427,142,cs),
(310,142,o),
(218,233,o),
(218,352,cs),
(218,473,o),
(305,562,o),
(419,562,cs),
(488,562,o),
(542,534,o),
(590,489,c),
(695,599,l),
(638,665,o),
(536,714,o),
(422,714,cs),
(201,714,o),
(43,560,o),
(43,352,cs),
(43,145,o),
(189,-10,o),
(412,-10,cs)
);
}
);
userData = {
com.schriftgestaltung.Glyphs.glyph.leftMetricsKey = O;
};
width = 780.97104;
},
{
anchors = (
{
name = bottom;
pos = (551,0);
},
{
name = top;
pos = (568,700);
}
);
layerId = "F0741901-C5E8-42E7-A5F2-E893972BE6B8";
shapes = (
{
closed = 1;
nodes = (
(804,-10,o),
(979,92,o),
(979,302,cs),
(979,309,o),
(978,350,o),
(975,382,c),
(556,382,l),
(556,249,l),
(831,249,l),
(808,291,l),
(809,272,ls),
(812,194,o),
(705,142,o),
(565,142,cs),
(430,142,o),
(303,195,o),
(303,352,cs),
(303,473,o),
(419,562,o),
(569,562,cs),
(670,562,o),
(750,525,o),
(811,482,c),
(915,598,l),
(853,655,o),
(731,714,o),
(571,714,cs),
(314,714,o),
(123,560,o),
(123,352,cs),
(123,110,o),
(306,-10,o),
(545,-10,cs)
);
}
);
userData = {
com.schriftgestaltung.Glyphs.glyph.leftMetricsKey = O;
};
width = 1096.87243;
}
);
metricLeft = O;
unicode = 71;
},
{
color = 6;
glyphname = H;
kernLeft = H;
kernRight = H;
layers = (
{
anchors = (
{
name = bottom;
pos = (381,0);
},
{
name = center;
pos = (381,350);
},
{
name = top;
pos = (381,700);
},
{
name = topleft;
pos = (20,700);
}
);
layerId = "5A878C7E-547A-4951-B48F-676DBBC9B762";
shapes = (
{
closed = 1;
nodes = (
(663,0,l),
(663,700,l),
(555,700,l),
(555,0,l)
);
},
{
closed = 1;
nodes = (
(206,0,l),
(206,700,l),
(98,700,l),
(98,0,l)
);
},
{
closed = 1;
nodes = (
(603,297,l),
(603,401,l),
(145,401,l),
(145,297,l)
);
}
);
width = 761;
},
{
anchors = (
{
name = bottom;
pos = (535,0);
},
{
name = center;
pos = (535,350);
},
{
name = top;
pos = (535,700);
},
{
name = topleft;
pos = (104,700);
}
);
layerId = "649E0662-786D-44F6-8E8D-A6782F19FFAA";
shapes = (
{
closed = 1;
nodes = (
(887,0,l),
(887,700,l),
(779,700,l),
(779,0,l)
);
},
{
closed = 1;
nodes = (
(290,0,l),
(290,700,l),
(182,700,l),
(182,0,l)
);
},
{
closed = 1;
nodes = (
(827,293,l),
(827,397,l),
(230,397,l),
(229,293,l)
);
}
);
width = 1069;
},
{
anchors = (
{
name = bottom;
pos = (369,0);
},
{
name = center;
pos = (369,350);
},
{
name = top;
pos = (369,700);
},
{
name = topleft;
pos = (20,700);
}
);
layerId = "E41BA830-E06B-4916-8D61-039D08A6FFE2";
shapes = (
{
closed = 1;
nodes = (
(631,0,l),
(631,700,l),
(589,700,l),
(589,0,l)
);
},
{
closed = 1;
nodes = (
(149,0,l),
(149,700,l),
(107,700,l),
(107,0,l)
);
},
{
closed = 1;
nodes = (
(609,328,l),
(609,370,l),
(127,370,l),
(127,328,l)
);
}
);
width = 738.74419;
},
{
anchors = (
{
name = bottom;
pos = (523,0);
},
{
name = center;
pos = (523,350);
},
{
name = top;
pos = (523,700);
},
{
name = topleft;
pos = (104,700);
}
);
layerId = "60FFA52A-095B-47EE-98E9-9B5B7A5F3F54";
shapes = (
{
closed = 1;
nodes = (
(855,0,l),
(855,700,l),
(813,700,l),
(813,0,l)
);
},
{
closed = 1;
nodes = (
(233,0,l),
(233,700,l),
(191,700,l),
(191,0,l)
);
},
{
closed = 1;
nodes = (
(832,324,l),
(832,366,l),
(212,366,l),
(211,324,l)
);
}
);
width = 1046.74419;
},
{
anchors = (
{
name = bottom;
pos = (391,0);
},
{
name = center;
pos = (391,350);
},
{
name = top;
pos = (391,700);
},
{
name = topleft;
pos = (20,700);
}
);
layerId = "C30A2D91-B9D3-4A88-AAF0-AD27EF9042EE";
shapes = (
{
closed = 1;
nodes = (
(693,0,l),
(693,700,l),
(522,700,l),
(522,0,l)
);
},
{
closed = 1;
nodes = (
(258,0,l),
(258,700,l),
(87,700,l),
(87,0,l)
);
},
{
closed = 1;
nodes = (
(612,272,l),
(612,426,l),
(155,426,l),
(155,272,l)
);
}
);
width = 779.67421;
},
{
anchors = (
{
name = bottom;
pos = (545,0);
},
{
name = center;
pos = (545,350);
},
{
name = top;
pos = (545,700);
},
{
name = topleft;
pos = (104,700);
}
);
layerId = "F0741901-C5E8-42E7-A5F2-E893972BE6B8";
shapes = (
{
closed = 1;
nodes = (
(917,0,l),
(917,700,l),
(746,700,l),
(746,0,l)
);
},
{
closed = 1;
nodes = (
(342,0,l),
(342,700,l),
(171,700,l),
(171,0,l)
);
},
{
closed = 1;
nodes = (
(836,268,l),
(836,422,l),
(240,422,l),
(239,268,l)
);
}
);
width = 1087.68143;
}
);
unicode = 72;
},
{
color = 3;
glyphname = Hbar;
layers = (
{
layerId = "5A878C7E-547A-4951-B48F-676DBBC9B762";
shapes = (
{
closed = 1;
nodes = (
(163,468,l),
(209,478,l),
(625,478,l),
(656,468,l),
(800,468,l),
(800,572,l),
(649,572,l),
(613,562,l),
(219,562,l),
(173,572,l),
(57,572,l),
(57,468,l)
);
},
{
pos = (48,0);
ref = H;
}
);
width = 857;
},
{
layerId = "649E0662-786D-44F6-8E8D-A6782F19FFAA";
shapes = (
{
closed = 1;
nodes = (
(301,468,l),
(337,478,l),
(964,478,l),
(985,468,l),
(1144,468,l),
(1144,572,l),
(988,572,l),
(952,562,l),
(347,562,l),
(301,572,l),
(145,572,l),
(145,468,l)
);
},
{
pos = (110,0);
ref = H;
}
);
width = 1289;
},
{
layerId = "E41BA830-E06B-4916-8D61-039D08A6FFE2";
shapes = (
{
closed = 1;
nodes = (
(127,524,l),
(145,527,l),
(612,527,l),
(624,524,l),
(728,524,l),
(728,564,l),
(622,564,l),
(609,562,l),
(147,562,l),
(131,564,l),
(32,564,l),
(32,524,l)
);
},
{
alignment = -1;
pos = (11,0);
ref = H;
}
);
width = 760.30232;
},
{
layerId = "60FFA52A-095B-47EE-98E9-9B5B7A5F3F54";
shapes = (
{
closed = 1;
nodes = (
(211,524,l),
(229,526,l),
(850,526,l),
(861,524,l),
(1022,524,l),
(1022,564,l),
(862,564,l),
(847,562,l),
(231,562,l),
(212,564,l),
(52,564,l),
(52,524,l)
);
},
{
alignment = -1;
pos = (14,0);
ref = H;
}
);
width = 1074.88372;
},
{
layerId = "C30A2D91-B9D3-4A88-AAF0-AD27EF9042EE";
shapes = (
{
closed = 1;
nodes = (
(124,477,l),
(195,487,l),
(609,487,l),
(683,477,l),
(792,477,l),
(792,617,l),
(680,617,l),
(596,606,l),
(205,606,l),
(128,617,l),
(35,617,l),
(35,477,l)
);
},
{
alignment = -1;
pos = (23,0);
ref = H;
}
);
width = 825.32517;
},
{
layerId = "F0741901-C5E8-42E7-A5F2-E893972BE6B8";
shapes = (
{
closed = 1;
nodes = (
(303,477,l),
(363,487,l),
(908,487,l),
(970,477,l),
(1137,477,l),
(1137,616,l),
(978,616,l),
(896,606,l),
(374,606,l),
(297,616,l),
(127,616,l),
(127,477,l)
);
},
{
alignment = -1;
pos = (88,0);
ref = H;
}
);
width = 1263.41394;
}
);
unicode = 294;
},
{
color = 6;
glyphname = I;
kernLeft = I;
kernRight = I;
layers = (
{
anchors = (
{
name = bottom;
pos = (239,0);
},
{
name = ogonek;
pos = (343,0);
},
{
name = top;
pos = (239,700);
},
{
name = topleft;
pos = (20,700);
}
);
layerId = "5A878C7E-547A-4951-B48F-676DBBC9B762";
shapes = (
{
closed = 1;
nodes = (
(406,0,l),
(406,100,l),
(293,100,l),
(293,600,l),
(406,600,l),
(406,700,l),
(72,700,l),
(72,600,l),
(185,600,l),
(185,100,l),
(72,100,l),
(72,0,l)
);
}
);
width = 478;
},
{
anchors = (
{
name = bottom;
pos = (427,0);
},
{
name = ogonek;
pos = (520,0);
},
{
name = top;
pos = (427,700);
},
{
name = topleft;
pos = (138,700);
}
);
layerId = "649E0662-786D-44F6-8E8D-A6782F19FFAA";
shapes = (
{
closed = 1;
nodes = (
(664,0,l),
(664,107,l),
(481,107,l),
(481,593,l),
(664,593,l),
(664,700,l),
(190,700,l),
(190,593,l),
(373,593,l),
(373,107,l),
(190,107,l),
(190,0,l)
);
}
);
width = 854;
},
{
anchors = (
{
name = bottom;
pos = (204,0);
},
{
name = ogonek;
pos = (279,0);
},
{
name = top;
pos = (204,700);
},
{
name = topleft;
pos = (20,700);
}
);
layerId = "E41BA830-E06B-4916-8D61-039D08A6FFE2";
shapes = (
{
closed = 1;
nodes = (
(353,0,l),
(353,40,l),
(225,40,l),
(225,660,l),
(353,660,l),
(353,700,l),
(56,700,l),
(56,660,l),
(183,660,l),
(183,40,l),
(56,40,l),
(56,0,l)
);
}
);
width = 407.39535;
},
{
anchors = (
{
name = bottom;
pos = (392,0);
},
{
name = ogonek;
pos = (470,0);
},
{
name = top;
pos = (392,700);
},
{
name = topleft;
pos = (138,700);
}
);
layerId = "60FFA52A-095B-47EE-98E9-9B5B7A5F3F54";
shapes = (
{
closed = 1;
nodes = (
(610,0,l),
(610,42,l),
(413,42,l),
(413,658,l),
(610,658,l),
(610,700,l),
(173,700,l),
(173,658,l),
(371,658,l),
(371,42,l),
(173,42,l),
(173,0,l)
);
}
);
width = 783.39535;
},
{
anchors = (
{
name = bottom;
pos = (278,0);
},
{
name = ogonek;
pos = (398,0);
},
{
name = top;
pos = (278,700);
},
{
name = topleft;
pos = (20,700);
}
);
layerId = "C30A2D91-B9D3-4A88-AAF0-AD27EF9042EE";
shapes = (
{
closed = 1;
nodes = (
(481,0,l),
(481,144,l),
(363,144,l),
(363,556,l),
(481,556,l),
(481,700,l),
(74,700,l),
(74,556,l),
(192,556,l),
(192,144,l),
(74,144,l),
(74,0,l)
);
}
);
width = 555.29054;
},
{
anchors = (
{
name = bottom;
pos = (466,0);
},
{
name = ogonek;
pos = (574,0);
},
{
name = top;
pos = (466,700);
},
{
name = topleft;
pos = (138,700);
}
);
layerId = "F0741901-C5E8-42E7-A5F2-E893972BE6B8";
shapes = (
{
closed = 1;
nodes = (
(739,0,l),
(739,152,l),
(551,152,l),
(551,548,l),
(739,548,l),
(739,700,l),
(192,700,l),
(192,548,l),
(380,548,l),
(380,152,l),
(192,152,l),
(192,0,l)
);
}
);
width = 931.19978;
}
);
unicode = 73;
},
{
color = 6;
glyphname = J;
kernLeft = J;
kernRight = J;
layers = (
{
anchors = (
{
name = bottom;
pos = (321,0);
},
{
name = top;
pos = (426,700);
}
);
layerId = "5A878C7E-547A-4951-B48F-676DBBC9B762";
shapes = (
{
closed = 1;
nodes = (
(390.667,-10,o),
(484,86.333,o),
(484,213,cs),
(484,600,l),
(592,600,l),
(592,700,l),
(248,700,l),
(248,600,l),
(376,600,l),
(376,223,ls),
(376,148.333,o),
(328,95,o),
(256,95,cs),
(206.667,95,o),
(175.333,109.333,o),
(118,188,c),
(50,117,l),
(88.667,41,o),
(165.333,-10,o),
(256,-10,cs)
);
}
);
width = 642;
},
{
anchors = (
{
name = bottom;
pos = (478,0);
},
{
name = top;
pos = (635,700);
}
);
layerId = "649E0662-786D-44F6-8E8D-A6782F19FFAA";
shapes = (
{
closed = 1;
nodes = (
(592,-10,o),
(699,129,o),
(699,273,cs),
(699,593,l),
(831,593,l),
(831,700,l),
(417,700,l),
(417,593,l),
(591,593,l),
(591,283,ls),
(591,176,o),
(518,90,o),
(401,90,cs),
(296,90,o),
(246,156,o),
(197,223,c),
(125,147,l),
(146,110,o),
(230,-10,o),
(401,-10,cs)
);
}
);
width = 881;
},
{
anchors = (
{
name = bottom;
pos = (290,0);
},
{
name = top;
pos = (395,700);
}
);
layerId = "E41BA830-E06B-4916-8D61-039D08A6FFE2";
shapes = (
{
closed = 1;
nodes = (
(339,-10,o),
(422,65,o),
(422,213,cs),
(422,660,l),
(528,660,l),
(528,700,l),
(251,700,l),
(251,660,l),
(380,660,l),
(380,215,ls),
(380,90,o),
(315,31,o),
(221,31,cs),
(149,31,o),
(97,64,o),
(55,147,c),
(27,119,l),
(61,40,o),
(128,-10,o),
(220,-10,cs)
);
}
);
width = 578.30232;
},
{
anchors = (
{
name = bottom;
pos = (450,0);
},
{
name = top;
pos = (604,700);
}
);
layerId = "60FFA52A-095B-47EE-98E9-9B5B7A5F3F54";
shapes = (
{
closed = 1;
nodes = (
(538,-10,o),
(637,102,o),
(637,273,cs),
(637,658,l),
(767,658,l),
(767,700,l),
(420,700,l),
(420,658,l),
(595,658,l),
(595,275,ls),
(595,121,o),
(503,31,o),
(366,31,cs),
(261,31,o),
(181,98,o),
(141,180,c),
(110,149,l),
(141,77,o),
(235,-10,o),
(365,-10,cs)
);
}
);
width = 817.30233;
},
{
anchors = (
{
name = bottom;
pos = (334,0);
},
{
name = top;
pos = (408,700);
}
);
layerId = "C30A2D91-B9D3-4A88-AAF0-AD27EF9042EE";
shapes = (
{
closed = 1;
nodes = (
(393,-10,o),
(492,78,o),
(492,213,cs),
(492,551,l),
(600,551,l),
(600,700,l),
(197,700,l),
(197,551,l),
(326,551,l),
(326,232,ls),
(326,181,o),
(293,144,o),
(245,144,cs),
(206,144,o),
(177,163,o),
(139,218,c),
(41,116,l),
(82,38,o),
(160,-10,o),
(262,-10,cs)
);
}
);
width = 666.78428;
},
{
anchors = (
{
name = bottom;
pos = (491,0);
},
{
name = top;
pos = (617,700);
}
);
layerId = "F0741901-C5E8-42E7-A5F2-E893972BE6B8";
shapes = (
{
closed = 1;
nodes = (
(594,-10,o),
(707,121,o),
(707,273,cs),
(707,544,l),
(840,544,l),
(840,700,l),
(366,700,l),
(366,544,l),
(541,544,l),
(541,292,ls),
(541,209,o),
(484,139,o),
(390,139,cs),
(294,139,o),
(248,210,o),
(218,253,c),
(116,146,l),
(139,108,o),
(223,-10,o),
(407,-10,cs)
);
}
);
width = 905.98552;
}
);
unicode = 74;
},
{
color = 6;
glyphname = K;
kernLeft = H;
kernRight = K;
layers = (
{
anchors = (
{
name = bottom;
pos = (366,0);
},
{
name = top;
pos = (366,700);
}
);
layerId = "5A878C7E-547A-4951-B48F-676DBBC9B762";
shapes = (
{
closed = 1;
nodes = (
(691,700,l),
(549,700,l),
(182,333,l),
(188,212,l)
);
},
{
closed = 1;
nodes = (
(206,0,l),
(206,700,l),
(98,700,l),
(98,0,l)
);
},
{
closed = 1;
nodes = (
(697,0,l),
(374,427,l),
(294,358,l),
(562,0,l)
);
}
);
width = 732;
},
{
anchors = (
{
name = bottom;
pos = (527,0);
},
{
name = top;
pos = (527,700);
}
);
layerId = "649E0662-786D-44F6-8E8D-A6782F19FFAA";
shapes = (
{
closed = 1;
nodes = (
(935,700,l),
(775,700,l),
(259,297,l),
(259,174,l)
);
},
{
closed = 1;
nodes = (
(290,0,l),
(290,700,l),
(182,700,l),
(182,0,l)
);
},
{
closed = 1;
nodes = (
(921,0,l),
(537,465,l),
(470,379,l),
(777,0,l)
);
}
);
width = 1071;
},
{
anchors = (
{
name = bottom;
pos = (329,0);
},
{
name = top;
pos = (329,700);
}
);
layerId = "E41BA830-E06B-4916-8D61-039D08A6FFE2";
shapes = (
{
closed = 1;
nodes = (
(619,700,l),
(562,700,l),
(134,281,l),
(136,229,l)
);
},
{
closed = 1;
nodes = (
(149,0,l),
(149,700,l),
(107,700,l),
(107,0,l)
);
},
{
closed = 1;
nodes = (
(635,0,l),
(317,421,l),
(285,393,l),
(581,0,l)
);
}
);
userData = {
com.schriftgestaltung.Glyphs.glyph.leftMetricsKey = H;
};
width = 658.32558;
},
{
anchors = (
{
name = bottom;
pos = (485,0);
},
{
name = top;
pos = (485,700);
}
);
layerId = "60FFA52A-095B-47EE-98E9-9B5B7A5F3F54";
shapes = (
{
closed = 1;
nodes = (
(852,700,l),
(788,700,l),
(218,250,l),
(218,200,l)
);
},
{
closed = 1;
nodes = (
(233,0,l),
(233,700,l),
(191,700,l),
(191,0,l)
);
},
{
closed = 1;
nodes = (
(859,0,l),
(492,442,l),
(463,411,l),
(802,0,l)
);
}
);
userData = {
com.schriftgestaltung.Glyphs.glyph.leftMetricsKey = H;
};
width = 997.32558;
},
{
anchors = (
{
name = bottom;
pos = (371,0);
},
{
name = top;
pos = (371,700);
}
);
layerId = "C30A2D91-B9D3-4A88-AAF0-AD27EF9042EE";
shapes = (
{
closed = 1;
nodes = (
(719,700,l),
(516,700,l),
(170,350,l),
(214,205,l)
);
},
{
closed = 1;
nodes = (
(258,0,l),
(258,700,l),
(87,700,l),
(87,0,l)
);
},
{
closed = 1;
nodes = (
(737,0,l),
(393,441,l),
(278,342,l),
(537,0,l)
);
}
);
userData = {
com.schriftgestaltung.Glyphs.glyph.leftMetricsKey = H;
};
width = 741.62763;
},
{
anchors = (
{
name = bottom;
pos = (532,0);
},
{
name = top;
pos = (532,700);
}
);
layerId = "F0741901-C5E8-42E7-A5F2-E893972BE6B8";
shapes = (
{
closed = 1;
nodes = (
(964,700,l),
(742,700,l),
(247,314,l),
(285,166,l)
);
},
{
closed = 1;
nodes = (
(342,0,l),
(342,700,l),
(171,700,l),
(171,0,l)
);
},
{
closed = 1;
nodes = (
(961.007,0,l),
(556,480,l),
(455,363,l),
(752,0,l)
);
}
);
userData = {
com.schriftgestaltung.Glyphs.glyph.leftMetricsKey = H;
};
width = 1080.98032;
}
);
metricLeft = H;
unicode = 75;
},
{
color = 6;
glyphname = L;
kernLeft = H;
kernRight = L;
layers = (
{
anchors = (
{
name = bottom;
pos = (300,0);
},
{
name = center;
pos = (153,350);
},
{
name = top;
pos = (153,700);
},
{
name = topright;
pos = (293,700);
}
);
layerId = "5A878C7E-547A-4951-B48F-676DBBC9B762";
shapes = (
{
closed = 1;
nodes = (
(534,0,l),
(534,104,l),
(206,104,l),
(206,700,l),
(98,700,l),
(98,0,l)
);
}
);
width = 599;
},
{
anchors = (
{
name = bottom;
pos = (454,0);
},
{
name = center;
pos = (238,350);
},
{
name = top;
pos = (237,700);
},
{
name = topright;
pos = (454,700);
}
);
layerId = "649E0662-786D-44F6-8E8D-A6782F19FFAA";
shapes = (
{
closed = 1;
nodes = (
(758,0,l),
(758,104,l),
(290,104,l),
(290,700,l),
(182,700,l),
(182,0,l)
);
}
);
width = 898;
},
{
anchors = (
{
name = bottom;
pos = (275,0);
},
{
name = center;
pos = (129,350);
},
{
name = top;
pos = (129,700);
},
{
name = topright;
pos = (297,700);
}
);
layerId = "E41BA830-E06B-4916-8D61-039D08A6FFE2";
shapes = (
{
closed = 1;
nodes = (
(495,0,l),
(495,41,l),
(149,41,l),
(149,700,l),
(107,700,l),
(107,0,l)
);
}
);
userData = {
com.schriftgestaltung.Glyphs.glyph.leftMetricsKey = H;
};
width = 548.34883;
},
{
anchors = (
{
name = bottom;
pos = (413,0);
},
{
name = center;
pos = (213,350);
},
{
name = top;
pos = (212,700);
},
{
name = topright;
pos = (444,700);
}
);
layerId = "60FFA52A-095B-47EE-98E9-9B5B7A5F3F54";
shapes = (
{
closed = 1;
nodes = (
(719,0,l),
(719,41,l),
(233,41,l),
(233,700,l),
(191,700,l),
(191,0,l)
);
}
);
userData = {
com.schriftgestaltung.Glyphs.glyph.leftMetricsKey = H;
};
width = 816.65116;
},
{
anchors = (
{
name = bottom;
pos = (306,0);
},
{
name = center;
pos = (176,350);
},
{
name = top;
pos = (174,700);
},
{
name = topright;
pos = (335,700);
}
);
layerId = "C30A2D91-B9D3-4A88-AAF0-AD27EF9042EE";
shapes = (
{
closed = 1;
nodes = (
(570,0,l),
(570,151,l),
(258,151,l),
(258,700,l),
(87,700,l),
(87,0,l)
);
}
);
userData = {
com.schriftgestaltung.Glyphs.glyph.leftMetricsKey = H;
};
width = 610.48072;
},
{
anchors = (
{
name = bottom;
pos = (460,0);
},
{
name = center;
pos = (261,350);
},
{
name = top;
pos = (258,700);
},
{
name = topright;
pos = (496,700);
}
);
layerId = "F0741901-C5E8-42E7-A5F2-E893972BE6B8";
shapes = (
{
closed = 1;
nodes = (
(794,0,l),
(794,151,l),
(342,151,l),
(342,700,l),
(171,700,l),
(171,0,l)
);
}
);
userData = {
com.schriftgestaltung.Glyphs.glyph.leftMetricsKey = H;
};
width = 911.0904;
}
);
metricLeft = H;
unicode = 76;
},
{
color = 3;
glyphname = Lslash;
kernLeft = H;
kernRight = L;
layers = (
{
layerId = "5A878C7E-547A-4951-B48F-676DBBC9B762";
shapes = (
{
closed = 1;
nodes = (
(363,382,l),
(331,459,l),
(40,328,l),
(69,256,l)
);
},
{
pos = (39,0);
ref = L;
}
);
width = 638;
},
{
layerId = "649E0662-786D-44F6-8E8D-A6782F19FFAA";
shapes = (
{
closed = 1;
nodes = (
(633,439,l),
(601,536,l),
(40,318,l),
(69,226,l)
);
},
{
pos = (30,0);
ref = L;
}
);
width = 928;
},
{
layerId = "E41BA830-E06B-4916-8D61-039D08A6FFE2";
shapes = (
{
closed = 1;
nodes = (
(287,421,l),
(274,455,l),
(2,332,l),
(16,299,l)
);
},
{
alignment = -1;
pos = (-3,0);
ref = L;
}
);
userData = {
com.schriftgestaltung.Glyphs.glyph.rightMetricsKey = L;
};
width = 545.13953;
},
{
layerId = "60FFA52A-095B-47EE-98E9-9B5B7A5F3F54";
shapes = (
{
closed = 1;
nodes = (
(562,467,l),
(551,505,l),
(10,295,l),
(21,257,l)
);
},
{
alignment = -1;
pos = (7,0);
ref = L;
}
);
userData = {
com.schriftgestaltung.Glyphs.glyph.rightMetricsKey = L;
};
width = 823.62791;
},
{
layerId = "C30A2D91-B9D3-4A88-AAF0-AD27EF9042EE";
shapes = (
{
closed = 1;
nodes = (
(400,391,l),
(351,517,l),
(-5,361,l),
(43,236,l)
);
},
{
alignment = -1;
pos = (19,0);
ref = L;
}
);
userData = {
com.schriftgestaltung.Glyphs.glyph.rightMetricsKey = L;
};
width = 629.50725;
},
{
layerId = "F0741901-C5E8-42E7-A5F2-E893972BE6B8";
shapes = (
{
closed = 1;
nodes = (
(670,448,l),
(621,595,l),
(-5,352,l),
(43,207,l)
);
},
{
alignment = -1;
pos = (10,0);
ref = L;
}
);
userData = {
com.schriftgestaltung.Glyphs.glyph.rightMetricsKey = L;
};
width = 920.60591;
}
);
unicode = 321;
},
{
color = 6;
glyphname = M;
kernLeft = H;
kernRight = H;
layers = (
{
anchors = (
{
name = bottom;
pos = (432,0);
},
{
name = top;
pos = (432,700);
}
);
layerId = "5A878C7E-547A-4951-B48F-676DBBC9B762";
shapes = (
{
closed = 1;
nodes = (
(206,0,l),
(206,287,ls),
(206,416.333,o),
(200.667,502.667,o),
(186,592,c),
(175,551,l),
(397,201,l),
(463,201,l),
(692,555,l),
(678,592,l),
(663.333,497.333,o),
(658,407,o),
(658,287,cs),
(658,0,l),
(766,0,l),
(766,700,l),
(666,700,l),
(408,286,l),
(459,285,l),
(204,700,l),
(98,700,l),
(98,0,l)
);
}
);
width = 864;
},
{
anchors = (
{
name = bottom;
pos = (588,0);
},
{
name = top;
pos = (588,700);
}
);
layerId = "649E0662-786D-44F6-8E8D-A6782F19FFAA";
shapes = (
{
closed = 1;
nodes = (
(290,0,l),
(290,297,ls),
(290,408,o),
(286,501,o),
(270,602,c),
(259,561,l),
(555,201,l),
(621,201,l),
(917,561,l),
(906,602,l),
(890,501,o),
(886,408,o),
(886,297,cs),
(886,0,l),
(994,0,l),
(994,700,l),
(888,700,l),
(569,305,l),
(607,305,l),
(288,700,l),
(182,700,l),
(182,0,l)
);
}
);
width = 1176;
},
{
anchors = (
{
name = bottom;
pos = (423,0);
},
{
name = top;
pos = (423,700);
}
);
layerId = "E41BA830-E06B-4916-8D61-039D08A6FFE2";
shapes = (
{
closed = 1;
nodes = (
(149,0,l),
(149,485,ls),
(149,553,o),
(148,608,o),
(142,663,c),
(132,644,l),
(409,203,l),
(436,203,l),
(717,650,l),
(702,663,l),
(697,605,o),
(695,548,o),
(695,483,cs),
(695,0,l),
(737,0,l),
(737,700,l),
(701,700,l),
(416,244,l),
(430,244,l),
(145,700,l),
(107,700,l),
(107,0,l)
);
}
);
userData = {
com.schriftgestaltung.Glyphs.glyph.leftMetricsKey = H;
com.schriftgestaltung.Glyphs.glyph.rightMetricsKey = H;
};
width = 844.81396;
},
{
anchors = (
{
name = bottom;
pos = (579,0);
},
{
name = top;
pos = (579,700);
}
);
layerId = "60FFA52A-095B-47EE-98E9-9B5B7A5F3F54";
shapes = (
{
closed = 1;
nodes = (
(233,0,l),
(234,487,ls),
(234,551,o),
(232,608,o),
(226,663,c),
(212,656,l),
(564,213,l),
(591,213,l),
(942,655,l),
(930,664,l),
(924,604,o),
(922,546,o),
(923,485,cs),
(923,0,l),
(965,0,l),
(965,700,l),
(925,700,l),
(569,251,l),
(587,251,l),
(231,700,l),
(191,700,l),
(191,0,l)
);
}
);
userData = {
com.schriftgestaltung.Glyphs.glyph.leftMetricsKey = H;
com.schriftgestaltung.Glyphs.glyph.rightMetricsKey = H;
};
width = 1156.81395;
},
{
anchors = (
{
name = bottom;
pos = (439,0);
},
{
name = top;
pos = (439,700);
}
);
layerId = "C30A2D91-B9D3-4A88-AAF0-AD27EF9042EE";
shapes = (
{
closed = 1;
nodes = (
(254,0,l),
(254,212,ls),
(254,345,o),
(249,432,o),
(233,522,c),
(214,468,l),
(403,171,l),
(471,171,l),
(664,470,l),
(645,522,l),
(630,427,o),
(625,334,o),
(625,212,cs),
(625,0,l),
(791,0,l),
(791,700,l),
(643,700,l),
(386,288,l),
(494,287,l),
(240,700,l),
(87,700,l),
(87,0,l)
);
}
);
userData = {
com.schriftgestaltung.Glyphs.glyph.leftMetricsKey = H;
com.schriftgestaltung.Glyphs.glyph.rightMetricsKey = H;
};
width = 878.10587;
},
{
anchors = (
{
name = bottom;
pos = (595,0);
},
{
name = top;
pos = (595,700);
}
);
layerId = "F0741901-C5E8-42E7-A5F2-E893972BE6B8";
shapes = (
{
closed = 1;
nodes = (
(338,0,l),
(338,222,ls),
(338,335,o),
(334,430,o),
(317,533,c),
(298,478,l),
(561,171,l),
(629,171,l),
(889,476,l),
(873,533,l),
(857,430,o),
(853,335,o),
(853,222,cs),
(853,0,l),
(1019,0,l),
(1019,700,l),
(865,700,l),
(548,307,l),
(642,307,l),
(324,700,l),
(171,700,l),
(171,0,l)
);
}
);
userData = {
com.schriftgestaltung.Glyphs.glyph.leftMetricsKey = H;
com.schriftgestaltung.Glyphs.glyph.rightMetricsKey = H;
};
width = 1190.12465;
}
);
metricLeft = H;
metricRight = H;
unicode = 77;
},
{
color = 6;
glyphname = N;
kernLeft = H;
kernRight = H;
layers = (
{
anchors = (
{
name = bottom;
pos = (397,0);
},
{
name = top;
pos = (397,700);
}
);
layerId = "5A878C7E-547A-4951-B48F-676DBBC9B762";
shapes = (
{
closed = 1;
nodes = (
(206,0,l),
(206,291,ls),
(206,321.169,o),
(203.595,363.871,o),
(186,566,c),
(175,552,l),
(596,0,l),
(695,0,l),
(695,700,l),
(587,700,l),
(587,470,ls),
(587,323.333,o),
(593.667,200.667,o),
(607,118,c),
(623,127,l),
(195,700,l),
(98,700,l),
(98,0,l)
);
}
);
width = 793;
},
{
anchors = (
{
name = bottom;
pos = (561,0);
},
{
name = top;
pos = (561,700);
}
);
layerId = "649E0662-786D-44F6-8E8D-A6782F19FFAA";
shapes = (
{
closed = 1;
nodes = (
(290,0,l),
(290,291,ls),
(290,382,o),
(275,505,o),
(270,566,c),
(269,552,l),
(830,0,l),
(939,0,l),
(939,700,l),
(831,700,l),
(831,470,ls),
(831,361,o),
(835,218,o),
(851,118,c),
(857,127,l),
(289,700,l),
(182,700,l),
(182,0,l)
);
}
);
width = 1121;
},
{
anchors = (
{
name = bottom;
pos = (373,0);
},
{
name = top;
pos = (373,700);
}
);
layerId = "E41BA830-E06B-4916-8D61-039D08A6FFE2";
shapes = (
{
closed = 1;
nodes = (
(149,0,l),
(149,429,ls),
(149,492,o),
(148,585,o),
(143,658,c),
(129,655,l),
(599,0,l),
(638,0,l),
(638,700,l),
(596,700,l),
(596,294,ls),
(596,145,o),
(598,92,o),
(602,51,c),
(609,53,l),
(146,700,l),
(107,700,l),
(107,0,l)
);
}
);
userData = {
com.schriftgestaltung.Glyphs.glyph.leftMetricsKey = H;
com.schriftgestaltung.Glyphs.glyph.rightMetricsKey = H;
};
width = 746;
},
{
anchors = (
{
name = bottom;
pos = (537,0);
},
{
name = top;
pos = (537,700);
}
);
layerId = "60FFA52A-095B-47EE-98E9-9B5B7A5F3F54";
shapes = (
{
closed = 1;
nodes = (
(233,0,l),
(233,428,ls),
(234,530,o),
(229,613,o),
(227,657,c),
(223,654,l),
(833,0,l),
(881,0,l),
(881,700,l),
(839,700,l),
(839,294,ls),
(841,223,o),
(840,110,o),
(846,40,c),
(851,43,l),
(239,700,l),
(191,700,l),
(191,0,l)
);
}
);
userData = {
com.schriftgestaltung.Glyphs.glyph.leftMetricsKey = H;
com.schriftgestaltung.Glyphs.glyph.rightMetricsKey = H;
};
width = 1073.4186;
},
{
anchors = (
{
name = bottom;
pos = (405,0);
},
{
name = top;
pos = (405,700);
}
);
layerId = "C30A2D91-B9D3-4A88-AAF0-AD27EF9042EE";
shapes = (
{
closed = 1;
nodes = (
(254,0,l),
(254,230,ls),
(254,310,o),
(251,344,o),
(233,507,c),
(184,514,l),
(566,0,l),
(721,0,l),
(721,700,l),
(555,700,l),
(555,533,ls),
(554,394,o),
(560,317,o),
(575,205,c),
(608,201,l),
(240,700,l),
(87,700,l),
(87,0,l)
);
}
);
userData = {
com.schriftgestaltung.Glyphs.glyph.leftMetricsKey = H;
com.schriftgestaltung.Glyphs.glyph.rightMetricsKey = H;
};
width = 808.22339;
},
{
anchors = (
{
name = bottom;
pos = (569,0);
},
{
name = top;
pos = (569,700);
}
);
layerId = "F0741901-C5E8-42E7-A5F2-E893972BE6B8";
shapes = (
{
closed = 1;
nodes = (
(338,0,l),
(338,230,ls),
(338,371,o),
(326,457,o),
(317,507,c),
(278,514,l),
(801,0,l),
(965,0,l),
(965,700,l),
(799,700,l),
(799,533,ls),
(799,429,o),
(801,334,o),
(820,205,c),
(841,202,l),
(334,700,l),
(171,700,l),
(171,0,l)
);
}
);
userData = {
com.schriftgestaltung.Glyphs.glyph.leftMetricsKey = H;
com.schriftgestaltung.Glyphs.glyph.rightMetricsKey = H;
};
width = 1136.41765;
}
);
metricLeft = H;
metricRight = H;
unicode = 78;
},
{
color = 6;
glyphname = Nhookleft;
kernLeft = H;
kernRight = H;
layers = (
{
layerId = "5A878C7E-547A-4951-B48F-676DBBC9B762";
shapes = (
{
closed = 1;
nodes = (
(115.667,-197,o),
(190,-128,o),
(190,-24,cs),
(190,291,ls),
(190,341,o),
(181,455,o),
(170,566,c),
(159,552,l),
(580,0,l),
(679,0,l),
(679,700,l),
(571,700,l),
(571,470,ls),
(571,323.333,o),
(577.667,200.667,o),
(591,118,c),
(607,127,l),
(179,700,l),
(82,700,l),
(82,1,ls),
(82,-77.667,o),
(43.333,-118,o),
(-34,-118,c),
(5,-197,l)
);
}
);
width = 777;
},
{
layerId = "649E0662-786D-44F6-8E8D-A6782F19FFAA";
shapes = (
{
closed = 1;
nodes = (
(192,-197,o),
(310,-81,o),
(310,106,cs),
(310,291,ls),
(310,346,o),
(301,453,o),
(290,566,c),
(269,532,l),
(830,0,l),
(939,0,l),
(939,700,l),
(811,700,l),
(811,470,ls),
(811,361,o),
(815,218,o),
(831,118,c),
(857,147,l),
(289,700,l),
(182,700,l),
(182,131,ls),
(182,-9,o),
(130,-95,o),
(1,-95,c),
(40,-197,l)
);
}
);
width = 1121;
},
{
layerId = "E41BA830-E06B-4916-8D61-039D08A6FFE2";
shapes = (
{
closed = 1;
nodes = (
(93,-195,o),
(145,-143,o),
(145,-51,cs),
(145,429,ls),
(145,459,o),
(143,613,o),
(139,658,c),
(125,655,l),
(596,0,l),
(633,0,l),
(633,700,l),
(591,700,l),
(591,294,ls),
(591,145,o),
(594,92,o),
(599,51,c),
(605,53,l),
(143,700,l),
(103,700,l),
(103,-43,ls),
(103,-114,o),
(72,-160,o),
(-10,-160,c),
(6,-195,l)
);
}
);
userData = {
com.schriftgestaltung.Glyphs.glyph.rightMetricsKey = N;
};
width = 741;
},
{
layerId = "60FFA52A-095B-47EE-98E9-9B5B7A5F3F54";
shapes = (
{
closed = 1;
nodes = (
(155,-191,o),
(251,-96,o),
(251,78,cs),
(251,428,ls),
(251,464,o),
(248,608,o),
(245,657,c),
(236,649,l),
(846,0,l),
(894,0,l),
(894,700,l),
(848,700,l),
(848,294,ls),
(849,223,o),
(849,110,o),
(854,40,c),
(864,48,l),
(252,700,l),
(204,700,l),
(204,87,ls),
(204,-55,o),
(144,-143,o),
(18,-154,c),
(30,-195,l)
);
}
);
userData = {
com.schriftgestaltung.Glyphs.glyph.rightMetricsKey = N;
};
width = 1086.46512;
},
{
layerId = "C30A2D91-B9D3-4A88-AAF0-AD27EF9042EE";
shapes = (
{
closed = 1;
nodes = (
(162,-203,o),
(244,-138,o),
(244,3,cs),
(244,204,ls),
(244,301,o),
(239,370,o),
(223,507,c),
(173,514,l),
(556,0,l),
(710,0,l),
(710,700,l),
(544,700,l),
(544,533,ls),
(544,394,o),
(549,317,o),
(565,205,c),
(598,201,l),
(230,700,l),
(78,700,l),
(78,41,ls),
(78,-38,o),
(35,-78,o),
(-50,-78,c),
(17,-203,l)
);
}
);
userData = {
com.schriftgestaltung.Glyphs.glyph.rightMetricsKey = N;
};
width = 797;
},
{
layerId = "F0741901-C5E8-42E7-A5F2-E893972BE6B8";
shapes = (
{
closed = 1;
nodes = (
(240,-203,o),
(365,-90,o),
(365,133,cs),
(365,204,ls),
(365,306,o),
(360,368,o),
(344,507,c),
(283,493,l),
(806,0,l),
(970,0,l),
(970,700,l),
(783,700,l),
(783,533,ls),
(783,429,o),
(786,334,o),
(804,205,c),
(848,222,l),
(340,700,l),
(178,700,l),
(178,171,ls),
(178,31,o),
(123,-55,o),
(-14,-54,c),
(53,-203,l)
);
}
);
userData = {
com.schriftgestaltung.Glyphs.glyph.rightMetricsKey = N;
};
width = 1141;
}
);
metricRight = N;
unicode = 413;
},
{
color = 6;
glyphname = Eng;
kernLeft = H;
kernRight = H;
layers = (
{
layerId = "5A878C7E-547A-4951-B48F-676DBBC9B762";
shapes = (
{
closed = 1;
nodes = (
(620.667,-197,o),
(695,-128,o),
(695,-24,cs),
(695,700,l),
(587,700,l),
(587,470,ls),
(587,323.333,o),
(593.667,200.667,o),
(607,118,c),
(623,127,l),
(195,700,l),
(98,700,l),
(98,0,l),
(206,0,l),
(206,291,ls),
(206,341,o),
(197,455,o),
(186,566,c),
(175,552,l),
(596,0,l),
(587,76,l),
(587,1,ls),
(587,-77.667,o),
(548.333,-118,o),
(471,-118,c),
(510,-197,l)
);
}
);
width = 793;
},
{
layerId = "649E0662-786D-44F6-8E8D-A6782F19FFAA";
shapes = (
{
closed = 1;
nodes = (
(821,-197,o),
(939,-81,o),
(939,106,cs),
(939,700,l),
(831,700,l),
(831,470,ls),
(831,361,o),
(835,218,o),
(851,118,c),
(857,127,l),
(289,700,l),
(182,700,l),
(182,0,l),
(290,0,l),
(290,291,ls),
(290,346,o),
(281,455,o),
(270,566,c),
(269,552,l),
(830,0,l),
(826,71,l),
(826,50,ls),
(826,-32,o),
(747,-95,o),
(630,-95,c),
(669,-197,l)
);
}
);
width = 1121;
},
{
layerId = "E41BA830-E06B-4916-8D61-039D08A6FFE2";
shapes = (
{
closed = 1;
nodes = (
(585,-195,o),
(638,-143,o),
(638,-51,cs),
(638,700,l),
(596,700,l),
(596,294,ls),
(596,145,o),
(599,93,o),
(602,51,c),
(609,53,l),
(146,700,l),
(107,700,l),
(107,0,l),
(149,0,l),
(149,429,ls),
(149,457,o),
(148,614,o),
(143,658,c),
(129,655,l),
(605,-8,l),
(596,32,l),
(596,-43,ls),
(596,-114,o),
(564,-160,o),
(483,-160,c),
(497,-195,l)
);
}
);
userData = {
com.schriftgestaltung.Glyphs.glyph.leftMetricsKey = N;
com.schriftgestaltung.Glyphs.glyph.rightMetricsKey = N;
};
width = 746;
},
{
layerId = "60FFA52A-095B-47EE-98E9-9B5B7A5F3F54";
shapes = (
{
closed = 1;
nodes = (
(798,-195,o),
(881,-100,o),
(881,25,cs),
(881,700,l),
(839,700,l),
(839,294,ls),
(839,225,o),
(841,111,o),
(846,44,c),
(851,49,l),
(241,700,l),
(191,700,l),
(191,0,l),
(233,0,l),
(233,476,ls),
(232,516,o),
(232,605,o),
(227,658,c),
(223,655,l),
(845,-4,l),
(841,28,l),
(841,9,ls),
(841,-85,o),
(768,-158,o),
(644,-158,c),
(657,-195,l)
);
}
);
userData = {
com.schriftgestaltung.Glyphs.glyph.leftMetricsKey = N;
com.schriftgestaltung.Glyphs.glyph.rightMetricsKey = N;
};
width = 1073.4186;
},
{
layerId = "C30A2D91-B9D3-4A88-AAF0-AD27EF9042EE";
shapes = (
{
closed = 1;
nodes = (
(635,-203,o),
(721,-141,o),
(721,-9,cs),
(721,700,l),
(555,700,l),
(555,533,ls),
(554,406,o),
(558,330,o),
(573,220,c),
(588,229,l),
(240,700,l),
(87,700,l),
(87,0,l),
(254,0,l),
(254,254,ls),
(254,300,o),
(247,389,o),
(239,465,c),
(226,455,l),
(567,-1,l),
(559,63,l),
(559,3,ls),
(559,-53,o),
(494,-78,o),
(427,-78,c),
(495,-203,l)
);
}
);
userData = {
com.schriftgestaltung.Glyphs.glyph.leftMetricsKey = N;
com.schriftgestaltung.Glyphs.glyph.rightMetricsKey = N;
};
width = 808.22339;
},
{
layerId = "F0741901-C5E8-42E7-A5F2-E893972BE6B8";
shapes = (
{
closed = 1;
nodes = (
(836,-203,o),
(965,-94,o),
(965,123,cs),
(965,700,l),
(799,700,l),
(799,533,ls),
(798,443,o),
(800,347,o),
(817,221,c),
(822,229,l),
(334.004,700,l),
(171,700,l),
(171,0,l),
(338,0,l),
(338,251,ls),
(338,302,o),
(331,388,o),
(323,465,c),
(320,455,l),
(801,-1,l),
(798,58,l),
(798,52,ls),
(798,-6,o),
(692,-54,o),
(587,-54,c),
(654,-203,l)
);
}
);
userData = {
com.schriftgestaltung.Glyphs.glyph.leftMetricsKey = N;
com.schriftgestaltung.Glyphs.glyph.rightMetricsKey = N;
};
width = 1136.41765;
}
);
metricLeft = N;
metricRight = N;
unicode = 330;
},
{
color = 6;
glyphname = O;
kernLeft = C;
kernRight = D;
layers = (
{
anchors = (
{
name = bottom;
pos = (391,0);
},
{
name = center;
pos = (391,350);
},
{
name = ogonek;
pos = (563,0);
},
{
name = top;
pos = (391,700);
},
{
name = topleft;
pos = (20,700);
},
{
name = topright;
pos = (762,700);
}
);
layerId = "5A878C7E-547A-4951-B48F-676DBBC9B762";
shapes = (
{
closed = 1;
nodes = (
(588.333,-10,o),
(734,144.667,o),
(734,350,cs),
(734,555.333,o),
(588.333,710,o),
(391,710,cs),
(193.667,710,o),
(48,556.667,o),
(48,350,cs),
(48,143.333,o),
(193.667,-10,o),
(391,-10,cs)
);
},
{
closed = 1;
nodes = (
(255,95,o),
(158,202,o),
(158,350,cs),
(158,498,o),
(255,605,o),
(391,605,cs),
(525.667,605,o),
(624,496.667,o),
(624,350,cs),
(624,203.333,o),
(525.667,95,o),
(391,95,cs)
);
}
);
width = 782;
},
{
anchors = (
{
name = bottom;
pos = (551,0);
},
{
name = center;
pos = (551,350);
},
{
name = ogonek;
pos = (768,0);
},
{
name = top;
pos = (551,700);
},
{
name = topleft;
pos = (100,700);
},
{
name = topright;
pos = (1002,700);
}
);
layerId = "649E0662-786D-44F6-8E8D-A6782F19FFAA";
shapes = (
{
closed = 1;
nodes = (
(796,-10,o),
(974,149,o),
(974,350,cs),
(974,551,o),
(796,710,o),
(551,710,cs),
(304,710,o),
(128,551,o),
(128,350,cs),
(128,149,o),
(304,-10,o),
(551,-10,cs)
);
},
{
closed = 1;
nodes = (
(366,95,o),
(238,205,o),
(238,350,cs),
(238,495,o),
(366,605,o),
(551,605,cs),
(734,605,o),
(864,494,o),
(864,350,cs),
(864,206,o),
(734,95,o),
(551,95,cs)
);
}
);
width = 1102;
},
{
anchors = (
{
name = bottom;
pos = (397,0);
},
{
name = center;
pos = (397,350);
},
{
name = ogonek;
pos = (504,0);
},
{
name = top;
pos = (397,700);
},
{
name = topleft;
pos = (20,700);
},
{
name = topright;
pos = (775,700);
}
);
layerId = "E41BA830-E06B-4916-8D61-039D08A6FFE2";
shapes = (
{
closed = 1;
nodes = (
(598,-10,o),
(741,140,o),
(741,349,cs),
(741,560,o),
(598,710,o),
(397,710,cs),
(197,710,o),
(54,559,o),
(54,349,cs),
(54,139,o),
(197,-10,o),
(397,-10,cs)
);
},
{
closed = 1;
nodes = (
(223,31,o),
(97,164,o),
(97,349,cs),
(97,534,o),
(223,669,o),
(397,669,cs),
(572,669,o),
(698,534,o),
(698,349,cs),
(698,165,o),
(572,31,o),
(397,31,cs)
);
}
);
width = 794.27907;
},
{
anchors = (
{
name = bottom;
pos = (557,0);
},
{
name = center;
pos = (557,350);
},
{
name = ogonek;
pos = (713,0);
},
{
name = top;
pos = (557,700);
},
{
name = topleft;
pos = (100,700);
},
{
name = topright;
pos = (741,700);
}
);
layerId = "60FFA52A-095B-47EE-98E9-9B5B7A5F3F54";
shapes = (
{
closed = 1;
nodes = (
(805,-10,o),
(981,144,o),
(981,349,cs),
(981,556,o),
(805,710,o),
(557,710,cs),
(307,710,o),
(133,553,o),
(133,349,cs),
(133,145,o),
(307,-10,o),
(557,-10,cs)
);
},
{
closed = 1;
nodes = (
(334,31,o),
(177,167,o),
(177,349,cs),
(177,531,o),
(334,669,o),
(557,669,cs),
(780,669,o),
(938,531,o),
(938,349,cs),
(938,168,o),
(780,31,o),
(557,31,cs)
);
}
);
width = 1114.27907;
},
{
anchors = (
{
name = bottom;
pos = (406,0);
},
{
name = center;
pos = (406,350);
},
{
name = ogonek;
pos = (670,6);
},
{
name = top;
pos = (406,700);
},
{
name = topleft;
pos = (20,700);
},
{
name = topright;
pos = (790,700);
}
);
layerId = "C30A2D91-B9D3-4A88-AAF0-AD27EF9042EE";
shapes = (
{
closed = 1;
nodes = (
(615,-10,o),
(767,144,o),
(767,352,cs),
(767,562,o),
(615,716,o),
(406,716,cs),
(195,716,o),
(43,563,o),
(43,352,cs),
(43,143,o),
(195,-10,o),
(406,-10,cs)
);
},
{
closed = 1;
nodes = (
(296,151,o),
(217,235,o),
(217,352,cs),
(217,470,o),
(296,555,o),
(406,555,cs),
(514,555,o),
(594,469,o),
(594,352,cs),
(594,236,o),
(514,151,o),
(406,151,cs)
);
}
);
width = 810.39914;
},
{
anchors = (
{
name = bottom;
pos = (565,0);
},
{
name = center;
pos = (565,350);
},
{
name = ogonek;
pos = (874,6);
},
{
name = top;
pos = (565,700);
},
{
name = topleft;
pos = (100,700);
},
{
name = topright;
pos = (1042,700);
}
);
layerId = "F0741901-C5E8-42E7-A5F2-E893972BE6B8";
shapes = (
{
closed = 1;
nodes = (
(823,-10,o),
(1006,148,o),
(1006,352,cs),
(1006,558,o),
(823,716,o),
(565,716,cs),
(306,716,o),
(123,557,o),
(123,352,cs),
(123,149,o),
(304.99,-10,o),
(565,-10,cs)
);
},
{
closed = 1;
nodes = (
(407,151,o),
(297,238,o),
(297,352,cs),
(297,467,o),
(407,555,o),
(565,555,cs),
(722,555,o),
(834,466,o),
(834,352,cs),
(834,238,o),
(722,151,o),
(565,151,cs)
);
}
);
width = 1130.15136;
}
);
unicode = 79;
},
{
color = 6;
glyphname = Ohorn;
kernLeft = C;
kernRight = D;
layers = (
{
anchors = (
{
name = bottom;
pos = (391,0);
},
{
name = top;
pos = (391,700);
}
);
layerId = "5A878C7E-547A-4951-B48F-676DBBC9B762";
shapes = (
{
closed = 1;
nodes = (
(588.333,-10,o),
(734,144.667,o),
(734,350,cs),
(734,481,o),
(675,591,o),
(581,654,c),
(574,630,l),
(662,642,o),
(700,713,o),
(700,814,c),
(608,814,l),
(608,735,o),
(579,695,o),
(519,695,cs),
(503,695,o),
(488,697,o),
(471,701,cs),
(449,706,o),
(424,710,o),
(391,710,cs),
(193.667,710,o),
(48,556.667,o),
(48,350,cs),
(48,143.333,o),
(193.667,-10,o),
(391,-10,cs)
);
},
{
closed = 1;
nodes = (
(255,95,o),
(158,202,o),
(158,350,cs),
(158,498,o),
(255,605,o),
(391,605,cs),
(525.667,605,o),
(624,496.667,o),
(624,350,cs),
(624,203.333,o),
(525.667,95,o),
(391,95,cs)
);
}
);
width = 782;
},
{
anchors = (
{
name = bottom;
pos = (551,0);
},
{
name = top;
pos = (551,700);
}
);
layerId = "649E0662-786D-44F6-8E8D-A6782F19FFAA";
shapes = (
{
closed = 1;
nodes = (
(796,-10,o),
(974,149,o),
(974,350,cs),
(974,477,o),
(903,587,o),
(790,651,c),
(782,631,l),
(894,632,o),
(944,708,o),
(944,814,c),
(852,814,l),
(852,724,o),
(808,694,o),
(733,694,cs),
(704,694,o),
(674,697,o),
(644,702,cs),
(614,707,o),
(583,710,o),
(551,710,cs),
(304,710,o),
(128,551,o),
(128,350,cs),
(128,149,o),
(304,-10,o),
(551,-10,cs)
);
},
{
closed = 1;
nodes = (
(366,95,o),
(238,205,o),
(238,350,cs),
(238,495,o),
(366,605,o),
(551,605,cs),
(734,605,o),
(864,494,o),
(864,350,cs),
(864,206,o),
(734,95,o),
(551,95,cs)
);
}
);
width = 1102;
},
{
anchors = (
{
name = bottom;
pos = (397,0);
},
{
name = top;
pos = (397,700);
}
);
layerId = "E41BA830-E06B-4916-8D61-039D08A6FFE2";
shapes = (
{
closed = 1;
nodes = (
(598,-10,o),
(741,140,o),
(741,349,cs),
(741,505,o),
(662,626,o),
(541,679,c),
(530,665,l),
(629,661,o),
(678,711,o),
(678,802,c),
(639,802,l),
(639,730,o),
(603,696,o),
(537,696,cs),
(520,696,o),
(497,698,o),
(473,703,cs),
(449,707,o),
(425,710,o),
(397,710,cs),
(197,710,o),
(54,559,o),
(54,349,cs),
(54,139,o),
(197,-10,o),
(397,-10,cs)
);
},
{
closed = 1;
nodes = (
(223,31,o),
(97,164,o),
(97,349,cs),
(97,534,o),
(223,669,o),
(397,669,cs),
(572,669,o),
(698,534,o),
(698,349,cs),
(698,165,o),
(572,31,o),
(397,31,cs)
);
}
);
width = 794.27907;
},
{
anchors = (
{
name = bottom;
pos = (557,0);
},
{
name = top;
pos = (557,700);
}
);
layerId = "60FFA52A-095B-47EE-98E9-9B5B7A5F3F54";
shapes = (
{
closed = 1;
nodes = (
(805,-10,o),
(981,144,o),
(981,349,cs),
(981,502,o),
(885,625,o),
(736,678,c),
(757,660,l),
(879,660,o),
(926,702,o),
(926,802,c),
(887,802,l),
(887,726,o),
(856,691,o),
(751,691,cs),
(723,691,o),
(695,696,o),
(648,703,cs),
(619,707,o),
(588,710,o),
(557,710,cs),
(307,710,o),
(133,553,o),
(133,349,cs),
(133,145,o),
(307,-10,o),
(557,-10,cs)
);
},
{
closed = 1;
nodes = (
(334,31,o),
(177,167,o),
(177,349,cs),
(177,531,o),
(334,669,o),
(557,669,cs),
(766,669,o),
(938,531,o),
(938,349,cs),
(938,168,o),
(780,31,o),
(557,31,cs)
);
}
);
width = 1114.27907;
},
{
anchors = (
{
name = bottom;
pos = (406,0);
},
{
name = top;
pos = (406,700);
}
);
layerId = "C30A2D91-B9D3-4A88-AAF0-AD27EF9042EE";
shapes = (
{
closed = 1;
nodes = (
(615,-10,o),
(767,144,o),
(767,352,cs),
(767,472,o),
(717,573,o),
(637,638,c),
(613,615,l),
(735,621,o),
(767,718,o),
(767,826,c),
(639,826,l),
(639,739,o),
(610,695,o),
(555,695,cs),
(533,695,o),
(514,700,o),
(492,705,cs),
(464,712,o),
(434,716,o),
(406,716,cs),
(195,716,o),
(43,563,o),
(43,352,cs),
(43,143,o),
(195,-10,o),
(406,-10,cs)
);
},
{
closed = 1;
nodes = (
(296,151,o),
(217,235,o),
(217,352,cs),
(217,470,o),
(296,555,o),
(406,555,cs),
(514,555,o),
(594,469,o),
(594,352,cs),
(594,236,o),
(514,151,o),
(406,151,cs)
);
}
);
width = 810.39914;
},
{
anchors = (
{
name = bottom;
pos = (565,0);
},
{
name = top;
pos = (565,700);
}
);
layerId = "F0741901-C5E8-42E7-A5F2-E893972BE6B8";
shapes = (
{
closed = 1;
nodes = (
(823,-10,o),
(1006,148,o),
(1006,352,cs),
(1006,468,o),
(946,568,o),
(847,635,c),
(820,616,l),
(966,610,o),
(1010,713,o),
(1010,826,c),
(882,826,l),
(882,727,o),
(837,694,o),
(768,694,cs),
(734,694,o),
(699,700,o),
(665,706,cs),
(628,713,o),
(593,716,o),
(565,716,cs),
(306,716,o),
(123,557,o),
(123,352,cs),
(123,149,o),
(304.99,-10,o),
(565,-10,cs)
);
},
{
closed = 1;
nodes = (
(407,151,o),
(297,238,o),
(297,352,cs),
(297,467,o),
(407,555,o),
(565,555,cs),
(722,555,o),
(834,466,o),
(834,352,cs),
(834,238,o),
(722,151,o),
(565,151,cs)
);
}
);
width = 1130.15136;
}
);
unicode = 416;
},
{
color = 3;
glyphname = Oogonek;
kernLeft = C;
kernRight = D;
layers = (
{
anchors = (
{
name = top;
pos = (391,700);
}
);
layerId = "5A878C7E-547A-4951-B48F-676DBBC9B762";
shapes = (
{
closed = 1;
nodes = (
(520,-200,o),
(567,-171,o),
(581,-138,c),
(525,-98,l),
(514,-114,o),
(502,-123,o),
(488,-123,cs),
(466,-123,o),
(454,-108,o),
(454,-84,cs),
(454,-44,o),
(493,-3,o),
(570,40,c),
(532,85,l),
(442,38,o),
(363,-16,o),
(363,-97,cs),
(363,-164,o),
(414,-200,o),
(472,-200,cs)
);
},
{
ref = O;
}
);
width = 782;
},
{
anchors = (
{
name = top;
pos = (551,700);
}
);
layerId = "649E0662-786D-44F6-8E8D-A6782F19FFAA";
shapes = (
{
closed = 1;
nodes = (
(681,-200,o),
(725,-166,o),
(736,-138,c),
(680,-98,l),
(672,-111,o),
(660,-123,o),
(643,-123,cs),
(622,-123,o),
(609,-108,o),
(609,-86,cs),
(609,-21,o),
(725,16,o),
(765,37,c),
(744,91,l),
(665,61,o),
(518,0,o),
(518,-99,cs),
(518,-158,o),
(565,-200,o),
(627,-200,cs)
);
},
{
ref = O;
}
);
width = 1102;
},
{
anchors = (
{
name = top;
pos = (397,700);
}
);
layerId = "E41BA830-E06B-4916-8D61-039D08A6FFE2";
shapes = (
{
closed = 1;
nodes = (
(549,-227,o),
(586,-204,o),
(601,-172,c),
(577,-152,l),
(564,-177,o),
(541,-193,o),
(511,-193,cs),
(472,-193,o),
(443,-163,o),
(443,-119,cs),
(443,-59,o),
(497,-11,o),
(571,34,c),
(558,59,l),
(480,13,o),
(405,-40,o),
(405,-124,cs),
(405,-185,o),
(451,-227,o),
(507,-227,cs)
);
},
{
alignment = -1;
ref = O;
}
);
width = 794.27907;
},
{
anchors = (
{
name = top;
pos = (557,700);
}
);
layerId = "60FFA52A-095B-47EE-98E9-9B5B7A5F3F54";
shapes = (
{
closed = 1;
nodes = (
(722,-228,o),
(758,-203,o),
(773,-172,c),
(748,-152,l),
(735,-176,o),
(713,-193,o),
(682,-193,cs),
(643,-193,o),
(614,-163,o),
(614,-124,cs),
(614,-69,o),
(667,-14,o),
(786,42,c),
(777,69,l),
(649,10,o),
(576,-51,o),
(576,-129,cs),
(576,-184,o),
(621,-228,o),
(678,-228,cs)
);
},
{
alignment = -1;
ref = O;
}
);
width = 1114.27907;
},
{
anchors = (
{
name = top;
pos = (406,700);
}
);
layerId = "C30A2D91-B9D3-4A88-AAF0-AD27EF9042EE";
shapes = (
{
closed = 1;
nodes = (
(556,-210,o),
(604,-174,o),
(623,-134,c),
(552,-82,l),
(543,-98,o),
(533,-105,o),
(521,-105,cs),
(504,-105,o),
(494,-92,o),
(494,-74,cs),
(494,-28,o),
(546,12,o),
(609,48,c),
(573,96,l),
(467,45,o),
(382,-12,o),
(382,-99,cs),
(382,-167,o),
(431,-210,o),
(498,-210,cs)
);
},
{
alignment = -1;
ref = O;
}
);
width = 810.39914;
},
{
anchors = (
{
name = top;
pos = (565,700);
}
);
layerId = "F0741901-C5E8-42E7-A5F2-E893972BE6B8";
shapes = (
{
closed = 1;
nodes = (
(716,-210,o),
(761,-169,o),
(777,-134,c),
(706,-82,l),
(700,-95,o),
(690,-105,o),
(675,-105,cs),
(659,-105,o),
(648,-92,o),
(648,-75,cs),
(648,-3,o),
(781,32,o),
(802,45,c),
(784,102,l),
(692,69,o),
(536,6,o),
(536,-101,cs),
(536,-160,o),
(580,-210,o),
(652,-210,cs)
);
},
{
alignment = -1;
ref = O;
}
);
width = 1130.15136;
}
);
unicode = 490;
},
{
color = 3;
glyphname = Oslash;
kernLeft = C;
kernRight = D;
layers = (
{
anchors = (
{
name = bottom;
pos = (385,0);
},
{
name = top;
pos = (385,700);
}
);
layerId = "5A878C7E-547A-4951-B48F-676DBBC9B762";
shapes = (
{
closed = 1;
nodes = (
(717,694,l),
(649,741,l),
(60,20,l),
(123,-33,l)
);
},
{
pos = (-1,0);
ref = O;
}
);
width = 770;
},
{
anchors = (
{
name = bottom;
pos = (565,0);
},
{
name = top;
pos = (565,700);
}
);
layerId = "649E0662-786D-44F6-8E8D-A6782F19FFAA";
shapes = (
{
closed = 1;
nodes = (
(1002,669,l),
(936,737,l),
(128,39,l),
(188,-34,l)
);
},
{
pos = (14,0);
ref = O;
}
);
width = 1130;
},
{
anchors = (
{
name = bottom;
pos = (396,0);
},
{
name = top;
pos = (396,700);
}
);
layerId = "E41BA830-E06B-4916-8D61-039D08A6FFE2";
shapes = (
{
closed = 1;
nodes = (
(706,702,l),
(676,724,l),
(87,2,l),
(116,-21,l)
);
},
{
alignment = -1;
pos = (-1,0);
ref = O;
}
);
width = 791.48837;
},
{
anchors = (
{
name = bottom;
pos = (561,0);
},
{
name = top;
pos = (561,700);
}
);
layerId = "60FFA52A-095B-47EE-98E9-9B5B7A5F3F54";
shapes = (
{
closed = 1;
nodes = (
(979,692,l),
(949,719,l),
(143,5,l),
(170,-22,l)
);
},
{
alignment = -1;
pos = (4,0);
ref = O;
}
);
width = 1121.55814;
},
{
anchors = (
{
name = bottom;
pos = (403,0);
},
{
name = top;
pos = (403,700);
}
);
layerId = "C30A2D91-B9D3-4A88-AAF0-AD27EF9042EE";
shapes = (
{
closed = 1;
nodes = (
(733,694,l),
(664,742,l),
(75,21,l),
(139,-33,l)
);
},
{
alignment = -1;
pos = (-1,0);
ref = O;
}
);
width = 804.69663;
},
{
anchors = (
{
name = bottom;
pos = (583,0);
},
{
name = top;
pos = (583,700);
}
);
layerId = "F0741901-C5E8-42E7-A5F2-E893972BE6B8";
shapes = (
{
closed = 1;
nodes = (
(1019,668,l),
(951,738,l),
(143,41,l),
(205,-35,l)
);
},
{
alignment = -1;
pos = (14,0);
ref = O;
}
);
width = 1165.72041;
}
);
unicode = 216;
},
{
color = 6;
glyphname = OE;
kernLeft = C;
kernRight = E;
layers = (
{
anchors = (
{
name = bottom;
pos = (514,0);
},
{
name = top;
pos = (514,700);
}
);
layerId = "5A878C7E-547A-4951-B48F-676DBBC9B762";
shapes = (
{
closed = 1;
nodes = (
(952,0,l),
(952,104,l),
(619,104,l),
(619,307,l),
(897,307,l),
(897,411,l),
(619,411,l),
(619,596,l),
(952,596,l),
(952,700,l),
(395,700,ls),
(184.333,700,o),
(48,558,o),
(48,350,cs),
(48,140.667,o),
(175,0,o),
(375,0,cs)
);
},
{
closed = 1;
nodes = (
(158,502,o),
(246,596,o),
(398,596,cs),
(511,596,l),
(511,104,l),
(378,104,ls),
(238,104,o),
(158,196.667,o),
(158,350,cs)
);
}
);
width = 1027;
},
{
anchors = (
{
name = bottom;
pos = (734,0);
},
{
name = top;
pos = (734,700);
}
);
layerId = "649E0662-786D-44F6-8E8D-A6782F19FFAA";
shapes = (
{
closed = 1;
nodes = (
(1312,0,l),
(1312,104,l),
(839,104,l),
(839,307,l),
(1257,307,l),
(1257,411,l),
(839,411,l),
(839,596,l),
(1312,596,l),
(1312,700,l),
(545,700,ls),
(273,700,o),
(128,539,o),
(128,350,cs),
(128,158,o),
(265,0,o),
(525,0,cs)
);
},
{
closed = 1;
nodes = (
(238,478,o),
(345,596,o),
(548,596,cs),
(731,596,l),
(731,104,l),
(528,104,ls),
(339,104,o),
(238,221,o),
(238,350,cs)
);
}
);
width = 1472;
},
{
anchors = (
{
name = bottom;
pos = (504,0);
},
{
name = top;
pos = (504,700);
}
);
layerId = "E41BA830-E06B-4916-8D61-039D08A6FFE2";
shapes = (
{
closed = 1;
nodes = (
(936,0,l),
(936,41,l),
(580,41,l),
(580,341,l),
(883,341,l),
(883,382,l),
(580,382,l),
(580,659,l),
(940,659,l),
(940,700,l),
(377,700,ls),
(201,700,o),
(54,554,o),
(54,350,cs),
(54,147,o),
(202,0,o),
(379,0,cs)
);
},
{
closed = 1;
nodes = (
(97,528,o),
(229,659,o),
(382,659,cs),
(538,659,l),
(538,41,l),
(384,41,ls),
(230,41,o),
(97,172,o),
(97,350,cs)
);
}
);
userData = {
com.schriftgestaltung.Glyphs.glyph.leftMetricsKey = O;
com.schriftgestaltung.Glyphs.glyph.rightMetricsKey = E;
};
width = 1007;
},
{
anchors = (
{
name = bottom;
pos = (724,0);
},
{
name = top;
pos = (724,700);
}
);
layerId = "60FFA52A-095B-47EE-98E9-9B5B7A5F3F54";
shapes = (
{
closed = 1;
nodes = (
(1296,0,l),
(1296,41,l),
(800,41,l),
(800,341,l),
(1243,341,l),
(1243,382,l),
(800,382,l),
(800,659,l),
(1300,659,l),
(1300,700,l),
(527,700,ls),
(291,700,o),
(133,551,o),
(133,350,cs),
(133,149,o),
(293,0,o),
(529,0,cs)
);
},
{
closed = 1;
nodes = (
(177,526,o),
(318,659,o),
(527,659,cs),
(758,659,l),
(758,41,l),
(530,41,ls),
(320,41,o),
(177,173,o),
(177,350,cs)
);
}
);
userData = {
com.schriftgestaltung.Glyphs.glyph.leftMetricsKey = O;
com.schriftgestaltung.Glyphs.glyph.rightMetricsKey = E;
};
width = 1452;
},
{
anchors = (
{
name = bottom;
pos = (539,0);
},
{
name = top;
pos = (539,700);
}
);
layerId = "C30A2D91-B9D3-4A88-AAF0-AD27EF9042EE";
shapes = (
{
closed = 1;
nodes = (
(1018,0,l),
(1018,146,l),
(686,146,l),
(686,289,l),
(963,289,l),
(963,429,l),
(686,429,l),
(686,554,l),
(1018,554,l),
(1018,700,l),
(396,700,ls),
(181,700,o),
(43,558,o),
(43,350,cs),
(43,141,o),
(171,0,o),
(375,0,cs)
);
},
{
closed = 1;
nodes = (
(216,474,o),
(284,549,o),
(403,549,cs),
(520,549,l),
(520,151,l),
(394,151,ls),
(279,151,o),
(216,225,o),
(216,350,cs)
);
}
);
userData = {
com.schriftgestaltung.Glyphs.glyph.leftMetricsKey = O;
com.schriftgestaltung.Glyphs.glyph.rightMetricsKey = E;
};
width = 1077;
},
{
anchors = (
{
name = bottom;
pos = (759,0);
},
{
name = top;
pos = (759,700);
}
);
layerId = "F0741901-C5E8-42E7-A5F2-E893972BE6B8";
shapes = (
{
closed = 1;
nodes = (
(1378,0,l),
(1378,146,l),
(906,146,l),
(906,289,l),
(1323,289,l),
(1323,429,l),
(906,429,l),
(906,554,l),
(1378,554,l),
(1378,700,l),
(546,700,ls),
(270,700,o),
(123,538,o),
(123,350,cs),
(123,158,o),
(261,0,o),
(525,0,cs)
);
},
{
closed = 1;
nodes = (
(296,449,o),
(383,549,o),
(553,549,cs),
(740,549,l),
(740,151,l),
(544,151,ls),
(380,151,o),
(296,250,o),
(295.99,350,cs)
);
}
);
userData = {
com.schriftgestaltung.Glyphs.glyph.leftMetricsKey = O;
com.schriftgestaltung.Glyphs.glyph.rightMetricsKey = E;
};
width = 1522;
}
);
metricLeft = O;
metricRight = E;
unicode = 338;
},
{
color = 6;
glyphname = P;
kernLeft = H;
kernRight = P;
layers = (
{
anchors = (
{
name = bottom;
pos = (317,0);
},
{
name = top;
pos = (317,700);
}
);
layerId = "5A878C7E-547A-4951-B48F-676DBBC9B762";
shapes = (
{
closed = 1;
nodes = (
(206,0,l),
(206,268,l),
(383,268,ls),
(496.333,268,o),
(589,365,o),
(589,485,cs),
(589,605,o),
(496.333,700,o),
(383,700,cs),
(98,700,l),
(98,0,l)
);
},
{
closed = 1;
nodes = (
(206,596,l),
(381,596,ls),
(434.333,596,o),
(479,546.333,o),
(479,485,cs),
(479,423.667,o),
(434.333,372,o),
(381,372,cs),
(206,372,l)
);
}
);
width = 634;
},
{
anchors = (
{
name = bottom;
pos = (474,0);
},
{
name = top;
pos = (474,700);
}
);
layerId = "649E0662-786D-44F6-8E8D-A6782F19FFAA";
shapes = (
{
closed = 1;
nodes = (
(290,0,l),
(290,258,l),
(571,258,ls),
(704,258,o),
(818,358,o),
(818,485,cs),
(818,605,o),
(714,700,o),
(591,700,cs),
(182,700,l),
(182,0,l)
);
},
{
closed = 1;
nodes = (
(290,596,l),
(561,596,ls),
(637,596,o),
(703,546,o),
(703,485,cs),
(703,418,o),
(637,362,o),
(561,362,cs),
(290,362,l)
);
}
);
width = 953;
},
{
anchors = (
{
name = bottom;
pos = (304,0);
},
{
name = top;
pos = (304,700);
}
);
layerId = "E41BA830-E06B-4916-8D61-039D08A6FFE2";
shapes = (
{
closed = 1;
nodes = (
(149,0,l),
(149,285,l),
(367,285,ls),
(478,285,o),
(555,376,o),
(555,502,cs),
(555,618,o),
(478,700,o),
(367,700,cs),
(107,700,l),
(107,0,l)
);
},
{
closed = 1;
nodes = (
(149,659,l),
(370,659,ls),
(454,659,o),
(512,593,o),
(512,502,cs),
(512,400,o),
(454,326,o),
(370,326,cs),
(149,326,l)
);
}
);
userData = {
com.schriftgestaltung.Glyphs.glyph.leftMetricsKey = H;
};
width = 607.90698;
},
{
anchors = (
{
name = bottom;
pos = (461,0);
},
{
name = top;
pos = (461,700);
}
);
layerId = "60FFA52A-095B-47EE-98E9-9B5B7A5F3F54";
shapes = (
{
closed = 1;
nodes = (
(233,0,l),
(233,276,l),
(557,276,ls),
(696,276,o),
(784,369,o),
(784,502,cs),
(784,618,o),
(699,700,o),
(563,700,cs),
(191,700,l),
(191,0,l)
);
},
{
closed = 1;
nodes = (
(233,659,l),
(550,659,ls),
(673,659,o),
(740,599,o),
(740,502,cs),
(740,390,o),
(672,317,o),
(550,317,cs),
(233,317,l)
);
}
);
userData = {
com.schriftgestaltung.Glyphs.glyph.leftMetricsKey = H;
};
width = 926.90698;
},
{
anchors = (
{
name = bottom;
pos = (331,0);
},
{
name = top;
pos = (331,700);
}
);
layerId = "C30A2D91-B9D3-4A88-AAF0-AD27EF9042EE";
shapes = (
{
closed = 1;
nodes = (
(258,0,l),
(258,234,l),
(390,234,ls),
(521,234,o),
(620,336,o),
(620,471,cs),
(620,602,o),
(521,700,o),
(390,700,cs),
(87,700,l),
(87,0,l)
);
},
{
closed = 1;
nodes = (
(256,549,l),
(367,549,ls),
(410,549,o),
(446,517,o),
(446,468,cs),
(446,419,o),
(410,385,o),
(367,385,cs),
(256,385,l)
);
}
);
userData = {
com.schriftgestaltung.Glyphs.glyph.leftMetricsKey = H;
};
width = 662.27401;
},
{
anchors = (
{
name = bottom;
pos = (488,0);
},
{
name = top;
pos = (488,700);
}
);
layerId = "F0741901-C5E8-42E7-A5F2-E893972BE6B8";
shapes = (
{
closed = 1;
nodes = (
(342,0,l),
(342,225,l),
(578,225,ls),
(728,225,o),
(849,329,o),
(849,471,cs),
(849,602,o),
(738,700,o),
(599,700,cs),
(171,700,l),
(171,0,l)
);
},
{
closed = 1;
nodes = (
(340,549,l),
(547,549,ls),
(613,549,o),
(670,517,o),
(670,468,cs),
(670,415,o),
(613,375,o),
(547,375,cs),
(340,375,l)
);
}
);
userData = {
com.schriftgestaltung.Glyphs.glyph.leftMetricsKey = H;
};
width = 981.24229;
}
);
metricLeft = H;
unicode = 80;
},
{
color = 6;
glyphname = Thorn;
kernLeft = H;
kernRight = P;
layers = (
{
anchors = (
{
name = bottom;
pos = (317,0);
},
{
name = top;
pos = (317,700);
}
);
layerId = "5A878C7E-547A-4951-B48F-676DBBC9B762";
shapes = (
{
closed = 1;
nodes = (
(206,0,l),
(206,141,l),
(383,141,ls),
(496.333,141,o),
(589,238,o),
(589,358,cs),
(589,478,o),
(496.333,573,o),
(383,573,cs),
(206,573,l),
(206,700,l),
(98,700,l),
(98,0,l)
);
},
{
closed = 1;
nodes = (
(206,469,l),
(381,469,ls),
(434.333,469,o),
(479,419.333,o),
(479,358,cs),
(479,296.667,o),
(434.333,245,o),
(381,245,cs),
(206,245,l)
);
}
);
width = 634;
},
{
anchors = (
{
name = bottom;
pos = (481,0);
},
{
name = top;
pos = (481,700);
}
);
layerId = "649E0662-786D-44F6-8E8D-A6782F19FFAA";
shapes = (
{
closed = 1;
nodes = (
(290,0,l),
(290,141,l),
(588,141,ls),
(739,141,o),
(833,238,o),
(833,358,cs),
(833,498,o),
(739,573,o),
(588,573,cs),
(290,573,l),
(290,700,l),
(182,700,l),
(182,0,l)
);
},
{
closed = 1;
nodes = (
(290,469,l),
(601,469,ls),
(664,469,o),
(718,419,o),
(718,358,cs),
(718,295,o),
(664,245,o),
(601,245,cs),
(290,245,l)
);
}
);
width = 968;
},
{
anchors = (
{
name = bottom;
pos = (291,0);
},
{
name = top;
pos = (291,700);
}
);
layerId = "E41BA830-E06B-4916-8D61-039D08A6FFE2";
shapes = (
{
closed = 1;
nodes = (
(149,0,l),
(149,164,l),
(341,164,ls),
(449,164,o),
(529,251,o),
(529,358,cs),
(529,472,o),
(449,550,o),
(341,550,cs),
(149,550,l),
(149,700,l),
(107,700,l),
(107,0,l)
);
},
{
closed = 1;
nodes = (
(149,509,l),
(339,509,ls),
(434,509,o),
(487,446,o),
(487,358,cs),
(487,279,o),
(431,205,o),
(339,205,cs),
(149,205,l)
);
}
);
userData = {
com.schriftgestaltung.Glyphs.glyph.leftMetricsKey = H;
com.schriftgestaltung.Glyphs.glyph.rightMetricsKey = P;
};
width = 581.81396;
},
{
anchors = (
{
name = bottom;
pos = (455,0);
},
{
name = top;
pos = (455,700);
}
);
layerId = "60FFA52A-095B-47EE-98E9-9B5B7A5F3F54";
shapes = (
{
closed = 1;
nodes = (
(233,0,l),
(233,164,l),
(546,164,ls),
(691,164,o),
(773,238,o),
(773,358,cs),
(773,482,o),
(690,550,o),
(547,550,cs),
(233,550,l),
(233,700,l),
(191,700,l),
(191,0,l)
);
},
{
closed = 1;
nodes = (
(233,509,l),
(560,509,ls),
(666,509,o),
(729,453,o),
(729,358,cs),
(729,261,o),
(666,205,o),
(560,205,cs),
(233,205,l)
);
}
);
userData = {
com.schriftgestaltung.Glyphs.glyph.leftMetricsKey = H;
com.schriftgestaltung.Glyphs.glyph.rightMetricsKey = P;
};
width = 915.81395;
},
{
anchors = (
{
name = bottom;
pos = (332,0);
},
{
name = top;
pos = (332,700);
}
);
layerId = "C30A2D91-B9D3-4A88-AAF0-AD27EF9042EE";
shapes = (
{
closed = 1;
nodes = (
(258,0,l),
(258,122,l),
(391,122,ls),
(522,122,o),
(621,224,o),
(621,359,cs),
(621,491,o),
(522,589,o),
(391,589,cs),
(258,589,l),
(258,700,l),
(87,700,l),
(87,0,l)
);
},
{
closed = 1;
nodes = (
(258,438,l),
(368,438,ls),
(411,438,o),
(447,407,o),
(447,357,cs),
(447,307,o),
(411,273,o),
(368,273,cs),
(258,273,l)
);
}
);
userData = {
com.schriftgestaltung.Glyphs.glyph.leftMetricsKey = H;
com.schriftgestaltung.Glyphs.glyph.rightMetricsKey = P;
};
width = 663.32239;
},
{
anchors = (
{
name = bottom;
pos = (496,0);
},
{
name = top;
pos = (496,700);
}
);
layerId = "F0741901-C5E8-42E7-A5F2-E893972BE6B8";
shapes = (
{
closed = 1;
nodes = (
(342,0,l),
(342,122,l),
(597,122,ls),
(765,122,o),
(865,224,o),
(865,359,cs),
(865,511,o),
(765,589,o),
(597,589,cs),
(342,589,l),
(342,700,l),
(171,700,l),
(171,0,l)
);
},
{
closed = 1;
nodes = (
(342,438,l),
(588,438,ls),
(641,438,o),
(686,405,o),
(686,357,cs),
(686,307,o),
(641,273,o),
(588,273,cs),
(342,273,l)
);
}
);
userData = {
com.schriftgestaltung.Glyphs.glyph.leftMetricsKey = H;
com.schriftgestaltung.Glyphs.glyph.rightMetricsKey = P;
};
width = 997.43045;
}
);
metricLeft = H;
metricRight = P;
unicode = 222;
},
{
color = 3;
glyphname = Q;
kernLeft = C;
kernRight = D;
layers = (
{
anchors = (
{
name = bottom;
pos = (391,0);
},
{
name = top;
pos = (391,700);
}
);
layerId = "5A878C7E-547A-4951-B48F-676DBBC9B762";
shapes = (
{
closed = 1;
nodes = (
(699,-48,l),
(437,296,l),
(348,237,l),
(613,-110,l)
);
},
{
ref = O;
}
);
width = 782;
},
{
anchors = (
{
name = bottom;
pos = (551,0);
},
{
name = top;
pos = (551,700);
}
);
layerId = "649E0662-786D-44F6-8E8D-A6782F19FFAA";
shapes = (
{
closed = 1;
nodes = (
(882,-58,l),
(620,286,l),
(531,237,l),
(796,-110,l)
);
},
{
ref = O;
}
);
width = 1102;
},
{
anchors = (
{
name = bottom;
pos = (397,0);
},
{
name = top;
pos = (397,700);
}
);
layerId = "E41BA830-E06B-4916-8D61-039D08A6FFE2";
shapes = (
{
closed = 1;
nodes = (
(676,-61,l),
(421,278,l),
(387,254,l),
(643,-86,l)
);
},
{
alignment = -1;
ref = O;
}
);
userData = {
com.schriftgestaltung.Glyphs.glyph.leftMetricsKey = O;
com.schriftgestaltung.Glyphs.glyph.rightMetricsKey = O;
};
width = 794.27907;
},
{
anchors = (
{
name = bottom;
pos = (557,0);
},
{
name = top;
pos = (557,700);
}
);
layerId = "60FFA52A-095B-47EE-98E9-9B5B7A5F3F54";
shapes = (
{
closed = 1;
nodes = (
(865,-70,l),
(610,270,l),
(569,255,l),
(826,-85,l)
);
},
{
alignment = -1;
ref = O;
}
);
userData = {
com.schriftgestaltung.Glyphs.glyph.leftMetricsKey = O;
com.schriftgestaltung.Glyphs.glyph.rightMetricsKey = O;
};
width = 1114.27907;
},
{
anchors = (
{
name = bottom;
pos = (406,0);
},
{
name = top;
pos = (406,700);
}
);
layerId = "C30A2D91-B9D3-4A88-AAF0-AD27EF9042EE";
shapes = (
{
closed = 1;
nodes = (
(736,-20,l),
(472,339,l),
(346,251,l),
(614,-111,l)
);
},
{
alignment = -1;
ref = O;
}
);
userData = {
com.schriftgestaltung.Glyphs.glyph.leftMetricsKey = O;
com.schriftgestaltung.Glyphs.glyph.rightMetricsKey = O;
};
width = 810.39914;
},
{
anchors = (
{
name = bottom;
pos = (565,0);
},
{
name = top;
pos = (565,700);
}
);
layerId = "F0741901-C5E8-42E7-A5F2-E893972BE6B8";
shapes = (
{
closed = 1;
nodes = (
(919,-30,l),
(654,328,l),
(529,251,l),
(797,-111,l)
);
},
{
alignment = -1;
ref = O;
}
);
userData = {
com.schriftgestaltung.Glyphs.glyph.leftMetricsKey = O;
com.schriftgestaltung.Glyphs.glyph.rightMetricsKey = O;
};
width = 1130.15136;
}
);
unicode = 81;
},
{
color = 6;
glyphname = R;
kernLeft = H;
kernRight = R;
layers = (
{
anchors = (
{
name = bottom;
pos = (348,0);
},
{
name = top;
pos = (318,700);
}
);
layerId = "5A878C7E-547A-4951-B48F-676DBBC9B762";
shapes = (
{
closed = 1;
nodes = (
(206,0,l),
(206,263,l),
(396,263,ls),
(517.333,263,o),
(617,362.333,o),
(617,477,cs),
(617,603.667,o),
(516,700,o),
(396,700,cs),
(98,700,l),
(98,0,l)
);
},
{
closed = 1;
nodes = (
(645,-1,l),
(447,341,l),
(336,316,l),
(514,0,l)
);
},
{
closed = 1;
nodes = (
(206,596,l),
(378,596,ls),
(452.667,596,o),
(507,547.333,o),
(507,478,cs),
(507,415.333,o),
(464.667,367,o),
(406,367,cs),
(206,367,l)
);
}
);
width = 695;
},
{
anchors = (
{
name = bottom;
pos = (497,0);
},
{
name = top;
pos = (467,690);
}
);
layerId = "649E0662-786D-44F6-8E8D-A6782F19FFAA";
shapes = (
{
closed = 1;
nodes = (
(290,0,l),
(290,258,l),
(571,258,ls),
(704,258,o),
(818,358,o),
(818,485,cs),
(818,605,o),
(714,700,o),
(591,700,cs),
(182,700,l),
(182,0,l)
);
},
{
closed = 1;
nodes = (
(859,-1,l),
(601,341,l),
(486,316,l),
(724,0,l)
);
},
{
closed = 1;
nodes = (
(290,596,l),
(561,596,ls),
(637,596,o),
(703,546,o),
(703,485,cs),
(703,418,o),
(637,362,o),
(561,362,cs),
(290,362,l)
);
}
);
width = 1011;
},
{
anchors = (
{
name = bottom;
pos = (315,0);
},
{
name = top;
pos = (301,700);
}
);
layerId = "E41BA830-E06B-4916-8D61-039D08A6FFE2";
shapes = (
{
closed = 1;
nodes = (
(149,0,l),
(149,284,l),
(369,284,ls),
(482,284,o),
(562,376,o),
(562,500,cs),
(562,618,o),
(482,700,o),
(369,700,cs),
(107,700,l),
(107,0,l)
);
},
{
closed = 1;
nodes = (
(587,0,l),
(404,314,l),
(360,302,l),
(536,0,l)
);
},
{
closed = 1;
nodes = (
(149,659,l),
(369,659,ls),
(459,659,o),
(519,594,o),
(519,500,cs),
(519,398,o),
(461,325,o),
(376,325,cs),
(149,325,l)
);
}
);
userData = {
com.schriftgestaltung.Glyphs.glyph.leftMetricsKey = H;
};
width = 629;
},
{
anchors = (
{
name = bottom;
pos = (464,0);
},
{
name = top;
pos = (449,698);
}
);
layerId = "60FFA52A-095B-47EE-98E9-9B5B7A5F3F54";
shapes = (
{
closed = 1;
nodes = (
(233,0,l),
(233,279,l),
(538,279,ls),
(671,279,o),
(763,370,o),
(763,507,cs),
(763,618,o),
(678,700,o),
(564,700,cs),
(191,700,l),
(191,0,l)
);
},
{
closed = 1;
nodes = (
(801,0,l),
(558,310,l),
(511,302,l),
(747,0,l)
);
},
{
closed = 1;
nodes = (
(233,659,l),
(553,659,ls),
(649,659,o),
(718,592,o),
(718,506,cs),
(718,396,o),
(645,321,o),
(531,321,cs),
(233,321,l)
);
}
);
userData = {
com.schriftgestaltung.Glyphs.glyph.leftMetricsKey = H;
};
width = 945;
},
{
anchors = (
{
name = bottom;
pos = (353,0);
},
{
name = top;
pos = (333,700);
}
);
layerId = "C30A2D91-B9D3-4A88-AAF0-AD27EF9042EE";
shapes = (
{
closed = 1;
nodes = (
(250,0,l),
(250,245,l),
(404,245,ls),
(540,245,o),
(643,344,o),
(643,476,cs),
(643,605,o),
(539,700,o),
(404,700,cs),
(87,700,l),
(87,0,l)
);
},
{
closed = 1;
nodes = (
(671,-1,l),
(473,342,l),
(298,317,l),
(476,0,l)
);
},
{
closed = 1;
nodes = (
(250,557,l),
(374,557,ls),
(436,557,o),
(475,521,o),
(475,467,cs),
(475,415,o),
(441,378,o),
(389,378,cs),
(250,378,l)
);
}
);
userData = {
com.schriftgestaltung.Glyphs.glyph.leftMetricsKey = H;
};
width = 704.31929;
},
{
anchors = (
{
name = bottom;
pos = (502,0);
},
{
name = top;
pos = (482,695);
}
);
layerId = "F0741901-C5E8-42E7-A5F2-E893972BE6B8";
shapes = (
{
closed = 1;
nodes = (
(334,0,l),
(334,240,l),
(579,240,ls),
(727,240,o),
(844,341,o),
(844,476,cs),
(844,611,o),
(745,700,o),
(580,700,cs),
(171,700,l),
(171,0,l)
);
},
{
closed = 1;
nodes = (
(885,-1,l),
(627,342,l),
(448,317,l),
(686,0,l)
);
},
{
closed = 1;
nodes = (
(334,557,l),
(557,557,ls),
(617,557,o),
(671,522,o),
(671,467,cs),
(671,410,o),
(617,373,o),
(560,373,cs),
(334,373,l)
);
}
);
userData = {
com.schriftgestaltung.Glyphs.glyph.leftMetricsKey = H;
};
width = 1020.63086;
}
);
metricLeft = H;
unicode = 82;
},
{
color = 6;
glyphname = S;
kernLeft = S;
kernRight = S;
layers = (
{
anchors = (
{
name = bottom;
pos = (332,0);
},
{
name = top;
pos = (332,700);
}
);
layerId = "5A878C7E-547A-4951-B48F-676DBBC9B762";
shapes = (
{
closed = 1;
nodes = (
(471.333,-10,o),
(569,74.667,o),
(569,208,cs),
(569,304,o),
(483.667,374.333,o),
(337,405,cs),
(231.667,426.333,o),
(193,459.667,o),
(193,517,cs),
(193,574.333,o),
(245.667,613,o),
(323,613,cs),
(391,613,o),
(447,577.333,o),
(487,512,c),
(563,587,l),
(516.333,667,o),
(434,710,o),
(326,710,cs),
(190,710,o),
(85,627.333,o),
(85,514,cs),
(85,399.333,o),
(155,329,o),
(299,301,cs),
(411,279.667,o),
(461,241.333,o),
(461,180,cs),
(461,125.333,o),
(401,87,o),
(325,87,cs),
(242.333,87,o),
(189.333,117.667,o),
(124,211,c),
(50,126,l),
(112.667,35.333,o),
(199.333,-10,o),
(314,-10,cs)
);
}
);
width = 624;
},
{
anchors = (
{
name = bottom;
pos = (510,0);
},
{
name = top;
pos = (480,700);
}
);
layerId = "649E0662-786D-44F6-8E8D-A6782F19FFAA";
shapes = (
{
closed = 1;
nodes = (
(677,-10,o),
(807,80,o),
(807,216,cs),
(807,356,o),
(655,384,o),
(495,403,cs),
(367,419,o),
(281,442,o),
(281,515,cs),
(281,576,o),
(363,613,o),
(471,613,cs),
(568,613,o),
(652,576,o),
(709,508,c),
(781,587,l),
(720,667,o),
(613,710,o),
(474,710,cs),
(299,710,o),
(163,634,o),
(163,503,cs),
(163,379,o),
(278,322,o),
(457,299,cs),
(525,291,o),
(689,284,o),
(689,202,cs),
(689,123,o),
(582,87,o),
(479,87,cs),
(368,87,o),
(283,126,o),
(196,216,c),
(128,126,l),
(213,34,o),
(327,-10,o),
(478,-10,cs)
);
}
);
width = 935;
},
{
anchors = (
{
name = bottom;
pos = (312,0);
},
{
name = top;
pos = (303,700);
}
);
layerId = "E41BA830-E06B-4916-8D61-039D08A6FFE2";
shapes = (
{
closed = 1;
nodes = (
(439,-10,o),
(537,69,o),
(537,181,cs),
(537,284,o),
(443,335,o),
(288,373,cs),
(177,400,o),
(112,441,o),
(112,524,cs),
(112,610,o),
(194,670,o),
(299,670,cs),
(391,670,o),
(449,636,o),
(493,576,c),
(523,605,l),
(477,672,o),
(408,710,o),
(300,710,cs),
(170,710,o),
(69,630,o),
(69,523,cs),
(69,419,o),
(142,366,o),
(272,332,cs),
(407,296,o),
(494,261,o),
(494,174,cs),
(494,89,o),
(412,30,o),
(309,30,cs),
(205,30,o),
(130,68,o),
(75,150,c),
(44,117,l),
(100,35,o),
(187,-10,o),
(305,-10,cs)
);
}
);
width = 580.25581;
},
{
anchors = (
{
name = bottom;
pos = (489,0);
},
{
name = top;
pos = (466,700);
}
);
layerId = "60FFA52A-095B-47EE-98E9-9B5B7A5F3F54";
shapes = (
{
closed = 1;
nodes = (
(659,-10,o),
(775,70,o),
(775,188,cs),
(775,329,o),
(604,352,o),
(460,370,cs),
(336,386,o),
(193,404,o),
(193,522,cs),
(193,612,o),
(306,671,o),
(447,671,cs),
(561,671,o),
(651,637,o),
(714,573,c),
(741,605,l),
(679,674,o),
(578,710,o),
(448,710,cs),
(279,710,o),
(148,638,o),
(148,515,cs),
(148,377,o),
(301,347,o),
(450,328,cs),
(550,315,o),
(730,299,o),
(730,188,cs),
(732,89,o),
(621,29,o),
(462,29,cs),
(330,29,o),
(223,72,o),
(148,155,c),
(123,118,l),
(202,32,o),
(315,-10,o),
(462,-10,cs)
);
}
);
width = 891.25581;
},
{
anchors = (
{
name = bottom;
pos = (337,0);
},
{
name = top;
pos = (333,700);
}
);
layerId = "C30A2D91-B9D3-4A88-AAF0-AD27EF9042EE";
shapes = (
{
closed = 1;
nodes = (
(480,-10,o),
(594,73,o),
(594,218,cs),
(594,341,o),
(497,405,o),
(351,435,cs),
(286,446,o),
(230,468,o),
(230,511,cs),
(230,549,o),
(267,571,o),
(326,571,cs),
(383,571,o),
(437,544,o),
(479,491,c),
(585,594,l),
(535,670,o),
(457,716,o),
(321,716,cs),
(181,716,o),
(58,629,o),
(58,502,cs),
(58,383,o),
(132,313,o),
(286,280,cs),
(357,267,o),
(423,244,o),
(423,194,cs),
(423,155,o),
(382,134,o),
(328,134,cs),
(257,134,o),
(191,157,o),
(126,247,c),
(22,130,l),
(90,41,o),
(181,-10,o),
(320,-10,cs)
);
}
);
width = 635.2032;
},
{
anchors = (
{
name = bottom;
pos = (519,0);
},
{
name = top;
pos = (489,700);
}
);
layerId = "F0741901-C5E8-42E7-A5F2-E893972BE6B8";
shapes = (
{
closed = 1;
nodes = (
(688,-10,o),
(836,78,o),
(836,226,cs),
(836,393,o),
(672,415,o),
(511,430,cs),
(424,440,o),
(321,450,o),
(321,505,cs),
(321,551,o),
(388,571,o),
(477,571,cs),
(564,571,o),
(658,543,o),
(720,495,c),
(804,614,l),
(742,670,o),
(633,716,o),
(483,716,cs),
(293,716,o),
(139,635,o),
(139,491,cs),
(139,363,o),
(259,296,o),
(446,279,cs),
(549,270,o),
(653,264,o),
(653,208,cs),
(653,149,o),
(566,134,o),
(500,134,cs),
(398,134,o),
(288,167,o),
(179,246,c),
(100,108,l),
(192,40,o),
(317,-10,o),
(488,-10,cs)
);
}
);
width = 949.13867;
}
);
unicode = 83;
},
{
color = 6;
glyphname = Germandbls;
kernLeft = f;
kernRight = S;
layers = (
{
anchors = (
{
name = bottom;
pos = (381,0);
},
{
name = top;
pos = (381,700);
}
);
layerId = "5A878C7E-547A-4951-B48F-676DBBC9B762";
shapes = (
{
closed = 1;
nodes = (
(607.333,-10,o),
(707,78.667,o),
(707,184,cs),
(707,297,o),
(651,335,o),
(545,384,cs),
(478,415,o),
(445,446,o),
(445,486,cs),
(445,543.333,o),
(515.667,589,o),
(641,609,c),
(636,682,l),
(568,711.333,o),
(489.667,726,o),
(407,726,cs),
(221.667,726,o),
(100,575,o),
(99,350,cs),
(98,1,l),
(206,1,l),
(208,343,ls),
(209,523,o),
(290.333,634.667,o),
(417,632,cs),
(474.333,632,o),
(548.333,621,o),
(591,605,c),
(541,643,l),
(419.667,632.333,o),
(338,564,o),
(338,460,cs),
(338,385.333,o),
(373,343,o),
(469,291,cs),
(569,237,o),
(602,219,o),
(602,171,cs),
(602,119,o),
(558,87,o),
(489,87,cs),
(446.333,87,o),
(395.333,115,o),
(362,155,c),
(295,75,l),
(335,23,o),
(412.667,-10,o),
(490,-10,cs)
);
}
);
width = 762;
},
{
anchors = (
{
name = bottom;
pos = (550,0);
},
{
name = top;
pos = (550,700);
}
);
layerId = "649E0662-786D-44F6-8E8D-A6782F19FFAA";
shapes = (
{
closed = 1;
nodes = (
(866,-10,o),
(961,77,o),
(961,184,cs),
(961,300,o),
(882,334,o),
(769,373,cs),
(678,404,o),
(618,433,o),
(618,486,cs),
(618,567,o),
(735,593,o),
(885,609,c),
(875,686,l),
(779,714,o),
(702,726,o),
(605,726,cs),
(345,726,o),
(184,572,o),
(183,257,cs),
(182,0,l),
(290,0,l),
(292,263,ls),
(294,531,o),
(444,637,o),
(605,637,cs),
(685,637,o),
(753,622,o),
(785,613,c),
(785,653,l),
(648,662,o),
(512,597,o),
(512,469,cs),
(512,372,o),
(595,314,o),
(693,283,cs),
(795,251,o),
(857,227,o),
(857,173,cs),
(857,116,o),
(797,87,o),
(721,87,cs),
(638,87,o),
(578,127,o),
(526,163,c),
(459,83,l),
(535,24,o),
(614,-10,o),
(721,-10,cs)
);
}
);
width = 1089;
},
{
anchors = (
{
name = bottom;
pos = (361,0);
},
{
name = top;
pos = (361,700);
}
);
layerId = "E41BA830-E06B-4916-8D61-039D08A6FFE2";
shapes = (
{
closed = 1;
nodes = (
(585,-10,o),
(676,62,o),
(676,187,cs),
(676,294,o),
(608,326,o),
(529,372,cs),
(453,418,o),
(406,443,o),
(406,491,cs),
(406,549,o),
(491,589,o),
(614,609,c),
(612,645,l),
(556,686,o),
(485,713,o),
(391,713,cs),
(194,713,o),
(108,601,o),
(108,390,cs),
(107,0,l),
(150,0,l),
(151,380,ls),
(151,587,o),
(225,676,o),
(393,675,cs),
(477,675,o),
(546,647,o),
(590,617,c),
(579,629,l),
(451,609,o),
(364,560,o),
(364,484,cs),
(364,430,o),
(395,400,o),
(499,340,cs),
(577,294,o),
(634,269,o),
(634,180,cs),
(634,86,o),
(564,30,o),
(452,30,cs),
(392,30,o),
(330,56,o),
(285,107,c),
(256,77,l),
(298,24,o),
(374,-10,o),
(451,-10,cs)
);
}
);
userData = {
com.schriftgestaltung.Glyphs.glyph.leftMetricsKey = H;
com.schriftgestaltung.Glyphs.glyph.rightMetricsKey = S;
};
width = 719;
},
{
anchors = (
{
name = bottom;
pos = (529,0);
},
{
name = top;
pos = (529,700);
}
);
layerId = "60FFA52A-095B-47EE-98E9-9B5B7A5F3F54";
shapes = (
{
closed = 1;
nodes = (
(839,-10,o),
(930,65,o),
(930,187,cs),
(930,294,o),
(847,333,o),
(723,375,cs),
(611,414,o),
(579,444,o),
(579,488,cs),
(579,556,o),
(668,598,o),
(856,609,c),
(850,649,l),
(757,695,o),
(680,714,o),
(589,714,cs),
(317,714,o),
(192,586,o),
(191,297,cs),
(191,0,l),
(233,0,l),
(234,300,ls),
(234,564,o),
(350,674,o),
(580,676,cs),
(677,676,o),
(751,657,o),
(823,618,c),
(823,632,l),
(653,627,o),
(537,580,o),
(537,484,cs),
(537,415,o),
(587,377,o),
(705,337,cs),
(812,302,o),
(889,269,o),
(889,182,cs),
(889,84,o),
(813,29,o),
(684,29,cs),
(600,29,o),
(519,63,o),
(449,115,c),
(423,84,l),
(500,24,o),
(589,-10,o),
(683,-10,cs)
);
}
);
userData = {
com.schriftgestaltung.Glyphs.glyph.leftMetricsKey = H;
com.schriftgestaltung.Glyphs.glyph.rightMetricsKey = S;
};
width = 1046;
},
{
anchors = (
{
name = bottom;
pos = (406,0);
},
{
name = top;
pos = (406,700);
}
);
layerId = "C30A2D91-B9D3-4A88-AAF0-AD27EF9042EE";
shapes = (
{
closed = 1;
nodes = (
(659,-10,o),
(771,82,o),
(771,192,cs),
(771,301,o),
(715,336,o),
(620,382,cs),
(562,410,o),
(530,436,o),
(530,472,cs),
(530,516,o),
(582,552,o),
(691,565,c),
(688,683,l),
(615,714,o),
(531,727,o),
(443,727,cs),
(231,727,o),
(88,574,o),
(88,348,cs),
(87,1,l),
(258,1,l),
(259,342,ls),
(260,500,o),
(336,599,o),
(452,597,cs),
(507,597,o),
(579,586,o),
(619,572,c),
(564,611,l),
(458,607,o),
(361,537,o),
(361,442,cs),
(361,375,o),
(390,336,o),
(475,289,cs),
(561,242,o),
(591,222,o),
(591,187,cs),
(591,152,o),
(562,128,o),
(515,128,cs),
(480,128,o),
(441,149,o),
(406,185,c),
(315,75,l),
(355,27,o),
(441,-10,o),
(527,-10,cs)
);
}
);
userData = {
com.schriftgestaltung.Glyphs.glyph.leftMetricsKey = H;
com.schriftgestaltung.Glyphs.glyph.rightMetricsKey = S;
};
width = 811.51143;
},
{
anchors = (
{
name = bottom;
pos = (575,0);
},
{
name = top;
pos = (575,700);
}
);
layerId = "F0741901-C5E8-42E7-A5F2-E893972BE6B8";
shapes = (
{
closed = 1;
nodes = (
(918,-10,o),
(1024,80,o),
(1024,192,cs),
(1024,304,o),
(946,335,o),
(845,371,cs),
(763,399,o),
(703,422,o),
(703,472,cs),
(703,540,o),
(802,556,o),
(935,565,c),
(927,688,l),
(826,716,o),
(744,727,o),
(641,727,cs),
(354,727,o),
(172,571,o),
(172,255,cs),
(171,0,l),
(342,0,l),
(343,261,ls),
(345,509,o),
(490,602,o),
(640,603,cs),
(718,603,o),
(784,587,o),
(811,580,c),
(808,621,l),
(687,637,o),
(535,571,o),
(535,451,cs),
(535,361,o),
(613,307,o),
(699,281,cs),
(786,255,o),
(845,230,o),
(845,188,cs),
(845,149,o),
(801,128,o),
(747,128,cs),
(671,128,o),
(624,161,o),
(570,193,c),
(479,83,l),
(555,29,o),
(642,-10,o),
(758,-10,cs)
);
}
);
userData = {
com.schriftgestaltung.Glyphs.glyph.leftMetricsKey = H;
com.schriftgestaltung.Glyphs.glyph.rightMetricsKey = S;
};
width = 1137;
}
);
metricLeft = H;
metricRight = S;
unicode = 7838;
},
{
color = 6;
glyphname = Schwa;
kernLeft = C;
kernRight = D;
layers = (
{
anchors = (
{
name = bottom;
pos = (390,0);
},
{
name = top;
pos = (390,700);
}
);
layerId = "5A878C7E-547A-4951-B48F-676DBBC9B762";
shapes = (
{
closed = 1;
nodes = (
(578,-10,o),
(732,151.333,o),
(732,350,cs),
(732,548.667,o),
(576.333,710,o),
(387,710,cs),
(271,710,o),
(189.333,678,o),
(116,606,c),
(184,536,l),
(240,588,o),
(303,613,o),
(387,613,cs),
(532.333,613,o),
(629,512.333,o),
(629,351,cs),
(629,193.667,o),
(528.667,87,o),
(390,87,cs),
(274,87,o),
(172,176,o),
(152,296,c),
(695,296,l),
(686,393,l),
(48,393,l),
(48,313,l),
(57.333,127.667,o),
(208.667,-10,o),
(390,-10,cs)
);
}
);
width = 780;
},
{
anchors = (
{
name = bottom;
pos = (484,0);
},
{
name = top;
pos = (484,700);
}
);
layerId = "649E0662-786D-44F6-8E8D-A6782F19FFAA";
shapes = (
{
closed = 1;
nodes = (
(680,-10,o),
(839,151,o),
(839,350,cs),
(839,549,o),
(677,710,o),
(482,710,cs),
(365,710,o),
(276,676,o),
(196,588,c),
(264,528,l),
(327,591,o),
(398,613,o),
(482,613,cs),
(617,613,o),
(729,526,o),
(729,351,cs),
(729,190,o),
(618,87,o),
(485,87,cs),
(365,87,o),
(260,180,o),
(239,296,c),
(775,296,l),
(766,393,l),
(128,393,l),
(128,313,l),
(137,118,o),
(308,-10,o),
(485,-10,cs)
);
}
);
width = 967;
},
{
anchors = (
{
name = bottom;
pos = (396,0);
},
{
name = top;
pos = (396,700);
}
);
layerId = "E41BA830-E06B-4916-8D61-039D08A6FFE2";
shapes = (
{
closed = 1;
nodes = (
(588,-10,o),
(738,140,o),
(738,345,cs),
(738,552,o),
(580,710,o),
(375,710,cs),
(279,710,o),
(187,670,o),
(125,608,c),
(153,580,l),
(210,634,o),
(287,670,o),
(374,670,cs),
(559,670,o),
(697,535,o),
(697,349,cs),
(697,163,o),
(567,30,o),
(395,30,cs),
(220,30,o),
(99,164,o),
(95,332,c),
(720,332,l),
(718,372,l),
(54,372,l),
(54,344,ls),
(52,143,o),
(198,-10,o),
(394,-10,cs)
);
}
);
userData = {
com.schriftgestaltung.Glyphs.glyph.leftMetricsKey = O;
com.schriftgestaltung.Glyphs.glyph.rightMetricsKey = O;
};
width = 791;
},
{
anchors = (
{
name = bottom;
pos = (487,0);
},
{
name = top;
pos = (487,700);
}
);
layerId = "60FFA52A-095B-47EE-98E9-9B5B7A5F3F54";
shapes = (
{
closed = 1;
nodes = (
(685,-10,o),
(840,140,o),
(840,345,cs),
(840,563,o),
(682,710,o),
(473,710,cs),
(357,710,o),
(270,668,o),
(201,589,c),
(229,565,l),
(292,634,o),
(375,671,o),
(470,671,cs),
(647,671,o),
(797,553,o),
(797,349,cs),
(797,159,o),
(654,29,o),
(484,29,cs),
(310,29,o),
(182,166,o),
(176,332,c),
(818,332,l),
(816,372,l),
(133,372,l),
(133,344,ls),
(132,133,o),
(295,-10,o),
(483,-10,cs)
);
}
);
userData = {
com.schriftgestaltung.Glyphs.glyph.leftMetricsKey = O;
com.schriftgestaltung.Glyphs.glyph.rightMetricsKey = O;
};
width = 973.13953;
},
{
anchors = (
{
name = bottom;
pos = (385,0);
},
{
name = top;
pos = (385,700);
}
);
layerId = "C30A2D91-B9D3-4A88-AAF0-AD27EF9042EE";
shapes = (
{
closed = 1;
nodes = (
(573,-10,o),
(727,151,o),
(727,350,cs),
(727,549,o),
(571,710,o),
(383,710,cs),
(265.009,710,o),
(194,682,o),
(108,614,c),
(182,487,l),
(242,534,o),
(293,554,o),
(372,554,cs),
(483,554,o),
(557,476,o),
(557,351,cs),
(557,221,o),
(484,146,o),
(385,146,cs),
(314,146,o),
(244,197,o),
(222,275,c),
(689,275,l),
(680,413,l),
(43,413,l),
(43,312,ls),
(53,127,o),
(205,-10,o),
(385,-10,cs)
);
}
);
userData = {
com.schriftgestaltung.Glyphs.glyph.leftMetricsKey = O;
com.schriftgestaltung.Glyphs.glyph.rightMetricsKey = O;
};
width = 770;
},
{
anchors = (
{
name = bottom;
pos = (479,0);
},
{
name = top;
pos = (479,700);
}
);
layerId = "F0741901-C5E8-42E7-A5F2-E893972BE6B8";
shapes = (
{
closed = 1;
nodes = (
(675,-10,o),
(834,152,o),
(834,350,cs),
(834,548,o),
(672,710,o),
(478,710,cs),
(360,710,o),
(281,680,o),
(188,596,c),
(262,479,l),
(330,537,o),
(389,554,o),
(467,554,cs),
(567,554,o),
(657,490,o),
(657,351,cs),
(657,217,o),
(575,146,o),
(481,146,cs),
(405,146,o),
(332,201,o),
(309,275,c),
(769,275,l),
(759,413,l),
(123,413,l),
(123,312,ls),
(133,117,o),
(304,-10,o),
(481,-10,cs)
);
}
);
userData = {
com.schriftgestaltung.Glyphs.glyph.leftMetricsKey = O;
com.schriftgestaltung.Glyphs.glyph.rightMetricsKey = O;
};
width = 957.88643;
}
);
metricLeft = O;
metricRight = O;
unicode = 399;
},
{
color = 6;
glyphname = T;
kernLeft = T;
kernRight = T;
layers = (
{
anchors = (
{
name = bottom;
pos = (288,0);
},
{
name = center;
pos = (288,350);
},
{
name = top;
pos = (288,700);
}
);
layerId = "5A878C7E-547A-4951-B48F-676DBBC9B762";
shapes = (
{
closed = 1;
nodes = (
(339,0,l),
(339,596,l),
(541,596,l),
(541,700,l),
(35,700,l),
(35,596,l),
(231,596,l),
(231,0,l)
);
}
);
width = 576;
},
{
anchors = (
{
name = bottom;
pos = (423,0);
},
{
name = center;
pos = (423,350);
},
{
name = top;
pos = (423,700);
}
);
layerId = "649E0662-786D-44F6-8E8D-A6782F19FFAA";
shapes = (
{
closed = 1;
nodes = (
(474,0,l),
(474,596,l),
(746,596,l),
(746,700,l),
(100,700,l),
(100,596,l),
(366,596,l),
(366,0,l)
);
}
);
width = 846;
},
{
anchors = (
{
name = bottom;
pos = (254,0);
},
{
name = center;
pos = (254,350);
},
{
name = top;
pos = (254,700);
}
);
layerId = "E41BA830-E06B-4916-8D61-039D08A6FFE2";
shapes = (
{
closed = 1;
nodes = (
(275,0,l),
(275,659,l),
(485,659,l),
(485,700,l),
(23,700,l),
(23,659,l),
(233,659,l),
(233,0,l)
);
}
);
width = 508.46511;
},
{
anchors = (
{
name = bottom;
pos = (389,0);
},
{
name = center;
pos = (389,350);
},
{
name = top;
pos = (389,700);
}
);
layerId = "60FFA52A-095B-47EE-98E9-9B5B7A5F3F54";
shapes = (
{
closed = 1;
nodes = (
(410,0,l),
(410,659,l),
(690,659,l),
(690,700,l),
(88,700,l),
(88,659,l),
(368,659,l),
(368,0,l)
);
}
);
width = 778.46512;
},
{
anchors = (
{
name = bottom;
pos = (328,0);
},
{
name = center;
pos = (328,350);
},
{
name = top;
pos = (328,700);
}
);
layerId = "C30A2D91-B9D3-4A88-AAF0-AD27EF9042EE";
shapes = (
{
closed = 1;
nodes = (
(410,0,l),
(410,549,l),
(623,549,l),
(623,700,l),
(33,700,l),
(33,549,l),
(239,549,l),
(239,0,l)
);
}
);
width = 655.38971;
},
{
anchors = (
{
name = bottom;
pos = (463,0);
},
{
name = center;
pos = (463,350);
},
{
name = top;
pos = (463,700);
}
);
layerId = "F0741901-C5E8-42E7-A5F2-E893972BE6B8";
shapes = (
{
closed = 1;
nodes = (
(545,0,l),
(545,549,l),
(827,549,l),
(827,700,l),
(98,700,l),
(98,549,l),
(374,549,l),
(374,0,l)
);
}
);
width = 925.2685;
}
);
unicode = 84;
},
{
color = 3;
glyphname = Tbar;
kernLeft = T;
kernRight = T;
layers = (
{
layerId = "5A878C7E-547A-4951-B48F-676DBBC9B762";
shapes = (
{
closed = 1;
nodes = (
(422,307,l),
(422,397,l),
(154,397,l),
(154,307,l)
);
},
{
ref = T;
}
);
width = 576;
},
{
layerId = "649E0662-786D-44F6-8E8D-A6782F19FFAA";
shapes = (
{
closed = 1;
nodes = (
(627,308,l),
(627,394,l),
(219,394,l),
(219,308,l)
);
},
{
ref = T;
}
);
width = 846;
},
{
layerId = "E41BA830-E06B-4916-8D61-039D08A6FFE2";
shapes = (
{
closed = 1;
nodes = (
(387,332,l),
(387,370,l),
(119,370,l),
(119,332,l)
);
},
{
alignment = -1;
ref = T;
}
);
userData = {
com.schriftgestaltung.Glyphs.glyph.leftMetricsKey = T;
com.schriftgestaltung.Glyphs.glyph.rightMetricsKey = T;
};
width = 508.46511;
},
{
layerId = "60FFA52A-095B-47EE-98E9-9B5B7A5F3F54";
shapes = (
{
closed = 1;
nodes = (
(593,333,l),
(593,366,l),
(185,366,l),
(185,333,l)
);
},
{
alignment = -1;
ref = T;
}
);
userData = {
com.schriftgestaltung.Glyphs.glyph.leftMetricsKey = T;
com.schriftgestaltung.Glyphs.glyph.rightMetricsKey = T;
};
width = 778.46512;
},
{
layerId = "C30A2D91-B9D3-4A88-AAF0-AD27EF9042EE";
shapes = (
{
closed = 1;
nodes = (
(494,291,l),
(494,412,l),
(170,412,l),
(170,291,l)
);
},
{
alignment = -1;
ref = T;
}
);
userData = {
com.schriftgestaltung.Glyphs.glyph.leftMetricsKey = T;
com.schriftgestaltung.Glyphs.glyph.rightMetricsKey = T;
};
width = 655.38971;
},
{
layerId = "F0741901-C5E8-42E7-A5F2-E893972BE6B8";
shapes = (
{
closed = 1;
nodes = (
(698,292,l),
(698,409,l),
(235,409,l),
(235,292,l)
);
},
{
alignment = -1;
ref = T;
}
);
userData = {
com.schriftgestaltung.Glyphs.glyph.leftMetricsKey = T;
com.schriftgestaltung.Glyphs.glyph.rightMetricsKey = T;
};
width = 925.2685;
}
);
unicode = 358;
},
{
color = 6;
glyphname = U;
kernLeft = U;
kernRight = U;
layers = (
{
anchors = (
{
name = bottom;
pos = (370,0);
},
{
name = ogonek;
pos = (540,0);
},
{
name = top;
pos = (370,700);
},
{
name = topright;
pos = (720,700);
}
);
layerId = "5A878C7E-547A-4951-B48F-676DBBC9B762";
shapes = (
{
closed = 1;
nodes = (
(532.667,-6,o),
(652,110.333,o),
(652,269,cs),
(652,701,l),
(549,701,l),
(549,278,ls),
(549,176.667,o),
(470,98,o),
(370,98,cs),
(275.333,98,o),
(196,176.667,o),
(196,278,cs),
(196,701,l),
(88,701,l),
(88,269,ls),
(88,110.333,o),
(207.333,-6,o),
(370,-6,cs)
);
}
);
width = 740;
},
{
anchors = (
{
name = bottom;
pos = (522,0);
},
{
name = ogonek;
pos = (694,0);
},
{
name = top;
pos = (522,700);
},
{
name = topright;
pos = (942,700);
}
);
layerId = "649E0662-786D-44F6-8E8D-A6782F19FFAA";
shapes = (
{
closed = 1;
nodes = (
(734,-6,o),
(874,139,o),
(874,335,cs),
(874,701,l),
(771,701,l),
(771,339,ls),
(771,200,o),
(665,99,o),
(522,99,cs),
(386,99,o),
(278,200,o),
(278,339,cs),
(278,701,l),
(170,701,l),
(170,335,ls),
(170,139,o),
(310,-6,o),
(522,-6,cs)
);
}
);
width = 1044;
},
{
anchors = (
{
name = bottom;
pos = (372,0);
},
{
name = ogonek;
pos = (527,-5);
},
{
name = top;
pos = (372,700);
},
{
name = topright;
pos = (723,700);
}
);
layerId = "E41BA830-E06B-4916-8D61-039D08A6FFE2";
shapes = (
{
closed = 1;
nodes = (
(525,-6,o),
(638,109,o),
(638,269,cs),
(638,700,l),
(598,700,l),
(598,278,ls),
(598,137,o),
(502,35,o),
(368,35,cs),
(239,35,o),
(146,137,o),
(146,278,cs),
(146,700,l),
(105,700,l),
(105,269,ls),
(105,109,o),
(215,-6,o),
(368,-6,cs)
);
}
);
width = 743.06977;
},
{
anchors = (
{
name = bottom;
pos = (524,0);
},
{
name = ogonek;
pos = (835,8);
},
{
name = top;
pos = (524,700);
},
{
name = topright;
pos = (859,700);
}
);
layerId = "60FFA52A-095B-47EE-98E9-9B5B7A5F3F54";
shapes = (
{
closed = 1;
nodes = (
(726,-6,o),
(860,138,o),
(860,335,cs),
(860,700,l),
(819,700,l),
(819,339,ls),
(819,160,o),
(697,36,o),
(520,36,cs),
(350,36,o),
(229,160,o),
(229,339,cs),
(229,700,l),
(187,700,l),
(187,337,ls),
(187,137,o),
(318,-6,o),
(520,-6,cs)
);
}
);
width = 1047.06977;
},
{
anchors = (
{
name = bottom;
pos = (382,0);
},
{
name = ogonek;
pos = (565,0);
},
{
name = top;
pos = (382,700);
},
{
name = topright;
pos = (745,700);
}
);
layerId = "C30A2D91-B9D3-4A88-AAF0-AD27EF9042EE";
shapes = (
{
closed = 1;
nodes = (
(556,-6,o),
(681,110,o),
(681,269,cs),
(681,701,l),
(515,701,l),
(515,278,ls),
(515,202,o),
(457,145,o),
(383,145,cs),
(312,145,o),
(255,202,o),
(255,278,cs),
(255,701,l),
(83,701,l),
(83,269,ls),
(83,110,o),
(209,-6,o),
(383,-6,cs)
);
}
);
width = 764.32416;
},
{
anchors = (
{
name = bottom;
pos = (534,0);
},
{
name = ogonek;
pos = (712,0);
},
{
name = top;
pos = (534,700);
},
{
name = topright;
pos = (971,700);
}
);
layerId = "F0741901-C5E8-42E7-A5F2-E893972BE6B8";
shapes = (
{
closed = 1;
nodes = (
(757,-6,o),
(903,139,o),
(903,335,cs),
(903,701,l),
(737,701,l),
(737,339,ls),
(737,225,o),
(652,146,o),
(534,146,cs),
(421,146,o),
(337,225,o),
(337,339,cs),
(337,701,l),
(165,701,l),
(165,335,ls),
(165,139,o),
(311,-6,o),
(534,-6,cs)
);
}
);
width = 1068.15372;
}
);
unicode = 85;
},
{
color = 6;
glyphname = Uhorn;
kernLeft = U;
kernRight = U;
layers = (
{
anchors = (
{
name = bottom;
pos = (370,0);
},
{
name = top;
pos = (370,700);
}
);
layerId = "5A878C7E-547A-4951-B48F-676DBBC9B762";
shapes = (
{
closed = 1;
nodes = (
(532.667,-6,o),
(652,110.333,o),
(652,269,cs),
(652,673,l),
(622,621,l),
(714,636,o),
(765,707,o),
(765,814,c),
(673,814,l),
(673,745.118,o),
(650,701,o),
(587,701,cs),
(549,701,l),
(549,278,ls),
(549,176.667,o),
(470,98,o),
(370,98,cs),
(275.333,98,o),
(196,176.667,o),
(196,278,cs),
(196,701,l),
(88,701,l),
(88,269,ls),
(88,110.333,o),
(207.333,-6,o),
(370,-6,cs)
);
}
);
width = 740;
},
{
anchors = (
{
name = bottom;
pos = (522,0);
},
{
name = top;
pos = (522,700);
}
);
layerId = "649E0662-786D-44F6-8E8D-A6782F19FFAA";
shapes = (
{
closed = 1;
nodes = (
(734,-6,o),
(874,139,o),
(874,335,cs),
(874,682,l),
(844,644,l),
(939,644,o),
(984,718,o),
(984,814,c),
(892,814,l),
(892,740,o),
(871,701,o),
(792,701,cs),
(771,701,l),
(771,339,ls),
(771,200,o),
(665,99,o),
(522,99,cs),
(386,99,o),
(278,200,o),
(278,339,cs),
(278,701,l),
(170,701,l),
(170,335,ls),
(170,139,o),
(310,-6,o),
(522,-6,cs)
);
}
);
width = 1044;
},
{
anchors = (
{
name = bottom;
pos = (372,0);
},
{
name = top;
pos = (372,700);
}
);
layerId = "E41BA830-E06B-4916-8D61-039D08A6FFE2";
shapes = (
{
closed = 1;
nodes = (
(525,-6,o),
(638,109,o),
(638,269,cs),
(638,688,l),
(620,666,l),
(708,669,o),
(752,718,o),
(752,802,c),
(715,802,l),
(715,735,o),
(680,700,o),
(613,700,cs),
(598,700,l),
(598,278,ls),
(598,137,o),
(502,35,o),
(368,35,cs),
(239,35,o),
(146,137,o),
(146,278,cs),
(146,700,l),
(105,700,l),
(105,269,ls),
(105,109,o),
(215,-6,o),
(368,-6,cs)
);
}
);
width = 743.06977;
},
{
anchors = (
{
name = bottom;
pos = (524,0);
},
{
name = top;
pos = (524,700);
}
);
layerId = "60FFA52A-095B-47EE-98E9-9B5B7A5F3F54";
shapes = (
{
closed = 1;
nodes = (
(726,-6,o),
(860,138,o),
(860,335,cs),
(860,693,l),
(844,670,l),
(916,672,o),
(959,710,o),
(959,802,c),
(921,802,l),
(921,735,o),
(897,700,o),
(832,700,cs),
(819,700,l),
(819,339,ls),
(819,160,o),
(697,36,o),
(520,36,cs),
(350,36,o),
(229,160,o),
(229,339,cs),
(229,700,l),
(187,700,l),
(187,337,ls),
(187,137,o),
(318,-6,o),
(520,-6,cs)
);
}
);
width = 993.34884;
},
{
anchors = (
{
name = bottom;
pos = (382,0);
},
{
name = top;
pos = (382,700);
}
);
layerId = "C30A2D91-B9D3-4A88-AAF0-AD27EF9042EE";
shapes = (
{
closed = 1;
nodes = (
(556,-6,o),
(681,110,o),
(681,269,cs),
(681,664,l),
(635,617,l),
(743,629,o),
(792,718,o),
(792,826,c),
(663,826,l),
(663,745,o),
(637,701,o),
(577,701,cs),
(515,701,l),
(515,278,ls),
(515,202,o),
(457,145,o),
(383,145,cs),
(312,145,o),
(255,202,o),
(255,278,cs),
(255,701,l),
(83,701,l),
(83,269,ls),
(83,110,o),
(209,-6,o),
(383,-6,cs)
);
}
);
width = 764.32416;
},
{
anchors = (
{
name = bottom;
pos = (534,0);
},
{
name = top;
pos = (534,700);
}
);
layerId = "F0741901-C5E8-42E7-A5F2-E893972BE6B8";
shapes = (
{
closed = 1;
nodes = (
(757,-6,o),
(903,139,o),
(903,335,cs),
(903,674,l),
(856,641,l),
(968,637,o),
(1011,730,o),
(1011,826,c),
(883,826,l),
(883,740,o),
(859,701,o),
(781,701,cs),
(737,701,l),
(737,339,ls),
(737,225,o),
(652,146,o),
(534,146,cs),
(421,146,o),
(337,225,o),
(337,339,cs),
(337,701,l),
(165,701,l),
(165,335,ls),
(165,139,o),
(311,-6,o),
(534,-6,cs)
);
}
);
width = 1070.59994;
}
);
unicode = 431;
},
{
color = 3;
glyphname = Uogonek;
kernLeft = U;
kernRight = U;
layers = (
{
layerId = "5A878C7E-547A-4951-B48F-676DBBC9B762";
shapes = (
{
closed = 1;
nodes = (
(482,-200,o),
(529,-171,o),
(543,-138,c),
(487,-98,l),
(476,-114,o),
(464,-123,o),
(450,-123,cs),
(428,-123,o),
(416,-108,o),
(416,-84,cs),
(416,-44,o),
(455,-3,o),
(532,40,c),
(494,85,l),
(404,38,o),
(325,-16,o),
(325,-97,cs),
(325,-164,o),
(376,-200,o),
(434,-200,cs)
);
},
{
ref = U;
}
);
width = 740;
},
{
layerId = "649E0662-786D-44F6-8E8D-A6782F19FFAA";
shapes = (
{
closed = 1;
nodes = (
(669,-200,o),
(713,-166,o),
(724,-138,c),
(668,-98,l),
(660,-111,o),
(648,-123,o),
(631,-123,cs),
(610,-123,o),
(597,-108,o),
(597,-81,cs),
(597,-21,o),
(676,22,o),
(703,37,c),
(682,91,l),
(644,61,o),
(506,0,o),
(506,-99,cs),
(506,-158,o),
(553,-200,o),
(615,-200,cs)
);
},
{
ref = U;
}
);
width = 1044;
},
{
layerId = "E41BA830-E06B-4916-8D61-039D08A6FFE2";
shapes = (
{
closed = 1;
nodes = (
(495,-227,o),
(532,-204,o),
(548,-172,c),
(523,-152,l),
(509,-177,o),
(487,-193,o),
(457,-193,cs),
(418,-193,o),
(389,-163,o),
(389,-119,cs),
(389,-59,o),
(442,-11,o),
(516,34,c),
(504,59,l),
(425,13,o),
(351,-40,o),
(351,-124,cs),
(351,-185,o),
(396,-227,o),
(453,-227,cs)
);
},
{
alignment = -1;
ref = U;
}
);
width = 743.06977;
},
{
layerId = "60FFA52A-095B-47EE-98E9-9B5B7A5F3F54";
shapes = (
{
closed = 1;
nodes = (
(654,-228,o),
(686,-203,o),
(705,-172,c),
(680,-152,l),
(667,-176,o),
(645,-193,o),
(614,-193,cs),
(575,-193,o),
(546,-163,o),
(546,-122,cs),
(546,-69,o),
(590,-14,o),
(706,43,c),
(697,70,l),
(579,10,o),
(508,-51,o),
(508,-129,cs),
(508,-184,o),
(553,-228,o),
(610,-228,cs)
);
},
{
alignment = -1;
ref = U;
}
);
width = 1047.06977;
},
{
layerId = "C30A2D91-B9D3-4A88-AAF0-AD27EF9042EE";
shapes = (
{
closed = 1;
nodes = (
(514,-210,o),
(562,-174,o),
(581,-134,c),
(512,-82,l),
(502,-98,o),
(491,-105,o),
(479,-105,cs),
(462,-105,o),
(452,-92,o),
(452,-74,cs),
(452,-28,o),
(504,12,o),
(567,48,c),
(531,96,l),
(425,45,o),
(340,-12,o),
(340,-99,cs),
(340,-167,o),
(389,-210,o),
(456,-210,cs)
);
},
{
alignment = -1;
ref = U;
}
);
width = 764.32416;
},
{
layerId = "F0741901-C5E8-42E7-A5F2-E893972BE6B8";
shapes = (
{
closed = 1;
nodes = (
(702,-210,o),
(747,-169,o),
(763,-134,c),
(693,-82,l),
(687,-95,o),
(676,-105,o),
(661,-105,cs),
(645,-105,o),
(634,-92,o),
(634,-70,cs),
(634,-3,o),
(728,38,o),
(737,45,c),
(719,102,l),
(668,69,o),
(522,6,o),
(522,-101,cs),
(522,-160,o),
(567,-210,o),
(638,-210,cs)
);
},
{
alignment = -1;
ref = U;
}
);
width = 1068.15372;
}
);
unicode = 370;
},
{
color = 6;
glyphname = V;
kernLeft = V;
kernRight = V;
layers = (
{
anchors = (
{
name = bottom;
pos = (358,0);
},
{
name = top;
pos = (358,700);
}
);
layerId = "5A878C7E-547A-4951-B48F-676DBBC9B762";
shapes = (
{
closed = 1;
nodes = (
(409,0,l),
(691,700,l),
(565,700,l),
(410,275,ls),
(380.667,196.333,o),
(364.333,146,o),
(351,98,c),
(377,99,l),
(362.333,145.667,o),
(346,192.333,o),
(314,275,cs),
(147,700,l),
(24,700,l),
(304,0,l)
);
}
);
width = 715;
},
{
anchors = (
{
name = bottom;
pos = (476,0);
},
{
name = top;
pos = (476,700);
}
);
layerId = "649E0662-786D-44F6-8E8D-A6782F19FFAA";
shapes = (
{
closed = 1;
nodes = (
(545,0,l),
(860,700,l),
(733,700,l),
(560,281,ls),
(536,223,o),
(489,120,o),
(467,60,c),
(499,61,l),
(477,127,o),
(418,246,o),
(401,283,cs),
(214,700,l),
(92,700,l),
(415,0,l)
);
}
);
width = 952;
},
{
anchors = (
{
name = bottom;
pos = (315,0);
},
{
name = top;
pos = (315,700);
}
);
layerId = "E41BA830-E06B-4916-8D61-039D08A6FFE2";
shapes = (
{
closed = 1;
nodes = (
(337,0,l),
(609,700,l),
(559,700,l),
(341,121,ls),
(324,74,o),
(313,45,o),
(308,29,c),
(324,29,l),
(318,45,o),
(308,74,o),
(290,122,cs),
(69,700,l),
(21,700,l),
(291,0,l)
);
}
);
width = 629.81396;
},
{
anchors = (
{
name = bottom;
pos = (456,0);
},
{
name = top;
pos = (456,700);
}
);
layerId = "60FFA52A-095B-47EE-98E9-9B5B7A5F3F54";
shapes = (
{
closed = 1;
nodes = (
(484,0,l),
(822,700,l),
(774,701,l),
(521,170,ls),
(500,126,o),
(476,75,o),
(450,21,c),
(465,21,l),
(454,48,o),
(432,92,o),
(393,172,cs),
(137,701,l),
(90,700,l),
(430,0,l)
);
}
);
width = 912.09302;
},
{
anchors = (
{
name = bottom;
pos = (359,0);
},
{
name = top;
pos = (359,700);
}
);
layerId = "C30A2D91-B9D3-4A88-AAF0-AD27EF9042EE";
shapes = (
{
closed = 1;
nodes = (
(429,0,l),
(710,700,l),
(536,700,l),
(407,347,ls),
(377,266,o),
(364,229,o),
(347,160,c),
(378,160,l),
(360,228,o),
(349,264,o),
(317,347,cs),
(183,700,l),
(5,700,l),
(285,0,l)
);
}
);
width = 715.64453;
},
{
anchors = (
{
name = bottom;
pos = (476,0);
},
{
name = top;
pos = (476,700);
}
);
layerId = "F0741901-C5E8-42E7-A5F2-E893972BE6B8";
shapes = (
{
closed = 1;
nodes = (
(565,0,l),
(878,700,l),
(702,700,l),
(556,351,ls),
(531,291,o),
(487,201,o),
(462,120,c),
(499,120,l),
(475,209,o),
(418,318,o),
(404,353,cs),
(250,700,l),
(73,700,l),
(395,0,l)
);
}
);
width = 951.05657;
}
);
unicode = 86;
},
{
color = 6;
glyphname = W;
kernLeft = W;
kernRight = W;
layers = (
{
anchors = (
{
name = bottom;
pos = (498,0);
},
{
name = top;
pos = (498,700);
}
);
layerId = "5A878C7E-547A-4951-B48F-676DBBC9B762";
shapes = (
{
closed = 1;
nodes = (
(320,0,l),
(498,434,l),
(489,438,l),
(674,0,l),
(749,0,l),
(972,700,l),
(856,700,l),
(723,265,ls),
(696,177,o),
(705,203,o),
(688,112,c),
(714,119,l),
(700,171,o),
(690,214,o),
(670,263,cs),
(548,579,l),
(451,579,l),
(325,263,ls),
(316.809,241.939,o),
(308.257,215.047,o),
(279,110,c),
(308,109,l),
(301,140,o),
(289,218,o),
(274,262,cs),
(139,700,l),
(24,700,l),
(247,0,l)
);
}
);
width = 996;
},
{
anchors = (
{
name = bottom;
pos = (638,0);
},
{
name = top;
pos = (638,700);
}
);
layerId = "649E0662-786D-44F6-8E8D-A6782F19FFAA";
shapes = (
{
closed = 1;
nodes = (
(433,0,l),
(637,467,l),
(618,471,l),
(821,0,l),
(896,0,l),
(1184,700,l),
(1068,700,l),
(904,296,ls),
(879,236,o),
(856,157,o),
(840,102,c),
(880,109,l),
(867,160,o),
(834,234,o),
(809,291,cs),
(684,579,l),
(580,579,l),
(451,289,ls),
(424,229,o),
(394,153,o),
(375,100,c),
(419,99,l),
(403,152,o),
(380,229,o),
(359,289,cs),
(211,700,l),
(92,700,l),
(350,0,l)
);
}
);
width = 1276;
},
{
anchors = (
{
name = bottom;
pos = (442,0);
},
{
name = top;
pos = (442,700);
}
);
layerId = "E41BA830-E06B-4916-8D61-039D08A6FFE2";
shapes = (
{
closed = 1;
nodes = (
(260,0,l),
(449,484,l),
(432,485,l),
(623,0,l),
(660,0,l),
(862,700,l),
(817,700,l),
(677,210,ls),
(647,105,o),
(658,142,o),
(630,37,c),
(646,39,l),
(600,158,o),
(590,187,o),
(579,216,cs),
(459,533,l),
(425,533,l),
(304,216,ls),
(288,176,o),
(274,136,o),
(237,37,c),
(253,37,l),
(233,105,o),
(227,137,o),
(206,209,cs),
(66,700,l),
(21,700,l),
(223,0,l)
);
}
);
userData = {
com.schriftgestaltung.Glyphs.glyph.leftMetricsKey = V;
com.schriftgestaltung.Glyphs.glyph.rightMetricsKey = V;
};
width = 883.18604;
},
{
anchors = (
{
name = bottom;
pos = (584,0);
},
{
name = top;
pos = (584,700);
}
);
layerId = "60FFA52A-095B-47EE-98E9-9B5B7A5F3F54";
shapes = (
{
closed = 1;
nodes = (
(375,0,l),
(583,505,l),
(569,506,l),
(772,0,l),
(808,0,l),
(1076,700,l),
(1030,700,l),
(855,241,ls),
(831,178,o),
(813,125,o),
(780,31,c),
(800,33,l),
(791,59,o),
(773,102,o),
(755,151,cs),
(595,550,l),
(559,550,l),
(433,242,ls),
(406,180,o),
(387,132,o),
(347,31,c),
(361,31,l),
(335,112,o),
(320,153,o),
(293,236,cs),
(137,700,l),
(90,700,l),
(330,0,l)
);
}
);
userData = {
com.schriftgestaltung.Glyphs.glyph.leftMetricsKey = V;
com.schriftgestaltung.Glyphs.glyph.rightMetricsKey = V;
};
width = 1166.25581;
},
{
anchors = (
{
name = bottom;
pos = (499,0);
},
{
name = top;
pos = (499,700);
}
);
layerId = "C30A2D91-B9D3-4A88-AAF0-AD27EF9042EE";
shapes = (
{
closed = 1;
nodes = (
(350,0,l),
(503,400,l),
(484,402,l),
(651,0,l),
(781,0,l),
(992,700,l),
(821,700,l),
(717,333,ls),
(693,249,o),
(699,222,o),
(691,160,c),
(712,164,l),
(706,213,o),
(697,265,o),
(673,332,cs),
(570,609,l),
(433,609,l),
(328,332,ls),
(309,279,o),
(305,235,o),
(292,159,c),
(315,160,l),
(312,192,o),
(303,268,o),
(285,332,cs),
(179,700,l),
(5,700,l),
(216,0,l)
);
}
);
userData = {
com.schriftgestaltung.Glyphs.glyph.leftMetricsKey = V;
com.schriftgestaltung.Glyphs.glyph.rightMetricsKey = V;
};
width = 998.26485;
},
{
anchors = (
{
name = bottom;
pos = (639,0);
},
{
name = top;
pos = (639,700);
}
);
layerId = "F0741901-C5E8-42E7-A5F2-E893972BE6B8";
shapes = (
{
closed = 1;
nodes = (
(463,0,l),
(643,434,l),
(613,436,l),
(798,0,l),
(928,0,l),
(1205,700,l),
(1034,700,l),
(898,364,ls),
(877,307,o),
(851,201,o),
(844,150,c),
(879,154,l),
(872,206,o),
(840,290,o),
(810,364,cs),
(706,608,l),
(562,608,l),
(454,358,ls),
(423,284,o),
(395,199,o),
(388,149,c),
(426,149,l),
(418,200,o),
(387,306,o),
(370,359,cs),
(252,700,l),
(73,700,l),
(319,0,l)
);
}
);
userData = {
com.schriftgestaltung.Glyphs.glyph.leftMetricsKey = V;
com.schriftgestaltung.Glyphs.glyph.rightMetricsKey = V;
};
width = 1278;
}
);
metricLeft = V;
metricRight = V;
unicode = 87;
},
{
color = 6;
glyphname = X;
kernLeft = X;
kernRight = X;
layers = (
{
anchors = (
{
name = bottom;
pos = (343,0);
},
{
name = top;
pos = (343,700);
}
);
layerId = "5A878C7E-547A-4951-B48F-676DBBC9B762";
shapes = (
{
closed = 1;
nodes = (
(661,0,l),
(378,390,l),
(166,700,l),
(29,700,l),
(307,314,l),
(524,0,l)
);
},
{
closed = 1;
nodes = (
(151,0,l),
(358,302,l),
(291,381,l),
(24,0,l)
);
},
{
closed = 1;
nodes = (
(651,700,l),
(524,700,l),
(328,401,l),
(394,325,l)
);
}
);
width = 685;
},
{
anchors = (
{
name = bottom;
pos = (481,0);
},
{
name = top;
pos = (481,700);
}
);
layerId = "649E0662-786D-44F6-8E8D-A6782F19FFAA";
shapes = (
{
closed = 1;
nodes = (
(870,0,l),
(511,397,l),
(244,700,l),
(97,700,l),
(444,316,l),
(722,0,l)
);
},
{
closed = 1;
nodes = (
(233,0,l),
(486,302,l),
(425,381,l),
(92,0,l)
);
},
{
closed = 1;
nodes = (
(859,700,l),
(717,700,l),
(476,401,l),
(535,325,l)
);
}
);
width = 962;
},
{
anchors = (
{
name = bottom;
pos = (304,0);
},
{
name = top;
pos = (304,700);
}
);
layerId = "E41BA830-E06B-4916-8D61-039D08A6FFE2";
shapes = (
{
closed = 1;
nodes = (
(585,0,l),
(314,372,l),
(82,700,l),
(27,700,l),
(287,341,l),
(531,0,l)
);
},
{
closed = 1;
nodes = (
(73,0,l),
(311,339,l),
(283,367,l),
(22,0,l)
);
},
{
closed = 1;
nodes = (
(575,700,l),
(524,700,l),
(293,374,l),
(321,345,l)
);
}
);
width = 607.48837;
},
{
anchors = (
{
name = bottom;
pos = (443,0);
},
{
name = top;
pos = (443,700);
}
);
layerId = "60FFA52A-095B-47EE-98E9-9B5B7A5F3F54";
shapes = (
{
closed = 1;
nodes = (
(794,0,l),
(450,376,l),
(154,700,l),
(98,700,l),
(424,344,l),
(737,0,l)
);
},
{
closed = 1;
nodes = (
(146,0,l),
(445,339,l),
(418,369,l),
(90,0,l)
);
},
{
closed = 1;
nodes = (
(781,700,l),
(725,700,l),
(431,376,l),
(457,346,l)
);
}
);
width = 884.48837;
},
{
anchors = (
{
name = bottom;
pos = (354,0);
},
{
name = top;
pos = (354,700);
}
);
layerId = "C30A2D91-B9D3-4A88-AAF0-AD27EF9042EE";
shapes = (
{
closed = 1;
nodes = (
(707,0,l),
(424,391,l),
(212,700,l),
(4,700,l),
(283,313,l),
(499,0,l)
);
},
{
closed = 1;
nodes = (
(197,0,l),
(403,301,l),
(266,382,l),
(-1,0,l)
);
},
{
closed = 1;
nodes = (
(697,700,l),
(499,700,l),
(304,402,l),
(440,324,l)
);
}
);
width = 707.00556;
},
{
anchors = (
{
name = bottom;
pos = (492,0);
},
{
name = top;
pos = (492,700);
}
);
layerId = "F0741901-C5E8-42E7-A5F2-E893972BE6B8";
shapes = (
{
closed = 1;
nodes = (
(916,0,l),
(557,398,l),
(291,700,l),
(72,700,l),
(420,315,l),
(697,0,l)
);
},
{
closed = 1;
nodes = (
(280,0,l),
(531,300,l),
(401,382,l),
(67,0,l)
);
},
{
closed = 1;
nodes = (
(905,700,l),
(692,700,l),
(453,402,l),
(581,324,l)
);
}
);
width = 984.3018;
}
);
unicode = 88;
},
{
color = 6;
glyphname = Y;
kernLeft = Y;
kernRight = Y;
layers = (
{
anchors = (
{
name = bottom;
pos = (330,0);
},
{
name = top;
pos = (330,700);
},
{
name = topleft;
pos = (20,700);
}
);
layerId = "5A878C7E-547A-4951-B48F-676DBBC9B762";
shapes = (
{
closed = 1;
nodes = (
(394,0,l),
(394,357,l),
(379,289,l),
(650,700,l),
(526,700,l),
(331,393,l),
(356,390,l),
(140,700,l),
(10,700,l),
(293,300,l),
(286,349,l),
(286,0,l)
);
}
);
width = 660;
},
{
anchors = (
{
name = bottom;
pos = (480,0);
},
{
name = top;
pos = (480,700);
},
{
name = topleft;
pos = (90,700);
}
);
layerId = "649E0662-786D-44F6-8E8D-A6782F19FFAA";
shapes = (
{
closed = 1;
nodes = (
(544,0,l),
(544,321,l),
(539,263,l),
(880,700,l),
(746,700,l),
(480,347,l),
(503,347,l),
(230,700,l),
(80,700,l),
(456,236,l),
(436,313,l),
(436,0,l)
);
}
);
width = 960;
},
{
anchors = (
{
name = bottom;
pos = (304,0);
},
{
name = top;
pos = (304,700);
},
{
name = topleft;
pos = (20,700);
}
);
layerId = "E41BA830-E06B-4916-8D61-039D08A6FFE2";
shapes = (
{
closed = 1;
nodes = (
(330,0,l),
(330,343,l),
(320,298,l),
(590,700,l),
(542,700,l),
(303,343,l),
(317,341,l),
(68,700,l),
(18,700,l),
(296,300,l),
(288,341,l),
(288,0,l)
);
}
);
width = 607.81396;
},
{
anchors = (
{
name = bottom;
pos = (454,0);
},
{
name = top;
pos = (454,700);
},
{
name = topleft;
pos = (90,700);
}
);
layerId = "60FFA52A-095B-47EE-98E9-9B5B7A5F3F54";
shapes = (
{
closed = 1;
nodes = (
(480,0,l),
(480,286,l),
(472,257,l),
(820,700,l),
(767,700,l),
(454,296,l),
(465,296,l),
(144,700,l),
(88,700,l),
(449,251,l),
(438,285,l),
(438,0,l)
);
}
);
width = 907.81395;
},
{
anchors = (
{
name = bottom;
pos = (345,0);
},
{
name = top;
pos = (345,700);
},
{
name = topleft;
pos = (20,700);
}
);
layerId = "C30A2D91-B9D3-4A88-AAF0-AD27EF9042EE";
shapes = (
{
closed = 1;
nodes = (
(441,0,l),
(441,358,l),
(426,289,l),
(697,700,l),
(508,700,l),
(315,395,l),
(402,392,l),
(187,700,l),
(-7,700,l),
(276,300,l),
(269,349,l),
(269,0,l)
);
}
);
width = 689.87801;
},
{
anchors = (
{
name = bottom;
pos = (495,0);
},
{
name = top;
pos = (495,700);
},
{
name = topleft;
pos = (90,700);
}
);
layerId = "F0741901-C5E8-42E7-A5F2-E893972BE6B8";
shapes = (
{
closed = 1;
nodes = (
(591,0,l),
(591,323,l),
(586,263,l),
(927,700,l),
(728,700,l),
(464,349,l),
(549,349,l),
(278,700,l),
(63,700,l),
(439,235,l),
(419,314,l),
(419.007,0,l)
);
}
);
width = 989.98258;
}
);
unicode = 89;
},
{
color = 6;
glyphname = Z;
kernLeft = Z;
kernRight = Z;
layers = (
{
anchors = (
{
name = bottom;
pos = (330,0);
},
{
name = center;
pos = (330,350);
},
{
name = top;
pos = (330,700);
}
);
layerId = "5A878C7E-547A-4951-B48F-676DBBC9B762";
shapes = (
{
closed = 1;
nodes = (
(604,0,l),
(604,104,l),
(180,104,l),
(196,87,l),
(593,622,l),
(593,700,l),
(86,700,l),
(86,596,l),
(474,596,l),
(459,613,l),
(60,79,l),
(60,0,l)
);
}
);
width = 659;
},
{
anchors = (
{
name = bottom;
pos = (440,0);
},
{
name = center;
pos = (440,350);
},
{
name = top;
pos = (440,700);
}
);
layerId = "649E0662-786D-44F6-8E8D-A6782F19FFAA";
shapes = (
{
closed = 1;
nodes = (
(784,0,l),
(784,106,l),
(220,106,l),
(258,87,l),
(773,622,l),
(773,700,l),
(126,700,l),
(126,594,l),
(654,594,l),
(615,613,l),
(100,79,l),
(100,0,l)
);
}
);
width = 884;
},
{
anchors = (
{
name = bottom;
pos = (320,0);
},
{
name = center;
pos = (320,350);
},
{
name = top;
pos = (320,700);
}
);
layerId = "E41BA830-E06B-4916-8D61-039D08A6FFE2";
shapes = (
{
closed = 1;
nodes = (
(581,0,l),
(581,41,l),
(99,41,l),
(106,28,l),
(570,665,l),
(570,700,l),
(86,700,l),
(86,659,l),
(538,659,l),
(525,673,l),
(60,36,l),
(60,0,l)
);
}
);
width = 639.81396;
},
{
anchors = (
{
name = bottom;
pos = (430,0);
},
{
name = center;
pos = (430,350);
},
{
name = top;
pos = (430,700);
}
);
layerId = "60FFA52A-095B-47EE-98E9-9B5B7A5F3F54";
shapes = (
{
closed = 1;
nodes = (
(761,0,l),
(761,42,l),
(144,42,l),
(150,28,l),
(750,664,l),
(750,700,l),
(126,700,l),
(126,658,l),
(707,658,l),
(701,674,l),
(100,37,l),
(100,0,l)
);
}
);
width = 864.81395;
},
{
anchors = (
{
name = bottom;
pos = (342,0);
},
{
name = center;
pos = (342,350);
},
{
name = top;
pos = (342,700);
}
);
layerId = "C30A2D91-B9D3-4A88-AAF0-AD27EF9042EE";
shapes = (
{
closed = 1;
nodes = (
(625,0,l),
(625,150,l),
(183,150,l),
(243,89,l),
(614,587,l),
(614,700,l),
(86,700,l),
(86,544,l),
(492,544,l),
(434,611,l),
(60,114,l),
(60,0,l)
);
}
);
width = 683.10712;
},
{
anchors = (
{
name = bottom;
pos = (452,0);
},
{
name = center;
pos = (452,350);
},
{
name = top;
pos = (452,700);
}
);
layerId = "F0741901-C5E8-42E7-A5F2-E893972BE6B8";
shapes = (
{
closed = 1;
nodes = (
(805,0,l),
(805,152,l),
(223,152,l),
(306,90,l),
(794,587,l),
(794,700,l),
(126,700,l),
(126,542,l),
(672,542,l),
(589,610,l),
(100,114,l),
(100,0,l)
);
}
);
width = 908.0629;
}
);
unicode = 90;
},
{
color = 6;
glyphname = I.ss03;
kernLeft = H;
kernRight = H;
layers = (
{
anchors = (
{
name = bottom;
pos = (154,0);
},
{
name = ogonek;
pos = (208,0);
},
{
name = top;
pos = (154,700);
},
{
name = topleft;
pos = (20,700);
}
);
layerId = "5A878C7E-547A-4951-B48F-676DBBC9B762";
shapes = (
{
closed = 1;
nodes = (
(208,0,l),
(208,700,l),
(190,700,o),
(172,700,o),
(154,700,cs),
(100,700,l),
(100,0,l)
);
}
);
width = 308;
},
{
anchors = (
{
name = bottom;
pos = (246,0);
},
{
name = ogonek;
pos = (300,0);
},
{
name = top;
pos = (246,700);
},
{
name = topleft;
pos = (112,700);
}
);
layerId = "649E0662-786D-44F6-8E8D-A6782F19FFAA";
shapes = (
{
closed = 1;
nodes = (
(300,0,l),
(300,700,l),
(299,700,o),
(281,700,o),
(246,700,cs),
(192,700,l),
(192,0,l)
);
}
);
width = 492;
},
{
anchors = (
{
name = bottom;
pos = (154,0);
},
{
name = ogonek;
pos = (175,0);
},
{
name = top;
pos = (154,700);
},
{
name = topleft;
pos = (20,700);
}
);
layerId = "E41BA830-E06B-4916-8D61-039D08A6FFE2";
shapes = (
{
closed = 1;
nodes = (
(175,0,l),
(175,700,l),
(168,700,o),
(160,700,o),
(154,700,cs),
(133,700,l),
(133,0,l)
);
}
);
width = 308;
},
{
anchors = (
{
name = bottom;
pos = (246,0);
},
{
name = ogonek;
pos = (267,0);
},
{
name = top;
pos = (246,700);
},
{
name = topleft;
pos = (106,700);
}
);
layerId = "60FFA52A-095B-47EE-98E9-9B5B7A5F3F54";
shapes = (
{
closed = 1;
nodes = (
(267,0,l),
(267,700,l),
(277,700,o),
(270,700,o),
(246,700,cs),
(226,700,l),
(226,0,l)
);
}
);
width = 492;
},
{
anchors = (
{
name = bottom;
pos = (173,0);
},
{
name = ogonek;
pos = (242,0);
},
{
name = top;
pos = (173,700);
},
{
name = topleft;
pos = (20,700);
}
);
layerId = "C30A2D91-B9D3-4A88-AAF0-AD27EF9042EE";
shapes = (
{
closed = 1;
nodes = (
(258,0,l),
(258,700,l),
(229,700,o),
(201,700,o),
(173,700,cs),
(87,700,l),
(87,0,l)
);
}
);
width = 345.7825;
},
{
anchors = (
{
name = bottom;
pos = (265,0);
},
{
name = ogonek;
pos = (334,0);
},
{
name = top;
pos = (265,700);
},
{
name = topleft;
pos = (112,700);
}
);
layerId = "F0741901-C5E8-42E7-A5F2-E893972BE6B8";
shapes = (
{
closed = 1;
nodes = (
(350,0,l),
(350,700,l),
(338,700,o),
(310,700,o),
(265,700,cs),
(179,700,l),
(179,0,l)
);
}
);
width = 529.5445;
}
);
},
{
color = 6;
glyphname = J.ss03;
kernLeft = J;
kernRight = J;
layers = (
{
anchors = (
{
name = bottom;
pos = (291,0);
},
{
name = top;
pos = (431,700);
}
);
layerId = "5A878C7E-547A-4951-B48F-676DBBC9B762";
shapes = (
{
closed = 1;
nodes = (
(390.667,-10,o),
(484,86.333,o),
(484,213,cs),
(484,700,l),
(376,700,l),
(376,223,ls),
(376,148.333,o),
(328,95,o),
(256,95,cs),
(206.667,95,o),
(175.333,109.333,o),
(118,188,c),
(50,117,l),
(88.667,41,o),
(165.333,-10,o),
(256,-10,cs)
);
}
);
width = 582;
},
{
anchors = (
{
name = bottom;
pos = (436,0);
},
{
name = top;
pos = (646,700);
}
);
layerId = "649E0662-786D-44F6-8E8D-A6782F19FFAA";
shapes = (
{
closed = 1;
nodes = (
(592,-10,o),
(699,129,o),
(699,273,cs),
(699,700,l),
(591,700,l),
(591,283,ls),
(591,176,o),
(518,90,o),
(401,90,cs),
(296,90,o),
(246,156,o),
(197,223,c),
(125,147,l),
(146,110,o),
(230,-10,o),
(401,-10,cs)
);
}
);
width = 881;
},
{
anchors = (
{
name = bottom;
pos = (265,0);
},
{
name = top;
pos = (401,700);
}
);
layerId = "E41BA830-E06B-4916-8D61-039D08A6FFE2";
shapes = (
{
closed = 1;
nodes = (
(339,-10,o),
(422,65,o),
(422,213,cs),
(422,700,l),
(380,700,l),
(380,215,ls),
(380,90,o),
(315,31,o),
(221,31,cs),
(149,31,o),
(97,64,o),
(55,147,c),
(27,119,l),
(61,40,o),
(128,-10,o),
(220,-10,cs)
);
}
);
userData = {
com.schriftgestaltung.Glyphs.glyph.rightMetricsKey = H;
};
width = 529.81396;
},
{
anchors = (
{
name = bottom;
pos = (414,0);
},
{
name = top;
pos = (616,700);
}
);
layerId = "60FFA52A-095B-47EE-98E9-9B5B7A5F3F54";
shapes = (
{
closed = 1;
nodes = (
(538,-10,o),
(637,102,o),
(637,273,cs),
(637,700,l),
(595,700,l),
(595,275,ls),
(595,121,o),
(503,31,o),
(366,31,cs),
(261,31,o),
(181,98,o),
(141,180,c),
(110,149,l),
(141,77,o),
(235,-10,o),
(365,-10,cs)
);
}
);
userData = {
com.schriftgestaltung.Glyphs.glyph.rightMetricsKey = H;
};
width = 828.81395;
},
{
anchors = (
{
name = bottom;
pos = (290,0);
},
{
name = top;
pos = (410,700);
}
);
layerId = "C30A2D91-B9D3-4A88-AAF0-AD27EF9042EE";
shapes = (
{
closed = 1;
nodes = (
(395,-10,o),
(492,78,o),
(492,213,cs),
(492,700,l),
(326,700,l),
(326,230,ls),
(326,178,o),
(290,142,o),
(242,142,cs),
(201,142,o),
(174,158,o),
(135,211,c),
(34,108,l),
(71,39,o),
(148,-10,o),
(255,-10,cs)
);
}
);
userData = {
com.schriftgestaltung.Glyphs.glyph.rightMetricsKey = H;
};
width = 579;
},
{
anchors = (
{
name = bottom;
pos = (435,0);
},
{
name = top;
pos = (625,700);
}
);
layerId = "F0741901-C5E8-42E7-A5F2-E893972BE6B8";
shapes = (
{
closed = 1;
nodes = (
(597,-10,o),
(707,121,o),
(707,273,cs),
(707,700,l),
(541,700,l),
(541,290,ls),
(541,206,o),
(480,137,o),
(387,137,cs),
(290,137,o),
(244,206,o),
(214,246,c),
(109,138,l),
(127,109,o),
(211,-10,o),
(400,-10,cs)
);
}
);
userData = {
com.schriftgestaltung.Glyphs.glyph.rightMetricsKey = H;
};
width = 878;
}
);
metricRight = H;
},
{
color = 6;
glyphname = a;
kernLeft = c;
kernRight = a;
layers = (
{
anchors = (
{
name = bottom;
pos = (267,0);
},
{
name = ogonek;
pos = (476,0);
},
{
name = top;
pos = (267,525);
}
);
layerId = "5A878C7E-547A-4951-B48F-676DBBC9B762";
shapes = (
{
closed = 1;
nodes = (
(476,0,l),
(476,364,ls),
(476,473.333,o),
(400,536,o),
(280,536,cs),
(196,536,o),
(123.667,503,o),
(61,435,c),
(128,368,l),
(166.667,417.333,o),
(213.333,441,o),
(272,441,cs),
(336,441,o),
(383,400.667,o),
(383,342,cs),
(383,0,l)
);
},
{
closed = 1;
nodes = (
(303.333,-10,o),
(377.333,37.667,o),
(420,107,c),
(396,174,l),
(368,119.333,o),
(302,78,o),
(230,78,cs),
(180.667,78,o),
(145,107,o),
(145,151,cs),
(145,205.667,o),
(189.667,237,o),
(271,237,cs),
(421,237,l),
(430,319,l),
(284,319,ls),
(128,319,o),
(48,261,o),
(48,149,cs),
(48,53,o),
(124.667,-10,o),
(226,-10,cs)
);
}
);
width = 534;
},
{
anchors = (
{
name = bottom;
pos = (449,0);
},
{
name = ogonek;
pos = (758,0);
},
{
name = top;
pos = (449,525);
}
);
layerId = "649E0662-786D-44F6-8E8D-A6782F19FFAA";
shapes = (
{
closed = 1;
nodes = (
(758,0,l),
(758,304,ls),
(758,473,o),
(628,536,o),
(432,536,cs),
(316,536,o),
(221,496,o),
(149,445,c),
(206,374,l),
(269,423,o),
(357,442,o),
(430,442,cs),
(579,442,o),
(665,394,o),
(665,282,cs),
(665,0,l)
);
},
{
closed = 1;
nodes = (
(517,-10,o),
(649,51,o),
(702,107,c),
(678,174,l),
(630,125,o),
(509,78,o),
(392,78,cs),
(285,78,o),
(227,103,o),
(227,161,cs),
(227,220,o),
(304,237,o),
(453,237,cs),
(703,237,l),
(712,319,l),
(444,319,ls),
(277,319,o),
(130,292,o),
(130,149,cs),
(130,40,o),
(256,-10,o),
(388,-10,cs)
);
}
);
width = 968;
},
{
anchors = (
{
name = bottom;
pos = (269,0);
},
{
name = ogonek;
pos = (467,0);
},
{
name = top;
pos = (269,525);
}
);
layerId = "E41BA830-E06B-4916-8D61-039D08A6FFE2";
shapes = (
{
closed = 1;
nodes = (
(467,0,l),
(467,364,ls),
(467,470,o),
(394,531,o),
(274,531,cs),
(190,531,o),
(119,497,o),
(64,431,c),
(92,403,l),
(137,461,o),
(199,492,o),
(271,492,cs),
(370,492,o),
(429,441,o),
(429,361,cs),
(429,0,l)
);
},
{
closed = 1;
nodes = (
(320,-10,o),
(404,51,o),
(451,137,c),
(435,161,l),
(395,82,o),
(314,28,o),
(221,28,cs),
(145,28,o),
(81,77,o),
(81,149,cs),
(81,220,o),
(141,258,o),
(247,258,cs),
(443,258,l),
(446,295,l),
(255,295,ls),
(114,295,o),
(42,243,o),
(42,149,cs),
(42,53,o),
(118,-10,o),
(220,-10,cs)
);
}
);
width = 536.30232;
},
{
anchors = (
{
name = bottom;
pos = (451,0);
},
{
name = ogonek;
pos = (749,0);
},
{
name = top;
pos = (451,525);
}
);
layerId = "60FFA52A-095B-47EE-98E9-9B5B7A5F3F54";
shapes = (
{
closed = 1;
nodes = (
(749,0,l),
(749,304,ls),
(749,470,o),
(634,531,o),
(456,531,cs),
(329,531,o),
(231,499,o),
(152,441,c),
(173,412,l),
(246,464,o),
(344,493,o),
(445,493,cs),
(630,493,o),
(710,434,o),
(710,301,cs),
(710,0,l)
);
},
{
closed = 1;
nodes = (
(534,-10,o),
(675,63,o),
(733,137,c),
(717,161,l),
(657,87,o),
(521,27,o),
(384,27,cs),
(252,27,o),
(163,71,o),
(163,152,cs),
(163,244,o),
(293,258,o),
(429,258,cs),
(725,258,l),
(727,294,l),
(427,294,ls),
(278,294,o),
(124,276,o),
(124,149,cs),
(124,40,o),
(239,-10,o),
(382,-10,cs)
);
}
);
width = 970.30233;
},
{
anchors = (
{
name = bottom;
pos = (283,0);
},
{
name = ogonek;
pos = (488,0);
},
{
name = top;
pos = (283,531);
}
);
layerId = "C30A2D91-B9D3-4A88-AAF0-AD27EF9042EE";
shapes = (
{
closed = 1;
nodes = (
(509,0,l),
(509,357,ls),
(509,482,o),
(423,542,o),
(290,542,cs),
(192,542,o),
(109,502,o),
(45,437,c),
(141,344,l),
(178,388,o),
(217,406,o),
(269,406,cs),
(322,406,o),
(354,381,o),
(354,326,cs),
(354,0,l)
);
},
{
closed = 1;
nodes = (
(291,-10,o),
(361,38,o),
(403,106,c),
(375,178,l),
(353,135,o),
(306,108,o),
(254,108,cs),
(218,108,o),
(193,127,o),
(193,157,cs),
(193,193,o),
(224,213,o),
(279,213,cs),
(427,213,l),
(436,314,l),
(275,314,ls),
(118,314,o),
(38,258,o),
(38,149,cs),
(38,53,o),
(115,-10,o),
(216,-10,cs)
);
}
);
width = 565.57812;
},
{
anchors = (
{
name = bottom;
pos = (364,0);
},
{
name = ogonek;
pos = (614,0);
},
{
name = top;
pos = (364,531);
}
);
layerId = "F0741901-C5E8-42E7-A5F2-E893972BE6B8";
shapes = (
{
closed = 1;
nodes = (
(636,0,l),
(636,331,ls),
(636,481,o),
(525,542,o),
(358,542,cs),
(244,542,o),
(153,498,o),
(85,443,c),
(176,346,l),
(224,391,o),
(282,407,o),
(338,407,cs),
(430,407,o),
(480,378,o),
(480,299,cs),
(480,0,l)
);
},
{
closed = 1;
nodes = (
(387,-10,o),
(483,44,o),
(529,106,c),
(502,178,l),
(471,138,o),
(399,108,o),
(326,108,cs),
(265,108,o),
(230,126,o),
(230,161,cs),
(230,199,o),
(273,214,o),
(361,214,cs),
(553,214,l),
(563,315,l),
(347,315,ls),
(185,315,o),
(75,272,o),
(75,149,cs),
(75,47,o),
(175,-10,o),
(289,-10,cs)
);
}
);
width = 759.74404;
}
);
unicode = 97;
},
{
color = 6;
glyphname = ae;
kernLeft = ae;
kernRight = ae;
layers = (
{
anchors = (
{
name = bottom;
pos = (460,0);
},
{
name = top;
pos = (460,525);
}
);
layerId = "5A878C7E-547A-4951-B48F-676DBBC9B762";
shapes = (
{
closed = 1;
nodes = (
(311,-10,o),
(393,38,o),
(440,107,c),
(396,174,l),
(368,119,o),
(302,78,o),
(230,78,cs),
(181,78,o),
(145,107,o),
(145,151,cs),
(145,206,o),
(190,237,o),
(271,237,cs),
(868,237,l),
(869,281,ls),
(869,428,o),
(767,535,o),
(631,536,cs),
(491,536,o),
(383,420,o),
(383,257,cs),
(383,98,o),
(493,-10,o),
(654,-10,cs),
(727,-10,o),
(811,22,o),
(859,69,c),
(809,144,l),
(757,99,o),
(716,84,o),
(664,84,cs),
(557,84,o),
(476,159,o),
(476,264,cs),
(476,380,o),
(531,441,o),
(631,441,cs),
(699,441,o),
(757,391,o),
(764,326,c),
(764,302,l),
(779,319,l),
(284,319,ls),
(129,320,o),
(48,261,o),
(48,149,cs),
(48,53,o),
(125,-10,o),
(226,-10,cs)
);
},
{
closed = 1;
nodes = (
(476,263,l),
(476,388,ls),
(476,483,o),
(398,536,o),
(274,536,cs),
(191,536,o),
(118,500,o),
(61,435,c),
(128,368,l),
(167,417,o),
(213,441,o),
(272,441,cs),
(331,441,o),
(383,405,o),
(383,356,cs),
(383,257,l)
);
}
);
width = 909;
},
{
anchors = (
{
name = bottom;
pos = (682,0);
},
{
name = top;
pos = (682,525);
}
);
layerId = "649E0662-786D-44F6-8E8D-A6782F19FFAA";
shapes = (
{
closed = 1;
nodes = (
(521,-10,o),
(615,71,o),
(656,116,c),
(616,185,l),
(588,146,o),
(498,78,o),
(382,78,cs),
(298,78,o),
(227,100,o),
(227,157,cs),
(227,229,o),
(342,237,o),
(423,237,cs),
(1230,237,l),
(1231,281,ls),
(1231,432,o),
(1094,535,o),
(923,536,cs),
(750,536,o),
(585,432,o),
(585,257,cs),
(585,102,o),
(727,-10,o),
(946,-10,cs),
(1054,-10,o),
(1177,27,o),
(1221,60,c),
(1171,140,l),
(1132,107,o),
(1064,80,o),
(956,80,cs),
(813,80,o),
(678,137,o),
(678,264,cs),
(678,407,o),
(795,446,o),
(923,446,cs),
(1022,446,o),
(1115,399,o),
(1126,326,c),
(1126,302,l),
(1141,319,l),
(436,319,ls),
(282,320,o),
(130,303,o),
(130,149,cs),
(130,40,o),
(231,-10,o),
(378,-10,cs)
);
},
{
closed = 1;
nodes = (
(678,263,l),
(678,388,ls),
(678,501,o),
(538,536,o),
(426,536,cs),
(310,536,o),
(225,496,o),
(153,445,c),
(210,374,l),
(273,423,o),
(351,442,o),
(424,442,cs),
(489,442,o),
(585,400,o),
(585,336,cs),
(585,257,l)
);
}
);
width = 1376;
},
{
anchors = (
{
name = bottom;
pos = (470,0);
},
{
name = top;
pos = (470,525);
}
);
layerId = "E41BA830-E06B-4916-8D61-039D08A6FFE2";
shapes = (
{
closed = 1;
nodes = (
(325,-10,o),
(416,50,o),
(464,137,c),
(444,167,l),
(403,84,o),
(318,28,o),
(221,28,cs),
(144,28,o),
(81,77,o),
(81,149,cs),
(81,220,o),
(141,258,o),
(247,258,cs),
(900,258,l),
(902,289,l),
(902,436,o),
(807,530,o),
(673,530,cs),
(531,530,o),
(428,412,o),
(428,262,cs),
(428,103,o),
(534,-10,o),
(688,-10,cs),
(764,-10,o),
(830,20,o),
(879,66,c),
(858,97,l),
(811,52,o),
(756,29,o),
(691,29,cs),
(561,29,o),
(467,126,o),
(466,263,cs),
(467,399,o),
(548,491,o),
(676,491,cs),
(776,491,o),
(859,414,o),
(861,302,cs),
(861,279,l),
(872,295,l),
(255,295,ls),
(114,295,o),
(42,243,o),
(42,149,cs),
(42,53,o),
(118,-10,o),
(220,-10,cs)
);
},
{
closed = 1;
nodes = (
(466,273,l),
(466,370,ls),
(466,472,o),
(393,531,o),
(272,531,cs),
(189,531,o),
(118,496,o),
(62,429,c),
(90,402,l),
(136,461,o),
(199,492,o),
(271,492,cs),
(369,492,o),
(428,441,o),
(428,365,cs),
(428,272,l)
);
}
);
userData = {
com.schriftgestaltung.Glyphs.glyph.leftMetricsKey = a;
com.schriftgestaltung.Glyphs.glyph.rightMetricsKey = e;
};
width = 937;
},
{
anchors = (
{
name = bottom;
pos = (692,0);
},
{
name = top;
pos = (692,525);
}
);
layerId = "60FFA52A-095B-47EE-98E9-9B5B7A5F3F54";
shapes = (
{
closed = 1;
nodes = (
(501,-10,o),
(623,58,o),
(676,138,c),
(657,167,l),
(607,92,o),
(488,27,o),
(371,27,cs),
(240,27,o),
(163,71,o),
(163,152,cs),
(163,250,o),
(291,258,o),
(392,258,cs),
(1262,258,l),
(1264,289,l),
(1264,440,o),
(1135,531,o),
(966,531,cs),
(787,531,o),
(630,437,o),
(630,262,cs),
(630,105,o),
(767,-10,o),
(981,-10,cs),
(1085,-10,o),
(1162,12,o),
(1240,62,c),
(1224,99,l),
(1158,53,o),
(1082,29,o),
(983,29,cs),
(804,29,o),
(669,122,o),
(668,263,cs),
(669,409,o),
(793,494,o),
(968,494,cs),
(1101,494,o),
(1220,421,o),
(1222,302,cs),
(1222,279,l),
(1234,294,l),
(400,294,ls),
(262,295,o),
(124,279,o),
(124,149,cs),
(124,49,o),
(210,-10,o),
(369,-10,cs)
);
},
{
closed = 1;
nodes = (
(668,273,l),
(668,357,ls),
(668,487,o),
(551,531,o),
(424,531,cs),
(323,531,o),
(238,500,o),
(154,440,c),
(178,410,l),
(255,465,o),
(341,493,o),
(423,493,cs),
(543,493,o),
(630,445,o),
(630,344,cs),
(630,272,l)
);
}
);
userData = {
com.schriftgestaltung.Glyphs.glyph.leftMetricsKey = a;
com.schriftgestaltung.Glyphs.glyph.rightMetricsKey = e;
};
width = 1405;
},
{
anchors = (
{
name = bottom;
pos = (454,0);
},
{
name = top;
pos = (461,531);
}
);
layerId = "C30A2D91-B9D3-4A88-AAF0-AD27EF9042EE";
shapes = (
{
closed = 1;
nodes = (
(304,-10,o),
(389,30,o),
(431,94,c),
(379,178,l),
(356,135,o),
(310,108,o),
(257,108,cs),
(221,108,o),
(197,130,o),
(197,161,cs),
(197,201,o),
(226,225,o),
(281,225,cs),
(872,225,l),
(873,274,l),
(874,428,o),
(770,541,o),
(624,542,cs),
(475,542,o),
(363,425,o),
(363,262,cs),
(363,102,o),
(475,-10,o),
(650,-10,cs),
(722,-10,o),
(797,14,o),
(860,67,c),
(790,174,l),
(748,142,o),
(715,130,o),
(668,130,cs),
(567,130,o),
(504,190,o),
(504,275,cs),
(504,360,o),
(547,407,o),
(626,407,cs),
(679,407,o),
(719,372,o),
(723,324,cs),
(723,303,l),
(733,314,l),
(279,314,ls),
(121,315,o),
(38,258,o),
(38,149,cs),
(38,53,o),
(117,-10,o),
(220,-10,cs)
);
},
{
closed = 1;
nodes = (
(502,251,l),
(502,368,ls),
(502,486,o),
(420,542,o),
(293,542,cs),
(193,542,o),
(107,500,o),
(57,438,c),
(153,344,l),
(183,388,o),
(218,406,o),
(270,406,cs),
(325,406,o),
(360,383,o),
(360,333,cs),
(360,248,l)
);
}
);
userData = {
com.schriftgestaltung.Glyphs.glyph.leftMetricsKey = a;
com.schriftgestaltung.Glyphs.glyph.rightMetricsKey = e;
};
width = 904;
},
{
anchors = (
{
name = bottom;
pos = (631,0);
},
{
name = top;
pos = (638,531);
}
);
layerId = "F0741901-C5E8-42E7-A5F2-E893972BE6B8";
shapes = (
{
closed = 1;
nodes = (
(470,-10,o),
(569,65,o),
(605,104,c),
(554,194,l),
(531,170,o),
(462,121,o),
(364,121,cs),
(294,121,o),
(234,134,o),
(234,174,cs),
(234,225,o),
(333,228,o),
(389,228,cs),
(1188,228,l),
(1189,274,l),
(1192,432,o),
(1052,541,o),
(871,542,cs),
(689,542,o),
(520,437,o),
(520,262,cs),
(520,106,o),
(664,-10,o),
(896,-10,cs),
(1004,-10,o),
(1116,23,o),
(1173,61,c),
(1101,167,l),
(1069,146,o),
(1009,122,o),
(915,122,cs),
(778,122,o),
(661,167,o),
(661,275,cs),
(661,388,o),
(766,415,o),
(873,415,cs),
(957,415,o),
(1032,379,o),
(1040,324,cs),
(1040,303,l),
(1049,329,l),
(386,329,ls),
(229,330,o),
(75,301,o),
(75,149,cs),
(75,40,o),
(178,-10,o),
(327,-10,cs)
);
},
{
closed = 1;
nodes = (
(659,251,l),
(659,369,ls),
(659,504,o),
(515,542,o),
(399,542,cs),
(265,542,o),
(168,496,o),
(104,447,c),
(183,355,l),
(238,400,o),
(311,413,o),
(377,413,cs),
(437,413,o),
(517,378,o),
(517,313,cs),
(517,248,l)
);
}
);
userData = {
com.schriftgestaltung.Glyphs.glyph.leftMetricsKey = a;
com.schriftgestaltung.Glyphs.glyph.rightMetricsKey = e;
};
width = 1325;
}
);
metricLeft = a;
metricRight = e;
unicode = 230;
},
{
color = 6;
glyphname = b;
kernLeft = b;
kernRight = b;
layers = (
{
anchors = (
{
name = bottom;
pos = (315,0);
},
{
name = top;
pos = (315,740);
}
);
layerId = "5A878C7E-547A-4951-B48F-676DBBC9B762";
shapes = (
{
closed = 1;
nodes = (
(486.667,-10,o),
(590,106.667,o),
(590,264,cs),
(590,422.667,o),
(486.333,536,o),
(345,536,cs),
(259.667,536,o),
(171,474,o),
(159,414,c),
(175,405,l),
(175,740,l),
(72,740,l),
(72,3,l),
(175,3,l),
(175,131,l),
(149,117,l),
(163.667,55.667,o),
(256,-10,o),
(348,-10,cs)
);
},
{
closed = 1;
nodes = (
(237.667,84,o),
(170,160,o),
(170,264,cs),
(170,366.667,o),
(237.667,442,o),
(331,442,cs),
(424.333,442,o),
(491,366.667,o),
(491,264,cs),
(491,160,o),
(423,84,o),
(331,84,cs)
);
}
);
width = 630;
},
{
anchors = (
{
name = bottom;
pos = (528,0);
},
{
name = top;
pos = (528,740);
}
);
layerId = "649E0662-786D-44F6-8E8D-A6782F19FFAA";
shapes = (
{
closed = 1;
nodes = (
(733,-10,o),
(868,105,o),
(868,264,cs),
(868,423,o),
(728,536,o),
(553,536,cs),
(414,536,o),
(302,456,o),
(287,404,c),
(323,405,l),
(323,740,l),
(220,740,l),
(220,3,l),
(323,3,l),
(323,131,l),
(277,127,l),
(293,75,o),
(406,-10,o),
(546,-10,cs)
);
},
{
closed = 1;
nodes = (
(404,86,o),
(308,164,o),
(308,264,cs),
(308,365,o),
(404,441,o),
(539,441,cs),
(672,441,o),
(768,365,o),
(768,264,cs),
(768,164,o),
(672,86,o),
(539,86,cs)
);
}
);
width = 998;
},
{
anchors = (
{
name = bottom;
pos = (304,0);
},
{
name = top;
pos = (304,740);
}
);
layerId = "E41BA830-E06B-4916-8D61-039D08A6FFE2";
shapes = (
{
closed = 1;
nodes = (
(458,-10,o),
(569,105,o),
(569,262,cs),
(569,419,o),
(462,531,o),
(317,531,cs),
(213,531,o),
(124,458,o),
(101,361,c),
(111,361,l),
(111,740,l),
(70,740,l),
(70,1,l),
(110,1,l),
(111,158,l),
(100,158,l),
(118,65,o),
(217,-10,o),
(321,-10,cs)
);
},
{
closed = 1;
nodes = (
(198,29,o),
(110,126,o),
(110,261,cs),
(110,397,o),
(198,492,o),
(315,492,cs),
(441,492,o),
(529,395,o),
(529,262,cs),
(529,127,o),
(440,29,o),
(315,29,cs)
);
}
);
userData = {
com.schriftgestaltung.Glyphs.glyph.leftMetricsKey = n;
com.schriftgestaltung.Glyphs.glyph.rightMetricsKey = o;
};
width = 608.51163;
},
{
anchors = (
{
name = bottom;
pos = (515,0);
},
{
name = top;
pos = (515,740);
}
);
layerId = "60FFA52A-095B-47EE-98E9-9B5B7A5F3F54";
shapes = (
{
closed = 1;
nodes = (
(709,-10,o),
(841,107,o),
(841,263,cs),
(841,421,o),
(713,536,o),
(536,536,cs),
(396,536,o),
(291,472,o),
(242,356,c),
(259,357,l),
(259,740,l),
(218,740,l),
(218,1,l),
(258,1,l),
(259,171,l),
(239,171,l),
(284,54,o),
(394,-10,o),
(534,-10,cs)
);
},
{
closed = 1;
nodes = (
(369,29,o),
(258,125,o),
(256,265,cs),
(257,395,o),
(366,497,o),
(533,497,cs),
(687,497,o),
(802,397,o),
(801,263,cs),
(800,126,o),
(684,29,o),
(533,29,cs)
);
}
);
userData = {
com.schriftgestaltung.Glyphs.glyph.leftMetricsKey = n;
com.schriftgestaltung.Glyphs.glyph.rightMetricsKey = o;
};
width = 971.13953;
},
{
anchors = (
{
name = bottom;
pos = (329,0);
},
{
name = top;
pos = (329,740);
}
);
layerId = "C30A2D91-B9D3-4A88-AAF0-AD27EF9042EE";
shapes = (
{
closed = 1;
nodes = (
(524,-10,o),
(624,105,o),
(624,265,cs),
(624,425,o),
(523,542,o),
(386,542,cs),
(298,542,o),
(215,484,o),
(200,418,c),
(233,407,l),
(233,740,l),
(71,740,l),
(71,2,l),
(221,2,l),
(230,123,l),
(195,111,l),
(209,47,o),
(295,-10,o),
(390,-10,cs)
);
},
{
closed = 1;
nodes = (
(275,125,o),
(228,181,o),
(228,265,cs),
(228,350,o),
(275,406,o),
(348,406,cs),
(420,406,o),
(467,350,o),
(467,265,cs),
(467,181,o),
(419,125,o),
(348,125,cs)
);
}
);
userData = {
com.schriftgestaltung.Glyphs.glyph.leftMetricsKey = n;
com.schriftgestaltung.Glyphs.glyph.rightMetricsKey = o;
};
width = 658.089;
},
{
anchors = (
{
name = bottom;
pos = (532,0);
},
{
name = top;
pos = (532,740);
}
);
layerId = "F0741901-C5E8-42E7-A5F2-E893972BE6B8";
shapes = (
{
closed = 1;
nodes = (
(761,-10,o),
(892,104,o),
(892,265,cs),
(892,425,o),
(755,542,o),
(583,542,cs),
(442,542,o),
(334,464,o),
(317,408,c),
(371,407,l),
(371,740,l),
(209,740,l),
(209,2,l),
(359,2,l),
(368,122,l),
(313,120,l),
(326,67,o),
(434,-10,o),
(577,-10,cs)
);
},
{
closed = 1;
nodes = (
(432,127,o),
(355,185,o),
(355,265,cs),
(355,349,o),
(432,405,o),
(545,405,cs),
(658,405,o),
(734,349,o),
(734,265,cs),
(734,185,o),
(659,127,o),
(545,127,cs)
);
}
);
userData = {
com.schriftgestaltung.Glyphs.glyph.leftMetricsKey = n;
com.schriftgestaltung.Glyphs.glyph.rightMetricsKey = o;
};
width = 1021.86024;
}
);
metricLeft = n;
metricRight = o;
unicode = 98;
},
{
color = 6;
glyphname = c;
kernLeft = c;
kernRight = c;
layers = (
{
anchors = (
{
name = bottom;
pos = (296,0);
},
{
name = top;
pos = (295,525);
}
);
layerId = "5A878C7E-547A-4951-B48F-676DBBC9B762";
shapes = (
{
closed = 1;
nodes = (
(380.333,-10,o),
(467.333,33,o),
(510,93,c),
(453,163,l),
(410.333,111,o),
(359.333,83,o),
(306,83,cs),
(214,83,o),
(138,161.667,o),
(138,263,cs),
(138,365.667,o),
(209,443,o),
(305,443,cs),
(357,443,o),
(421,406.667,o),
(453,360,c),
(510,430,l),
(470,495.333,o),
(388.333,536,o),
(295,536,cs),
(149.667,536,o),
(40,417.667,o),
(40,263,cs),
(40,108.333,o),
(149.667,-10,o),
(295,-10,cs)
);
}
);
width = 535;
},
{
anchors = (
{
name = bottom;
pos = (456,0);
},
{
name = top;
pos = (454,525);
}
);
layerId = "649E0662-786D-44F6-8E8D-A6782F19FFAA";
shapes = (
{
closed = 1;
nodes = (
(580,-10,o),
(675,31,o),
(750,76,c),
(694,156,l),
(638,123,o),
(564,83,o),
(456,83,cs),
(335,83,o),
(238,159,o),
(238,263,cs),
(238,367,o),
(326,443,o),
(455,443,cs),
(540,443,o),
(637,402,o),
(692,350,c),
(750,434,l),
(690,498,o),
(578,536,o),
(455,536,cs),
(271,536,o),
(130,418,o),
(130,263,cs),
(130,108,o),
(271,-10,o),
(455,-10,cs)
);
}
);
width = 880;
},
{
anchors = (
{
name = bottom;
pos = (304,0);
},
{
name = top;
pos = (304,525);
}
);
layerId = "E41BA830-E06B-4916-8D61-039D08A6FFE2";
shapes = (
{
closed = 1;
nodes = (
(387,-10,o),
(458,25,o),
(505,80,c),
(480,110,l),
(436,59,o),
(376,29,o),
(306,29,cs),
(176,29,o),
(81,127,o),
(80,263,cs),
(81,397,o),
(175,492,o),
(306,492,cs),
(376,492,o),
(439,460,o),
(481,410,c),
(507,440,l),
(461,497,o),
(390,531,o),
(304,531,cs),
(150,531,o),
(40,419,o),
(40,263,cs),
(40,105,o),
(149.99,-10,o),
(304,-10,cs)
);
}
);
userData = {
com.schriftgestaltung.Glyphs.glyph.leftMetricsKey = o;
};
width = 528.09302;
},
{
anchors = (
{
name = bottom;
pos = (464,0);
},
{
name = top;
pos = (462,525);
}
);
layerId = "60FFA52A-095B-47EE-98E9-9B5B7A5F3F54";
shapes = (
{
closed = 1;
nodes = (
(587,-10,o),
(673,23,o),
(745,64,c),
(724,98,l),
(668,66,o),
(591,29,o),
(456,29,cs),
(302,29,o),
(172,122,o),
(172,263,cs),
(172,397,o),
(290,497,o),
(456,497,cs),
(577,497,o),
(671,453,o),
(724,411,c),
(747,444,l),
(674,500,o),
(571,536,o),
(463,536,cs),
(271,536,o),
(130,419,o),
(130,263,cs),
(130,105,o),
(268,-10,o),
(463,-10,cs)
);
}
);
userData = {
com.schriftgestaltung.Glyphs.glyph.leftMetricsKey = o;
};
width = 873.09302;
},
{
anchors = (
{
name = bottom;
pos = (305,0);
},
{
name = top;
pos = (304,531);
}
);
layerId = "C30A2D91-B9D3-4A88-AAF0-AD27EF9042EE";
shapes = (
{
closed = 1;
nodes = (
(394,-10,o),
(482,27,o),
(528,83,c),
(441,189,l),
(409,152,o),
(370,131,o),
(318,131,cs),
(245,131,o),
(191,190,o),
(191,266,cs),
(191,344,o),
(243,402,o),
(319,402,cs),
(368,402,o),
(415,375,o),
(441,341,c),
(528,447,l),
(483,506,o),
(398,542,o),
(304,542,cs),
(149,542,o),
(34,424,o),
(34,265,cs),
(34,108,o),
(149,-10,o),
(304,-10,cs)
);
}
);
userData = {
com.schriftgestaltung.Glyphs.glyph.leftMetricsKey = o;
};
width = 545.27876;
},
{
anchors = (
{
name = bottom;
pos = (471,0);
},
{
name = top;
pos = (468,531);
}
);
layerId = "F0741901-C5E8-42E7-A5F2-E893972BE6B8";
shapes = (
{
closed = 1;
nodes = (
(600,-10,o),
(695,25,o),
(774,66,c),
(687,182,l),
(642,159,o),
(579,131,o),
(481,131,cs),
(370,131,o),
(297,187,o),
(297,266,cs),
(297,346,o),
(366,402,o),
(482,402,cs),
(556,402,o),
(635,370,o),
(685,330,c),
(774,450,l),
(702,509,o),
(594,542,o),
(469,542,cs),
(276,542,o),
(130,424,o),
(130,265,cs),
(130,108,o),
(276,-10,o),
(479,-10,cs)
);
}
);
userData = {
com.schriftgestaltung.Glyphs.glyph.leftMetricsKey = o;
};
width = 895.77401;
}
);
metricLeft = o;
unicode = 99;
},
{
color = 6;
glyphname = d;
kernLeft = c;
kernRight = d;
layers = (
{
anchors = (
{
name = bottom;
pos = (317,0);
},
{
name = center;
pos = (500,634);
},
{
name = top;
pos = (317,740);
},
{
name = topright;
pos = (594,740);
}
);
layerId = "5A878C7E-547A-4951-B48F-676DBBC9B762";
shapes = (
{
closed = 1;
nodes = (
(388.333,-10,o),
(481,62.333,o),
(481,125,c),
(461,125,l),
(461,0,l),
(564,0,l),
(564,740,l),
(461,740,l),
(461,389,l),
(491,391,l),
(491,460.333,o),
(393.333,536,o),
(288,536,cs),
(146.667,536,o),
(40,420.333,o),
(40,263,cs),
(40,105.667,o),
(147,-10,o),
(291,-10,cs)
);
},
{
closed = 1;
nodes = (
(211.667,79,o),
(145,156.333,o),
(145,263,cs),
(145,369.667,o),
(211.667,447,o),
(305,447,cs),
(398.333,447,o),
(465,369.667,o),
(465,263,cs),
(465,156.333,o),
(398.333,79,o),
(305,79,cs)
);
}
);
width = 634;
},
{
anchors = (
{
name = bottom;
pos = (467,0);
},
{
name = center;
pos = (661,634);
},
{
name = top;
pos = (467,740);
},
{
name = topright;
pos = (834,740);
}
);
layerId = "649E0662-786D-44F6-8E8D-A6782F19FFAA";
shapes = (
{
closed = 1;
nodes = (
(573,-10,o),
(701,76,o),
(701,137,c),
(681,145,l),
(681,0,l),
(784,0,l),
(784,740,l),
(681,740,l),
(681,389,l),
(711,391,l),
(711,454,o),
(593,536,o),
(438,536,cs),
(251,536,o),
(120,422,o),
(120,263,cs),
(120,104,o),
(241,-10,o),
(432,-10,cs)
);
},
{
closed = 1;
nodes = (
(320,85,o),
(225,162,o),
(225,263,cs),
(225,363,o),
(320,440,o),
(455,440,cs),
(591,440,o),
(685,363,o),
(685,263,cs),
(685,162,o),
(591,85,o),
(455,85,cs)
);
}
);
width = 964;
},
{
anchors = (
{
name = bottom;
pos = (305,0);
},
{
name = center;
pos = (501,634);
},
{
name = top;
pos = (305,740);
},
{
name = topright;
pos = (554,740);
}
);
layerId = "E41BA830-E06B-4916-8D61-039D08A6FFE2";
shapes = (
{
closed = 1;
nodes = (
(399,-10,o),
(490,66,o),
(510,164,c),
(499,161,l),
(499,0,l),
(540,0,l),
(540,740,l),
(499,740,l),
(499,362,l),
(510,360,l),
(496,454,o),
(396,531,o),
(290,531,cs),
(151,531,o),
(40,416,o),
(40,259,cs),
(40,103,o),
(147,-10,o),
(293,-10,cs)
);
},
{
closed = 1;
nodes = (
(168,28,o),
(81,126,o),
(81,259,cs),
(81,395,o),
(169,494,o),
(294,494,cs),
(413,494,o),
(500,396,o),
(500,261,cs),
(500,123,o),
(412,28,o),
(296,28,cs)
);
}
);
width = 610.97674;
},
{
anchors = (
{
name = bottom;
pos = (457,0);
},
{
name = center;
pos = (661,634);
},
{
name = top;
pos = (457,740);
},
{
name = topright;
pos = (806,740);
}
);
layerId = "60FFA52A-095B-47EE-98E9-9B5B7A5F3F54";
shapes = (
{
closed = 1;
nodes = (
(573,-10,o),
(686,54,o),
(727,173,c),
(713,174,l),
(715,0,l),
(754,0,l),
(754,740,l),
(713,740,l),
(713,353,l),
(729,353,l),
(683,472,o),
(578,536,o),
(433,536,cs),
(254,536,o),
(128,420,o),
(128,263,cs),
(128,106,o),
(256,-10,o),
(432,-10,cs)
);
},
{
closed = 1;
nodes = (
(285,29,o),
(170,125,o),
(169,263,cs),
(168,397,o),
(283,497,o),
(437,497,cs),
(605,497,o),
(713,394,o),
(714,265,cs),
(712,124,o),
(601,29,o),
(437,29,cs)
);
}
);
width = 964.76744;
},
{
anchors = (
{
name = bottom;
pos = (328,0);
},
{
name = center;
pos = (481,634);
},
{
name = top;
pos = (328,740);
},
{
name = topright;
pos = (626,740);
}
);
layerId = "C30A2D91-B9D3-4A88-AAF0-AD27EF9042EE";
shapes = (
{
closed = 1;
nodes = (
(371,-10,o),
(457,49,o),
(463,114,c),
(431,120,l),
(440,0,l),
(590,0,l),
(590,740,l),
(429,740,l),
(429,398,l),
(468,407,l),
(458,478,o),
(371,542,o),
(274,542,cs),
(136,542,o),
(34,425,o),
(34,265,cs),
(34,104,o),
(136,-10,o),
(273,-10,cs)
);
},
{
closed = 1;
nodes = (
(241,123,o),
(194,179,o),
(194,265,cs),
(194,352,o),
(241,408,o),
(313,408,cs),
(386,408,o),
(433,352,o),
(433,265,cs),
(433,179,o),
(386,123,o),
(313,123,cs)
);
}
);
width = 654.37192;
},
{
anchors = (
{
name = bottom;
pos = (478,0);
},
{
name = center;
pos = (642,634);
},
{
name = top;
pos = (478,740);
},
{
name = topright;
pos = (866,740);
}
);
layerId = "F0741901-C5E8-42E7-A5F2-E893972BE6B8";
shapes = (
{
closed = 1;
nodes = (
(556,-10,o),
(678,65,o),
(683,126,c),
(651,140,l),
(660,0,l),
(810,0,l),
(810,740,l),
(649,740,l),
(649,399,l),
(688,407,l),
(681,470,o),
(571,542,o),
(425,542,cs),
(241,542,o),
(114,427,o),
(114,265,cs),
(114,103,o),
(229,-10,o),
(414,-10,cs)
);
},
{
closed = 1;
nodes = (
(350,129,o),
(274,185,o),
(274,265,cs),
(274,345,o),
(350,400,o),
(464,400,cs),
(579,400,o),
(653,345,o),
(653,265,cs),
(653,185,o),
(579,129,o),
(464,129,cs)
);
}
);
width = 983.28943;
}
);
unicode = 100;
},
{
color = 6;
glyphname = eth;
kernLeft = c;
kernRight = D;
layers = (
{
layerId = "5A878C7E-547A-4951-B48F-676DBBC9B762";
shapes = (
{
closed = 1;
nodes = (
(431,-7,o),
(534,110.333,o),
(534,281,cs),
(534,525,o),
(408.333,692,o),
(211,740,c),
(169,662,l),
(341,610,o),
(410,533.667,o),
(418,379,c),
(468,348,l),
(446.667,458.667,o),
(375,528,o),
(275,528,cs),
(151,528,o),
(40,406,o),
(40,262,cs),
(40,111.333,o),
(149.667,-7,o),
(287,-7,cs)
);
},
{
closed = 1;
nodes = (
(203,89,o),
(137,164.667,o),
(137,262,cs),
(137,358,o),
(203,432,o),
(287,432,cs),
(371,432,o),
(437,356.667,o),
(437,262,cs),
(437,164.667,o),
(371,89,o),
(287,89,cs)
);
},
{
closed = 1;
nodes = (
(353,574,l),
(394,591,l),
(507,617,l),
(489,683,l),
(343,650,l),
(288,630,l),
(143,593,l),
(156,528,l)
);
}
);
width = 574;
},
{
layerId = "649E0662-786D-44F6-8E8D-A6782F19FFAA";
shapes = (
{
closed = 1;
nodes = (
(628,-7,o),
(774,103,o),
(774,283,cs),
(774,480,o),
(584,680,o),
(471,740,c),
(419,672,l),
(550,583,o),
(664,456,o),
(664,335,c),
(698,348,l),
(673,447,o),
(583,528,o),
(435,528,cs),
(264,528,o),
(130,410,o),
(130,262,cs),
(130,113,o),
(251,-7,o),
(447,-7,cs)
);
},
{
closed = 1;
nodes = (
(330,79,o),
(235,159,o),
(235,262,cs),
(235,363,o),
(325,442,o),
(437,442,cs),
(568,442,o),
(667,359,o),
(667,262,cs),
(667,159,o),
(570,79,o),
(447,79,cs)
);
},
{
closed = 1;
nodes = (
(583,574,l),
(624,591,l),
(737,597,l),
(719,663,l),
(573,650,l),
(518,630,l),
(373,613,l),
(386,548,l)
);
}
);
width = 904;
},
{
layerId = "E41BA830-E06B-4916-8D61-039D08A6FFE2";
shapes = (
{
closed = 1;
nodes = (
(432,-9,o),
(536,106,o),
(536,265,cs),
(536,532,o),
(410,695,o),
(211,739,c),
(193,705,l),
(356,671,o),
(480,533,o),
(482,373,c),
(501,365,l),
(489,445,o),
(396,527,o),
(288,527,cs),
(147,527,o),
(40,418,o),
(40,263,cs),
(40,104,o),
(143,-9,o),
(288,-9,cs)
);
},
{
closed = 1;
nodes = (
(167,30,o),
(80,127,o),
(80,263,cs),
(80,395,o),
(167,488,o),
(288,488,cs),
(409,488,o),
(495,394,o),
(495,263,cs),
(495,127,o),
(409,30,o),
(288,30,cs)
);
},
{
closed = 1;
nodes = (
(374,620,l),
(395,626,l),
(496,652,l),
(487,684,l),
(367,652,l),
(344,646,l),
(156,595,l),
(162,563,l)
);
}
);
userData = {
com.schriftgestaltung.Glyphs.glyph.leftMetricsKey = o;
com.schriftgestaltung.Glyphs.glyph.rightMetricsKey = o;
};
width = 575.53489;
},
{
layerId = "60FFA52A-095B-47EE-98E9-9B5B7A5F3F54";
shapes = (
{
closed = 1;
nodes = (
(636,-9,o),
(776,104,o),
(776,266,cs),
(776,487,o),
(586,683,o),
(471,739,c),
(444,715,l),
(576,644,o),
(734,458,o),
(728,329,c),
(746,336,l),
(715,445,o),
(603,527,o),
(437,527,cs),
(259,527,o),
(130,415,o),
(130,263,cs),
(130,106,o),
(260,-9,o),
(448,-9,cs)
);
},
{
closed = 1;
nodes = (
(289,28,o),
(171,126,o),
(171,263,cs),
(171,394,o),
(284,490,o),
(438,490,cs),
(609,490,o),
(733,394,o),
(733,263,cs),
(733,126,o),
(612,28,o),
(448,28,cs)
);
},
{
closed = 1;
nodes = (
(590,612,l),
(611,618,l),
(725,632,l),
(717,664,l),
(584,645,l),
(561,638,l),
(386,615,l),
(392,583,l)
);
}
);
userData = {
com.schriftgestaltung.Glyphs.glyph.leftMetricsKey = o;
com.schriftgestaltung.Glyphs.glyph.rightMetricsKey = o;
};
width = 905.53488;
},
{
layerId = "C30A2D91-B9D3-4A88-AAF0-AD27EF9042EE";
shapes = (
{
closed = 1;
nodes = (
(455,-7,o),
(562,114,o),
(562,288,cs),
(562,530,o),
(427,694,o),
(217,746,c),
(168,643,l),
(320,597,o),
(374,525,o),
(383,379,c),
(478,347,l),
(458,453,o),
(385,517,o),
(286,517,cs),
(153,517,o),
(34,396,o),
(34,256,cs),
(34,109,o),
(145,-7,o),
(297,-7,cs)
);
},
{
closed = 1;
nodes = (
(234,130,o),
(184,188,o),
(184,262,cs),
(184,335,o),
(234,391,o),
(298,391,cs),
(362,391,o),
(411.991,334,o),
(412,262,cs),
(412,188,o),
(362,130,o),
(298,130,cs)
);
},
{
closed = 1;
nodes = (
(360,565,l),
(404,590,l),
(518,616,l),
(499,683,l),
(352,650,l),
(294,623,l),
(137,583,l),
(150,516,l)
);
}
);
userData = {
com.schriftgestaltung.Glyphs.glyph.leftMetricsKey = o;
com.schriftgestaltung.Glyphs.glyph.rightMetricsKey = o;
};
width = 596.16333;
},
{
layerId = "F0741901-C5E8-42E7-A5F2-E893972BE6B8";
shapes = (
{
closed = 1;
nodes = (
(657,-7,o),
(807,105,o),
(807,291,cs),
(807,485,o),
(609,682,o),
(482,746,c),
(423,653,l),
(534,570,o),
(634,447,o),
(634,335,c),
(696,349,l),
(672,440,o),
(599,517,o),
(452,517,cs),
(272,517,o),
(130,402,o),
(130,256,cs),
(130,111,o),
(251,-7,o),
(463,-7,cs)
);
},
{
closed = 1;
nodes = (
(365,120,o),
(287,182,o),
(287,262,cs),
(287,340,o),
(361,402,o),
(454,402,cs),
(564,402,o),
(647,338,o),
(647,262,cs),
(647,182,o),
(568,120,o),
(464,120,cs)
);
},
{
closed = 1;
nodes = (
(595,573,l),
(638,599,l),
(751,608,l),
(730,675,l),
(584,657,l),
(526,629,l),
(370,602,l),
(386,536,l)
);
}
);
userData = {
com.schriftgestaltung.Glyphs.glyph.leftMetricsKey = o;
com.schriftgestaltung.Glyphs.glyph.rightMetricsKey = o;
};
width = 937.05761;
}
);
metricLeft = o;
metricRight = o;
unicode = 240;
},
{
color = 3;
glyphname = dcroat;
kernLeft = c;
kernRight = d;
layers = (
{
layerId = "5A878C7E-547A-4951-B48F-676DBBC9B762";
shapes = (
{
closed = 1;
nodes = (
(634,589,l),
(634,679,l),
(366,679,l),
(366,589,l)
);
},
{
ref = d;
}
);
width = 634;
},
{
layerId = "649E0662-786D-44F6-8E8D-A6782F19FFAA";
shapes = (
{
closed = 1;
nodes = (
(865,591,l),
(865,677,l),
(457,677,l),
(457,591,l)
);
},
{
ref = d;
}
);
width = 964;
},
{
layerId = "E41BA830-E06B-4916-8D61-039D08A6FFE2";
shapes = (
{
closed = 1;
nodes = (
(635,615,l),
(635,652,l),
(367,652,l),
(367,615,l)
);
},
{
alignment = -1;
ref = d;
}
);
width = 610.97674;
},
{
layerId = "60FFA52A-095B-47EE-98E9-9B5B7A5F3F54";
shapes = (
{
closed = 1;
nodes = (
(865,617,l),
(865,650,l),
(457,650,l),
(457,617,l)
);
},
{
alignment = -1;
ref = d;
}
);
width = 964.76744;
},
{
layerId = "C30A2D91-B9D3-4A88-AAF0-AD27EF9042EE";
shapes = (
{
closed = 1;
nodes = (
(642,574,l),
(642,694,l),
(318,694,l),
(318,574,l)
);
},
{
alignment = -1;
ref = d;
}
);
width = 654.37192;
},
{
layerId = "F0741901-C5E8-42E7-A5F2-E893972BE6B8";
shapes = (
{
closed = 1;
nodes = (
(873,576,l),
(873,692,l),
(410,692,l),
(410,576,l)
);
},
{
alignment = -1;
ref = d;
}
);
width = 983.28943;
}
);
unicode = 273;
},
{
color = 6;
glyphname = e;
kernLeft = c;
kernRight = e;
layers = (
{
anchors = (
{
name = bottom;
pos = (317,0);
},
{
name = ogonek;
pos = (499,0);
},
{
name = top;
pos = (308,525);
}
);
layerId = "5A878C7E-547A-4951-B48F-676DBBC9B762";
shapes = (
{
closed = 1;
nodes = (
(391.049,-10,o),
(475.168,23.524,o),
(524,71,c),
(472,144,l),
(420,98.667,o),
(379,84,o),
(327,84,cs),
(216.333,84,o),
(142,154.667,o),
(142,264,cs),
(142,380,o),
(200,442,o),
(308,442,cs),
(376,442,o),
(434.333,392.333,o),
(441,327,c),
(441,303,l),
(456,320,l),
(93,320,l),
(116,238,l),
(545,238,l),
(546,282,ls),
(549,429,o),
(444,535.667,o),
(308,537,cs),
(152,535.667,o),
(40,422.333,o),
(40,257,cs),
(40,101,o),
(154.333,-10,o),
(317,-10,cs)
);
}
);
width = 586;
},
{
anchors = (
{
name = bottom;
pos = (476,0);
},
{
name = ogonek;
pos = (711,0);
},
{
name = top;
pos = (468,525);
}
);
layerId = "649E0662-786D-44F6-8E8D-A6782F19FFAA";
shapes = (
{
closed = 1;
nodes = (
(589,-10,o),
(702,28,o),
(762,69,c),
(717,147,l),
(673,122,o),
(605,86,o),
(497,86,cs),
(334,86,o),
(222,156,o),
(222,264,cs),
(222,395,o),
(331,442,o),
(468,442,cs),
(572,442,o),
(670,395,o),
(681,327,c),
(681,303,l),
(696,310,l),
(193,310,l),
(216,228,l),
(785,228,l),
(786,282,ls),
(789,433,o),
(643,536,o),
(468,537,cs),
(281,536,o),
(120,432,o),
(120,257,cs),
(120,102,o),
(268,-10,o),
(477,-10,cs)
);
}
);
width = 931;
},
{
anchors = (
{
name = bottom;
pos = (302,0);
},
{
name = ogonek;
pos = (474,0);
},
{
name = top;
pos = (291,525);
}
);
layerId = "E41BA830-E06B-4916-8D61-039D08A6FFE2";
shapes = (
{
closed = 1;
nodes = (
(377,-10,o),
(444,20,o),
(493,66,c),
(472,97,l),
(424,52,o),
(369,29,o),
(304,29,cs),
(173,29,o),
(82,125,o),
(81,263,cs),
(82,399,o),
(163,492,o),
(292,492,cs),
(393,492,o),
(476,415,o),
(477,303,c),
(476,278,l),
(488,295,l),
(62,295,l),
(67,258,l),
(518,258,l),
(519,289,ls),
(524,436,o),
(424,531,o),
(291,531,cs),
(143,531,o),
(40,420,o),
(40,262,cs),
(40,104,o),
(147,-10,o),
(301,-10,cs)
);
}
);
width = 554.53489;
},
{
anchors = (
{
name = bottom;
pos = (470,0);
},
{
name = ogonek;
pos = (714,8);
},
{
name = top;
pos = (450,525);
}
);
layerId = "60FFA52A-095B-47EE-98E9-9B5B7A5F3F54";
shapes = (
{
closed = 1;
nodes = (
(584,-10,o),
(658,18,o),
(731,64,c),
(717,100,l),
(663,66,o),
(591,31,o),
(474,31,cs),
(291,31,o),
(161,127,o),
(161,263,cs),
(161,414,o),
(294,497,o),
(453,497,cs),
(594,497,o),
(715,420,o),
(717,302,cs),
(717,278,l),
(728,285,l),
(146,285,l),
(152,249,l),
(757,249,l),
(758,289,ls),
(762,440,o),
(622,536,o),
(450,536,cs),
(273,536,o),
(120,429,o),
(120,262,cs),
(120,105,o),
(258,-10,o),
(470,-10,cs)
);
}
);
width = 899.53488;
},
{
anchors = (
{
name = bottom;
pos = (324,0);
},
{
name = ogonek;
pos = (516,6);
},
{
name = top;
pos = (305,531);
}
);
layerId = "C30A2D91-B9D3-4A88-AAF0-AD27EF9042EE";
shapes = (
{
closed = 1;
nodes = (
(397,-10,o),
(472,15,o),
(535,68,c),
(460,174,l),
(419,142,o),
(386,130,o),
(342,130,cs),
(243,130,o),
(185,188,o),
(185,275,cs),
(185,360,o),
(228,407,o),
(308,407,cs),
(362,407,o),
(403,372,o),
(407,323,c),
(407,303,l),
(424,321,l),
(109,321,l),
(133,230,l),
(555,230,l),
(556,274,ls),
(559,429,o),
(453,542,o),
(305,542,cs),
(148,542,o),
(34,427,o),
(34,262,cs),
(34,104,o),
(147,-10,o),
(324,-10,cs)
);
}
);
width = 587.26422;
},
{
anchors = (
{
name = bottom;
pos = (485,0);
},
{
name = ogonek;
pos = (727,5);
},
{
name = top;
pos = (465,531);
}
);
layerId = "F0741901-C5E8-42E7-A5F2-E893972BE6B8";
shapes = (
{
closed = 1;
nodes = (
(595,-10,o),
(699,19,o),
(774,66,c),
(705,169,l),
(673,154,o),
(612,125,o),
(512,125,cs),
(361,125,o),
(265,189,o),
(265,275,cs),
(265,375,o),
(359,412,o),
(468,412,cs),
(557,412,o),
(639,375,o),
(647,324,cs),
(647,303,l),
(664,326,l),
(210,326,l),
(234,225,l),
(795,225,l),
(796,274,ls),
(799,433,o),
(652,542,o),
(465,542,cs),
(277,542,o),
(114,436,o),
(114,262,cs),
(114,105,o),
(262,-10,o),
(484,-10,cs)
);
}
);
width = 932.43279;
}
);
unicode = 101;
},
{
color = 3;
glyphname = eogonek;
kernLeft = c;
kernRight = e;
layers = (
{
anchors = (
{
name = top;
pos = (293,525);
}
);
layerId = "5A878C7E-547A-4951-B48F-676DBBC9B762";
shapes = (
{
closed = 1;
nodes = (
(444,-200,o),
(487,-171,o),
(505,-138,c),
(449,-98,l),
(437,-114,o),
(427,-123,o),
(409,-123,cs),
(386,-123,o),
(370,-106,o),
(370,-81,cs),
(370,-38,o),
(410,-1,o),
(491,45,c),
(469,80,l),
(365,35,o),
(279,-11,o),
(279,-101,cs),
(279,-155,o),
(320,-200,o),
(392,-200,cs)
);
},
{
ref = e;
}
);
width = 586;
},
{
anchors = (
{
name = top;
pos = (466,525);
}
);
layerId = "649E0662-786D-44F6-8E8D-A6782F19FFAA";
shapes = (
{
closed = 1;
nodes = (
(664,-200,o),
(707,-171,o),
(725,-138,c),
(669,-98,l),
(658,-114,o),
(646,-123,o),
(624,-123,cs),
(601,-123,o),
(587,-107,o),
(587,-84,cs),
(587,-33,o),
(635,3,o),
(731,51,c),
(709,86,l),
(593,40,o),
(496,-9,o),
(496,-102,cs),
(496,-155,o),
(539,-200,o),
(612,-200,cs)
);
},
{
ref = e;
}
);
width = 931;
},
{
anchors = (
{
name = top;
pos = (277,525);
}
);
layerId = "E41BA830-E06B-4916-8D61-039D08A6FFE2";
shapes = (
{
closed = 1;
nodes = (
(443,-224,o),
(478,-201,o),
(494,-169,c),
(469,-149,l),
(455,-174,o),
(436,-190,o),
(407,-190,cs),
(370,-190,o),
(342,-159,o),
(342,-117,cs),
(342,-62,o),
(387,-7,o),
(469,47,c),
(460,67,l),
(371,16,o),
(303,-42,o),
(303,-124,cs),
(303,-181,o),
(347,-224,o),
(403,-224,cs)
);
},
{
alignment = -1;
ref = e;
}
);
width = 554.53489;
},
{
anchors = (
{
name = top;
pos = (450,525);
}
);
layerId = "60FFA52A-095B-47EE-98E9-9B5B7A5F3F54";
shapes = (
{
closed = 1;
nodes = (
(661,-225,o),
(697,-201,o),
(714,-169,c),
(690,-149,l),
(675,-174,o),
(653,-190,o),
(626,-190,cs),
(586,-190,o),
(561,-164,o),
(561,-122,cs),
(561,-60,o),
(613,-7,o),
(709,51,c),
(700,71,l),
(598,16,o),
(523,-41,o),
(523,-129,cs),
(523,-189,o),
(565,-225,o),
(621,-225,cs)
);
},
{
alignment = -1;
ref = e;
}
);
width = 899.53488;
},
{
anchors = (
{
name = top;
pos = (294,531);
}
);
layerId = "C30A2D91-B9D3-4A88-AAF0-AD27EF9042EE";
shapes = (
{
closed = 1;
nodes = (
(447,-204,o),
(491,-165,o),
(512,-128,c),
(443,-77,l),
(431,-92,o),
(422,-100,o),
(408,-100,cs),
(391,-100,o),
(379,-88,o),
(379,-68,cs),
(379,-31,o),
(421,-1,o),
(499,42,c),
(470,91,l),
(350,35,o),
(268,-14,o),
(268,-98,cs),
(268,-156,o),
(311,-204,o),
(382,-204,cs)
);
},
{
alignment = -1;
ref = e;
}
);
width = 587.26422;
},
{
anchors = (
{
name = top;
pos = (467,531);
}
);
layerId = "F0741901-C5E8-42E7-A5F2-E893972BE6B8";
shapes = (
{
closed = 1;
nodes = (
(668,-203,o),
(711,-165,o),
(732,-128,c),
(662,-77,l),
(652,-92,o),
(641,-100,o),
(623,-100,cs),
(606,-100,o),
(596,-89,o),
(596,-71,cs),
(596,-26,o),
(646,3,o),
(739,48,c),
(711,97,l),
(578,40,o),
(485,-12,o),
(485,-99,cs),
(485,-156,o),
(530,-203,o),
(603,-203,cs)
);
},
{
alignment = -1;
ref = e;
}
);
width = 932.43279;
}
);
unicode = 281;
},
{
color = 6;
glyphname = schwa;
kernLeft = c;
kernRight = b;
layers = (
{
layerId = "5A878C7E-547A-4951-B48F-676DBBC9B762";
shapes = (
{
closed = 1;
nodes = (
(434,-11,o),
(546,103,o),
(546,268,cs),
(546,424,o),
(432,535,o),
(269,535,cs),
(195,535,o),
(111,501,o),
(62,454,c),
(114,381,l),
(166,426,o),
(207,441,o),
(259,441,cs),
(370,441,o),
(444,370,o),
(444,261,cs),
(444,145,o),
(386,83,o),
(278,83,cs),
(210,83,o),
(152,133,o),
(145,198,c),
(145,222,l),
(130,205,l),
(493,205,l),
(470,287,l),
(41,287,l),
(40,243,ls),
(40,96,o),
(142,-11,o),
(278,-12,cs)
);
}
);
width = 586;
},
{
layerId = "649E0662-786D-44F6-8E8D-A6782F19FFAA";
shapes = (
{
closed = 1;
nodes = (
(650,-11,o),
(811,93,o),
(811,268,cs),
(811,423,o),
(663,535,o),
(454,535,cs),
(342,535,o),
(229,497,o),
(169,456,c),
(214,378,l),
(258,403,o),
(326,439,o),
(434,439,cs),
(597,439,o),
(709,369,o),
(709,261,cs),
(709,130,o),
(600,83,o),
(463,83,cs),
(359,83,o),
(261,130,o),
(250,198,c),
(250,222,l),
(235,215,l),
(738,215,l),
(715,297,l),
(146,297,l),
(145,243,ls),
(145,92,o),
(288,-11,o),
(463,-12,cs)
);
}
);
width = 931;
},
{
layerId = "E41BA830-E06B-4916-8D61-039D08A6FFE2";
shapes = (
{
closed = 1;
nodes = (
(411,-6,o),
(515,105,o),
(515,263,cs),
(515,422,o),
(408,535,o),
(253,535,cs),
(178,535,o),
(110,504,o),
(61,459,c),
(83,428,l),
(131,472,o),
(186,496,o),
(250,496,cs),
(382,496,o),
(473,400,o),
(474,262,cs),
(473,125,o),
(392,33,o),
(262,33,cs),
(161,33,o),
(79,110,o),
(77,222,c),
(79,247,l),
(66,230,l),
(493,230,l),
(487,267,l),
(37,267,l),
(36,236,ls),
(36,89,o),
(131,-6,o),
(264,-6,cs)
);
}
);
width = 554.53489;
},
{
layerId = "60FFA52A-095B-47EE-98E9-9B5B7A5F3F54";
shapes = (
{
closed = 1;
nodes = (
(619,-11,o),
(772,96,o),
(772,263,cs),
(772,420,o),
(634,535,o),
(422,535,cs),
(307,535,o),
(234,507,o),
(161,461,c),
(175,425,l),
(229,459,o),
(301,494,o),
(418,494,cs),
(601,494,o),
(730,398,o),
(731,262,cs),
(730,111,o),
(598,28,o),
(439,28,cs),
(298,28,o),
(177,105,o),
(175,223,cs),
(175,247,l),
(164,240,l),
(746,240,l),
(740,276,l),
(134,276,l),
(133,236,ls),
(133,85,o),
(270,-11,o),
(442,-11,cs)
);
}
);
width = 891.86047;
},
{
layerId = "C30A2D91-B9D3-4A88-AAF0-AD27EF9042EE";
shapes = (
{
closed = 1;
nodes = (
(439,-11,o),
(553,104,o),
(553,268,cs),
(553,426,o),
(440,541,o),
(263,541,cs),
(190,541,o),
(116,516,o),
(52,463,c),
(128,355,l),
(169,389,o),
(201,400,o),
(246,400,cs),
(345,400,o),
(402,343,o),
(402,255,cs),
(402,171,o),
(360,124,o),
(280,124,cs),
(226,124,o),
(184,159,o),
(181,207,c),
(181,228,l),
(163,209,l),
(478,209,l),
(455,300,l),
(32,300,l),
(31,257,ls),
(31,102,o),
(135,-11,o),
(282,-12,cs)
);
}
);
width = 587.26422;
},
{
layerId = "F0741901-C5E8-42E7-A5F2-E893972BE6B8";
shapes = (
{
closed = 1;
nodes = (
(656,-11,o),
(818,95,o),
(818,268,cs),
(818,425,o),
(671,541,o),
(449,541,cs),
(338,541,o),
(233,511,o),
(159,465,c),
(228,361,l),
(259,377,o),
(320,407,o),
(421,407,cs),
(572,407,o),
(667,342,o),
(667,256,cs),
(667,157,o),
(574,118,o),
(465,118,cs),
(375,118,o),
(294,157,o),
(286,207,cs),
(286,228,l),
(269,206,l),
(723,206,l),
(699,307,l),
(138,307,l),
(137,257,ls),
(134,98,o),
(281,-11,o),
(467,-11,cs)
);
}
);
width = 932.78225;
}
);
unicode = 601;
},
{
color = 6;
glyphname = f;
kernLeft = f;
kernRight = f;
layers = (
{
anchors = (
{
name = bottom;
pos = (197,0);
},
{
name = top;
pos = (197,740);
}
);
layerId = "5A878C7E-547A-4951-B48F-676DBBC9B762";
shapes = (
{
closed = 1;
nodes = (
(146.333,0,o),
(163.667,0,o),
(181,0,cs),
(233,0,l),
(233,584,ls),
(233,622.667,o),
(254.333,643,o),
(297,643,cs),
(315.667,643,o),
(337.667,632,o),
(355,616,c),
(390,695,l),
(367.333,721.667,o),
(327.667,739,o),
(285,739,cs),
(193,739,o),
(129,674.667,o),
(129,584,cs),
(129,0,l)
);
},
{
closed = 1;
nodes = (
(357,421,l),
(357,516,l),
(45,516,l),
(45,421,l)
);
}
);
width = 393;
},
{
anchors = (
{
name = bottom;
pos = (367,0);
},
{
name = top;
pos = (367,740);
}
);
layerId = "649E0662-786D-44F6-8E8D-A6782F19FFAA";
shapes = (
{
closed = 1;
nodes = (
(290,0,o),
(305,0,o),
(316,0,cs),
(363,0,l),
(363,524,ls),
(363,585,o),
(397,643,o),
(497,643,cs),
(532,643,o),
(571,623,o),
(595,606,c),
(630,695,l),
(609,714,o),
(557,739,o),
(485,739,cs),
(358,739,o),
(269,649,o),
(269,524,cs),
(269,0,l)
);
},
{
closed = 1;
nodes = (
(597,411,l),
(597,506,l),
(145,506,l),
(145,411,l)
);
}
);
width = 730;
},
{
anchors = (
{
name = bottom;
pos = (177,0);
},
{
name = top;
pos = (177,740);
}
);
layerId = "E41BA830-E06B-4916-8D61-039D08A6FFE2";
shapes = (
{
closed = 1;
nodes = (
(144,0,o),
(152,0,o),
(161,0,cs),
(179,0,l),
(179,615,ls),
(179,685,o),
(208,708,o),
(255,708,cs),
(287,708,o),
(311,700,o),
(333,675,c),
(351,705,l),
(332,731,o),
(301,748,o),
(254,748,cs),
(185,748,o),
(138,705,o),
(138,616,cs),
(138,0,l)
);
},
{
closed = 1;
nodes = (
(324,484,l),
(324,523,l),
(33,523,l),
(33,484,l)
);
}
);
width = 352.32558;
},
{
anchors = (
{
name = bottom;
pos = (346,0);
},
{
name = top;
pos = (346,740);
}
);
layerId = "60FFA52A-095B-47EE-98E9-9B5B7A5F3F54";
shapes = (
{
closed = 1;
nodes = (
(286,0,o),
(292,0,o),
(297,0,cs),
(316,0,l),
(316,555,ls),
(316,647,o),
(356,708,o),
(456,708,cs),
(503,708,o),
(547,693,o),
(575,670,c),
(592,705,l),
(562,730,o),
(513,747,o),
(454,747,cs),
(345,747,o),
(277,678,o),
(277,556,cs),
(277,0,l)
);
},
{
closed = 1;
nodes = (
(564,482,l),
(564,521,l),
(133,521,l),
(133,482,l)
);
}
);
width = 689.32558;
},
{
anchors = (
{
name = bottom;
pos = (198,0);
},
{
name = top;
pos = (198,740);
}
);
layerId = "C30A2D91-B9D3-4A88-AAF0-AD27EF9042EE";
shapes = (
{
closed = 1;
nodes = (
(122,0,o),
(150,0,o),
(185,0,cs),
(266,0,l),
(266,543,ls),
(266,579,o),
(282,597,o),
(319,597,cs),
(332,597,o),
(348,591,o),
(366,582,c),
(412,699,l),
(379,725,o),
(335,742,o),
(286,742,cs),
(177,742,o),
(105,660,o),
(105,557,cs),
(105,0,l)
);
},
{
closed = 1;
nodes = (
(375,382,l),
(375,516,l),
(27,516,l),
(27,382,l)
);
}
);
width = 394.63424;
},
{
anchors = (
{
name = bottom;
pos = (368,0);
},
{
name = top;
pos = (368,740);
}
);
layerId = "F0741901-C5E8-42E7-A5F2-E893972BE6B8";
shapes = (
{
closed = 1;
nodes = (
(267,0,o),
(291,0,o),
(320,0,cs),
(396,0,l),
(396,514,ls),
(396,566,o),
(429,610,o),
(505,610,cs),
(543,610,o),
(584,591,o),
(606,578,c),
(652,699,l),
(620,718,o),
(565,742,o),
(486,742,cs),
(341,742,o),
(245,651,o),
(245,514,cs),
(245,0,l)
);
},
{
closed = 1;
nodes = (
(615,372,l),
(615,505,l),
(128,505,l),
(128,372,l)
);
}
);
width = 731.85214;
}
);
unicode = 102;
},
{
color = 6;
glyphname = g;
kernLeft = g;
kernRight = g;
layers = (
{
anchors = (
{
name = bottom;
pos = (325,-230);
},
{
name = top;
pos = (325,525);
}
);
layerId = "5A878C7E-547A-4951-B48F-676DBBC9B762";
shapes = (
{
closed = 1;
nodes = (
(475,-230,o),
(577,-134.667,o),
(577,32,cs),
(577,525,l),
(474,525,l),
(474,402,l),
(496,410,l),
(486.667,464.667,o),
(395.667,536,o),
(297,536,cs),
(150.333,536,o),
(40,420.333,o),
(40,263,cs),
(40,105.667,o),
(150.667,-10,o),
(300,-10,cs),
(386.667,-10,o),
(475.667,52.667,o),
(485,114,c),
(474,121,l),
(474,20,ls),
(474,-84,o),
(416.333,-138,o),
(307,-138,cs),
(248.333,-138,o),
(184,-117.667,o),
(144,-87,c),
(106,-167,l),
(151.333,-204.333,o),
(232.333,-230,o),
(307,-230,cs)
);
},
{
closed = 1;
nodes = (
(215,85,o),
(145,160.333,o),
(145,263,cs),
(145,365.667,o),
(215,442,o),
(311,442,cs),
(408.333,442,o),
(478,367,o),
(478,263,cs),
(478,159,o),
(409.667,85,o),
(311,85,cs)
);
}
);
width = 649;
},
{
anchors = (
{
name = bottom;
pos = (482,-230);
},
{
name = top;
pos = (482,525);
}
);
layerId = "649E0662-786D-44F6-8E8D-A6782F19FFAA";
shapes = (
{
closed = 1;
nodes = (
(652,-230,o),
(801,-133,o),
(801,72,cs),
(801,525,l),
(698,525,l),
(698,402,l),
(720,410,l),
(720,483,o),
(527,536,o),
(451,536,cs),
(262,536,o),
(130,422,o),
(130,263,cs),
(130,104,o),
(253,-10,o),
(434,-10,cs),
(571,-10,o),
(696,57,o),
(709,114,c),
(698,121,l),
(698,60,ls),
(698,-67,o),
(615,-138,o),
(499,-138,cs),
(395,-138,o),
(320,-102,o),
(276,-81,c),
(240,-167,l),
(292,-200,o),
(378,-230,o),
(499,-230,cs)
);
},
{
closed = 1;
nodes = (
(336,85,o),
(235,162,o),
(235,263,cs),
(235,364,o),
(336,442,o),
(475,442,cs),
(610,442,o),
(702,366,o),
(702,263,cs),
(702,160,o),
(610,85,o),
(475,85,cs)
);
}
);
width = 1001;
},
{
anchors = (
{
name = bottom;
pos = (308,-230);
},
{
name = top;
pos = (300,525);
}
);
layerId = "E41BA830-E06B-4916-8D61-039D08A6FFE2";
shapes = (
{
closed = 1;
nodes = (
(436,-238,o),
(542,-140,o),
(542,23,cs),
(542,525,l),
(503,525,l),
(501,364,l),
(512,364,l),
(495,455,o),
(396,531,o),
(291,531,cs),
(152,531,o),
(40,416,o),
(40,259,cs),
(40,103,o),
(148,-10,o),
(295,-10,cs),
(399,-10,o),
(489,64,o),
(511,161,c),
(501,160,l),
(501,28,ls),
(501,-114,o),
(409,-199,o),
(296,-199,cs),
(229,-199,o),
(169,-173,o),
(128,-133,c),
(112,-166,l),
(155,-212,o),
(224,-238,o),
(297,-238,cs)
);
},
{
closed = 1;
nodes = (
(170,29,o),
(81,127,o),
(81,259,cs),
(81,394,o),
(170,492,o),
(295,492,cs),
(415,492,o),
(502,395,o),
(502,261,cs),
(502,124,o),
(414,29,o),
(297,29,cs)
);
}
);
userData = {
com.schriftgestaltung.Glyphs.glyph.leftMetricsKey = o;
};
width = 613.69768;
},
{
anchors = (
{
name = bottom;
pos = (460,-230);
},
{
name = top;
pos = (460,525);
}
);
layerId = "60FFA52A-095B-47EE-98E9-9B5B7A5F3F54";
shapes = (
{
closed = 1;
nodes = (
(617,-238,o),
(758,-154,o),
(758,64,cs),
(758,525,l),
(719,525,l),
(717,356,l),
(732,357,l),
(691,479,o),
(562,535,o),
(436,535,cs),
(261,535,o),
(130,419,o),
(130,262,cs),
(130,105,o),
(255,-6,o),
(432,-6,cs),
(573,-6,o),
(680,50,o),
(729,167,c),
(717,169,l),
(717,53,ls),
(717,-121,o),
(602,-199,o),
(474,-199,cs),
(376,-199,o),
(303,-168,o),
(252,-129,c),
(237,-165,l),
(287,-205,o),
(371,-238,o),
(476,-238,cs)
);
},
{
closed = 1;
nodes = (
(287,33,o),
(171,128,o),
(171,262,cs),
(172,400,o),
(289,496,o),
(442,496,cs),
(605,496,o),
(716,401,o),
(718,261,cs),
(717,130,o),
(609,33,o),
(442,33,cs)
);
}
);
userData = {
com.schriftgestaltung.Glyphs.glyph.leftMetricsKey = o;
};
width = 958.02326;
},
{
anchors = (
{
name = bottom;
pos = (335,-230);
},
{
name = top;
pos = (335,531);
}
);
layerId = "C30A2D91-B9D3-4A88-AAF0-AD27EF9042EE";
shapes = (
{
closed = 1;
nodes = (
(494,-230,o),
(602,-130,o),
(602,44,cs),
(602,531,l),
(449,531,l),
(443,411,l),
(476,421,l),
(465,482,o),
(379,542,o),
(281,542,cs),
(140,542,o),
(34,428,o),
(34,268,cs),
(34,112,o),
(140,4,o),
(285,4,cs),
(373,4,o),
(457,58,o),
(470,121,c),
(440,127,l),
(440,39,ls),
(440,-52,o),
(395,-96,o),
(294,-96,cs),
(235,-96,o),
(179,-78,o),
(137,-49,c),
(81,-163,l),
(134,-203,o),
(228,-230,o),
(314,-230,cs)
);
},
{
closed = 1;
nodes = (
(243,129,o),
(194,183,o),
(194,267,cs),
(194,350,o),
(243,406,o),
(318,406,cs),
(395,406,o),
(445,351,o),
(445,266,cs),
(445,183,o),
(396,129,o),
(318,129,cs)
);
}
);
userData = {
com.schriftgestaltung.Glyphs.glyph.leftMetricsKey = o;
};
width = 669.86527;
},
{
anchors = (
{
name = bottom;
pos = (498,-230);
},
{
name = top;
pos = (498,531);
}
);
layerId = "F0741901-C5E8-42E7-A5F2-E893972BE6B8";
shapes = (
{
closed = 1;
nodes = (
(676,-230,o),
(831,-129,o),
(831,84,cs),
(831,531,l),
(679,531,l),
(672,412,l),
(706,421,l),
(706,500,o),
(515,542,o),
(442,542,cs),
(256,542,o),
(130,429,o),
(130,268,cs),
(130,110,o),
(248,3,o),
(425,3,cs),
(564,3,o),
(684,63,o),
(700,121,c),
(670,127,l),
(670,79,ls),
(670,-35,o),
(599,-96,o),
(492,-96,cs),
(388,-96,o),
(321,-62,o),
(275,-43,c),
(221,-163,l),
(281,-199,o),
(378,-230,o),
(512,-230,cs)
);
},
{
closed = 1;
nodes = (
(370,129,o),
(290,185,o),
(290,266,cs),
(290,349,o),
(370,406,o),
(489,406,cs),
(603,406,o),
(674,350,o),
(674,266,cs),
(674,184,o),
(602,129,o),
(489,129,cs)
);
}
);
userData = {
com.schriftgestaltung.Glyphs.glyph.leftMetricsKey = o;
};
width = 1027.8026;
}
);
metricLeft = o;
unicode = 103;
},
{
color = 6;
glyphname = h;
kernLeft = b;
kernRight = h;
layers = (
{
anchors = (
{
name = bottom;
pos = (298,0);
},
{
name = center;
pos = (146,638);
},
{
name = top;
pos = (298,740);
}
);
layerId = "5A878C7E-547A-4951-B48F-676DBBC9B762";
shapes = (
{
closed = 1;
nodes = (
(89.333,0,o),
(106.5,0,o),
(123.5,0,cs),
(175,0,l),
(175,318,ls),
(175,387.333,o),
(234.333,442,o),
(313,442,cs),
(387.667,446,o),
(424,403.667,o),
(424,313,cs),
(424,0,l),
(527,0,l),
(527,320,ls),
(527,465.333,o),
(467,536,o),
(347,536,cs),
(263,536,o),
(177,474.333,o),
(157,405,c),
(175,417,l),
(175,740,l),
(72,740,l),
(72,0,l)
);
}
);
width = 595;
},
{
anchors = (
{
name = bottom;
pos = (506,0);
},
{
name = center;
pos = (309,638);
},
{
name = top;
pos = (506,740);
}
);
layerId = "649E0662-786D-44F6-8E8D-A6782F19FFAA";
shapes = (
{
closed = 1;
nodes = (
(220,0,o),
(237,0,o),
(272,0,cs),
(323,0,l),
(323,278,ls),
(323,346,o),
(406,443,o),
(521,443,cs),
(614,443,o),
(692,381,o),
(692,293,cs),
(692,0,l),
(795,0,l),
(795,310,ls),
(795,434,o),
(714,536,o),
(555,536,cs),
(423,536,o),
(310,450,o),
(285,375,c),
(323,377,l),
(323,740,l),
(220,740,l),
(220,0,l)
);
}
);
width = 1015;
},
{
anchors = (
{
name = bottom;
pos = (278,0);
},
{
name = center;
pos = (125,638);
},
{
name = top;
pos = (278,740);
}
);
layerId = "E41BA830-E06B-4916-8D61-039D08A6FFE2";
shapes = (
{
closed = 1;
nodes = (
(78,0,o),
(85,0,o),
(91,0,cs),
(111,0,l),
(111,363,ls),
(111,410,o),
(187,492,o),
(293,492,cs),
(391,494,o),
(444,443,o),
(444,325,cs),
(444,0,l),
(485,0,l),
(485,326,ls),
(485,468,o),
(419,531,o),
(301,531,cs),
(209,531,o),
(123,472,o),
(100,403,c),
(111,407,l),
(111,740,l),
(70,740,l),
(70,0,l)
);
}
);
userData = {
com.schriftgestaltung.Glyphs.glyph.leftMetricsKey = n;
com.schriftgestaltung.Glyphs.glyph.rightMetricsKey = n;
};
width = 553.55814;
},
{
anchors = (
{
name = bottom;
pos = (482,0);
},
{
name = center;
pos = (300,638);
},
{
name = top;
pos = (482,740);
}
);
layerId = "60FFA52A-095B-47EE-98E9-9B5B7A5F3F54";
shapes = (
{
closed = 1;
nodes = (
(208,0,o),
(216,0,o),
(239,0,cs),
(259,0,l),
(259,328,ls),
(259,383,o),
(360,497,o),
(498,497,cs),
(621,497,o),
(713,422,o),
(713,307,cs),
(713,0,l),
(754,0,l),
(754,316,ls),
(754,437,o),
(664,536,o),
(502,536,cs),
(369,536,o),
(263,442,o),
(240,363,c),
(259,367,l),
(259,740,l),
(218,740,l),
(218,0,l)
);
}
);
userData = {
com.schriftgestaltung.Glyphs.glyph.leftMetricsKey = n;
com.schriftgestaltung.Glyphs.glyph.rightMetricsKey = n;
};
width = 973.55814;
},
{
anchors = (
{
name = bottom;
pos = (318,0);
},
{
name = center;
pos = (175,638);
},
{
name = top;
pos = (318,740);
}
);
layerId = "C30A2D91-B9D3-4A88-AAF0-AD27EF9042EE";
shapes = (
{
closed = 1;
nodes = (
(88,0,o),
(116,0,o),
(151,0,cs),
(232,0,l),
(232,316,ls),
(232,368,o),
(273,406,o),
(330,406,cs),
(383,408,o),
(411,376,o),
(411,313,cs),
(411,0,l),
(572,0,l),
(572,325,ls),
(572,467,o),
(509,542,o),
(389,542,cs),
(301,542,o),
(218,483,o),
(197,411,c),
(230,423,l),
(230,740,l),
(71,740,l),
(71,0,l)
);
}
);
userData = {
com.schriftgestaltung.Glyphs.glyph.leftMetricsKey = n;
com.schriftgestaltung.Glyphs.glyph.rightMetricsKey = n;
};
width = 635.55882;
},
{
anchors = (
{
name = bottom;
pos = (516,0);
},
{
name = center;
pos = (329,638);
},
{
name = top;
pos = (516,740);
}
);
layerId = "F0741901-C5E8-42E7-A5F2-E893972BE6B8";
shapes = (
{
closed = 1;
nodes = (
(209,0,o),
(237,0,o),
(290,0,cs),
(370,0,l),
(370,262,ls),
(370,336,o),
(435,407,o),
(528,407,cs),
(609,407,o),
(669,354,o),
(669,273,cs),
(669,0,l),
(830,0,l),
(830,315,ls),
(830,435,o),
(746,542,o),
(587,542,cs),
(451,542,o),
(340,459,o),
(319,369,c),
(368,383,l),
(368,740,l),
(209,740,l),
(209,0,l)
);
}
);
userData = {
com.schriftgestaltung.Glyphs.glyph.leftMetricsKey = n;
com.schriftgestaltung.Glyphs.glyph.rightMetricsKey = n;
};
width = 1033.45083;
}
);
metricLeft = n;
metricRight = n;
unicode = 104;
},
{
color = 3;
glyphname = hbar;
kernLeft = b;
kernRight = h;
layers = (
{
layerId = "5A878C7E-547A-4951-B48F-676DBBC9B762";
shapes = (
{
closed = 1;
nodes = (
(280,593,l),
(280,683,l),
(12,683,l),
(12,593,l)
);
},
{
ref = h;
}
);
width = 595;
},
{
layerId = "649E0662-786D-44F6-8E8D-A6782F19FFAA";
shapes = (
{
closed = 1;
nodes = (
(513,595,l),
(513,681,l),
(105,681,l),
(105,595,l)
);
},
{
ref = h;
}
);
width = 1015;
},
{
layerId = "E41BA830-E06B-4916-8D61-039D08A6FFE2";
shapes = (
{
closed = 1;
nodes = (
(259,619,l),
(259,656,l),
(-9,656,l),
(-9,619,l)
);
},
{
alignment = -1;
ref = h;
}
);
width = 553.55814;
},
{
layerId = "60FFA52A-095B-47EE-98E9-9B5B7A5F3F54";
shapes = (
{
closed = 1;
nodes = (
(508,621,l),
(508,654,l),
(100,654,l),
(100,621,l)
);
},
{
alignment = -1;
ref = h;
}
);
width = 973.55814;
},
{
layerId = "C30A2D91-B9D3-4A88-AAF0-AD27EF9042EE";
shapes = (
{
closed = 1;
nodes = (
(338,577,l),
(338,698,l),
(14,698,l),
(14,577,l)
);
},
{
alignment = -1;
ref = h;
}
);
width = 635.55882;
},
{
layerId = "F0741901-C5E8-42E7-A5F2-E893972BE6B8";
shapes = (
{
closed = 1;
nodes = (
(570,579,l),
(570,696,l),
(106,696,l),
(106,579,l)
);
},
{
alignment = -1;
ref = h;
}
);
width = 1055.53583;
}
);
unicode = 295;
},
{
color = 6;
glyphname = i;
kernLeft = i;
kernRight = i;
layers = (
{
anchors = (
{
name = bottom;
pos = (139,0);
},
{
name = ogonek;
pos = (192,0);
},
{
name = top;
pos = (139,710);
}
);
layerId = "5A878C7E-547A-4951-B48F-676DBBC9B762";
shapes = (
{
closed = 1;
nodes = (
(192,0,l),
(192,525,l),
(89,525,l),
(89,0,l)
);
},
{
closed = 1;
nodes = (
(182,641,o),
(208,667,o),
(208,706,cs),
(208,747,o),
(183,771,o),
(139,771,cs),
(96,771,o),
(70,745,o),
(70,706,cs),
(70,665,o),
(95,641,o),
(139,641,cs)
);
}
);
width = 278;
},
{
anchors = (
{
name = bottom;
pos = (269,0);
},
{
name = ogonek;
pos = (322,0);
},
{
name = top;
pos = (269,710);
}
);
layerId = "649E0662-786D-44F6-8E8D-A6782F19FFAA";
shapes = (
{
closed = 1;
nodes = (
(322,0,l),
(322,525,l),
(219,525,l),
(219,0,l)
);
},
{
closed = 1;
nodes = (
(312,651,o),
(338,677,o),
(338,716,cs),
(338,757,o),
(313,781,o),
(269,781,cs),
(226,781,o),
(200,755,o),
(200,716,cs),
(200,675,o),
(225,651,o),
(269,651,cs)
);
}
);
width = 538;
},
{
anchors = (
{
name = bottom;
pos = (108,0);
},
{
name = ogonek;
pos = (128,0);
},
{
name = top;
pos = (108,694);
}
);
layerId = "E41BA830-E06B-4916-8D61-039D08A6FFE2";
shapes = (
{
closed = 1;
nodes = (
(128,0,l),
(128,525,l),
(87,525,l),
(87,0,l)
);
},
{
closed = 1;
nodes = (
(133,658,o),
(145,673,o),
(145,695,cs),
(145,718,o),
(131,732,o),
(108,732,cs),
(83,732,o),
(70,717,o),
(70,695,cs),
(70,673,o),
(82,658,o),
(108,658,cs)
);
}
);
width = 215.06977;
},
{
anchors = (
{
name = bottom;
pos = (236,0);
},
{
name = ogonek;
pos = (257,0);
},
{
name = top;
pos = (236,695);
}
);
layerId = "60FFA52A-095B-47EE-98E9-9B5B7A5F3F54";
shapes = (
{
closed = 1;
nodes = (
(257,0,l),
(257,525,l),
(216,525,l),
(216,0,l)
);
},
{
closed = 1;
nodes = (
(261,660,o),
(274,675,o),
(274,698,cs),
(274,720,o),
(259,735,o),
(236,735,cs),
(211,735,o),
(198,719,o),
(198,698,cs),
(198,675,o),
(211,660,o),
(236,660,cs)
);
}
);
width = 476;
},
{
anchors = (
{
name = bottom;
pos = (161,0);
},
{
name = ogonek;
pos = (231,0);
},
{
name = top;
pos = (161,739);
}
);
layerId = "C30A2D91-B9D3-4A88-AAF0-AD27EF9042EE";
shapes = (
{
closed = 1;
nodes = (
(241,0,l),
(241,531,l),
(80,531,l),
(80.009,0,l)
);
},
{
closed = 1;
nodes = (
(219,636,o),
(256,669,o),
(256,719,cs),
(256,772,o),
(220,802,o),
(161,802,cs),
(101,802,o),
(64,768,o),
(64,719,cs),
(64,666,o),
(100,636,o),
(161,636,cs)
);
}
);
width = 320.53345;
},
{
anchors = (
{
name = bottom;
pos = (296,0);
},
{
name = ogonek;
pos = (367,0);
},
{
name = top;
pos = (296,739);
}
);
layerId = "F0741901-C5E8-42E7-A5F2-E893972BE6B8";
shapes = (
{
closed = 1;
nodes = (
(377,0,l),
(377,531,l),
(216,531,l),
(216,0,l)
);
},
{
closed = 1;
nodes = (
(355,646,o),
(392,679,o),
(392,729,cs),
(392,782,o),
(356,812,o),
(296,812,cs),
(237,812,o),
(200,778,o),
(200,729,cs),
(200,676,o),
(236,646,o),
(296,646,cs)
);
}
);
width = 591.61871;
}
);
metricLeft = idotless;
metricRight = idotless;
unicode = 105;
},
{
color = 6;
glyphname = idotless;
kernLeft = i;
kernRight = i;
layers = (
{
anchors = (
{
name = bottom;
pos = (120,0);
},
{
name = ogonek;
pos = (173,0);
},
{
name = top;
pos = (120,525);
}
);
layerId = "5A878C7E-547A-4951-B48F-676DBBC9B762";
shapes = (
{
closed = 1;
nodes = (
(173,0,l),
(173,525,l),
(70,525,l),
(70,0,l)
);
}
);
width = 243;
},
{
anchors = (
{
name = bottom;
pos = (250,0);
},
{
name = ogonek;
pos = (303,0);
},
{
name = top;
pos = (250,525);
}
);
layerId = "649E0662-786D-44F6-8E8D-A6782F19FFAA";
shapes = (
{
closed = 1;
nodes = (
(303,0,l),
(303,525,l),
(200,525,l),
(200,0,l)
);
}
);
width = 503;
},
{
anchors = (
{
name = bottom;
pos = (90,0);
},
{
name = ogonek;
pos = (111,0);
},
{
name = top;
pos = (90,525);
}
);
layerId = "E41BA830-E06B-4916-8D61-039D08A6FFE2";
shapes = (
{
closed = 1;
nodes = (
(111,0,l),
(111,525,l),
(70,525,l),
(70,0,l)
);
}
);
width = 180.83721;
},
{
anchors = (
{
name = bottom;
pos = (219,0);
},
{
name = ogonek;
pos = (239,0);
},
{
name = top;
pos = (219,525);
}
);
layerId = "60FFA52A-095B-47EE-98E9-9B5B7A5F3F54";
shapes = (
{
closed = 1;
nodes = (
(239,0,l),
(239,525,l),
(198,525,l),
(198,0,l)
);
}
);
width = 440.83721;
},
{
anchors = (
{
name = bottom;
pos = (145,0);
},
{
name = ogonek;
pos = (215,0);
},
{
name = top;
pos = (145,531);
}
);
layerId = "C30A2D91-B9D3-4A88-AAF0-AD27EF9042EE";
shapes = (
{
closed = 1;
nodes = (
(225,0,l),
(225,531,l),
(64,531,l),
(64,0,l)
);
}
);
width = 289.94761;
},
{
anchors = (
{
name = bottom;
pos = (280,0);
},
{
name = ogonek;
pos = (351,0);
},
{
name = top;
pos = (280,531);
}
);
layerId = "F0741901-C5E8-42E7-A5F2-E893972BE6B8";
shapes = (
{
closed = 1;
nodes = (
(361,0,l),
(361,531,l),
(200,531,l),
(200,0,l)
);
}
);
width = 561.04313;
}
);
unicode = 305;
},
{
color = 6;
glyphname = j;
kernLeft = j;
kernRight = j;
layers = (
{
layerId = "5A878C7E-547A-4951-B48F-676DBBC9B762";
shapes = (
{
closed = 1;
nodes = (
(116,-197,o),
(189,-127,o),
(189,-24,cs),
(189,525,l),
(86,525,l),
(86,1,ls),
(86,-78,o),
(47,-118,o),
(-30,-118,c),
(9,-197,l)
);
},
{
closed = 1;
nodes = (
(183,641,o),
(209,667,o),
(209,706,cs),
(209,747,o),
(184,771,o),
(140,771,cs),
(97,771,o),
(71,745,o),
(71,706,cs),
(71,665,o),
(96,641,o),
(140,641,cs)
);
}
);
width = 265;
},
{
layerId = "649E0662-786D-44F6-8E8D-A6782F19FFAA";
shapes = (
{
closed = 1;
nodes = (
(276,-197,o),
(389,-81,o),
(389,106,cs),
(389,525,l),
(286,525,l),
(286,131,ls),
(286,-16,o),
(226,-105,o),
(90,-105,c),
(129,-197,l)
);
},
{
closed = 1;
nodes = (
(383,651,o),
(409,677,o),
(409,716,cs),
(409,757,o),
(384,781,o),
(340,781,cs),
(297,781,o),
(271,755,o),
(271,716,cs),
(271,675,o),
(296,651,o),
(340,651,cs)
);
}
);
width = 599;
},
{
layerId = "E41BA830-E06B-4916-8D61-039D08A6FFE2";
shapes = (
{
closed = 1;
nodes = (
(63,-195,o),
(114,-143,o),
(114,-51,cs),
(114,525,l),
(73,525,l),
(73,-43,ls),
(73,-114,o),
(42,-160,o),
(-39,-160,c),
(-24,-195,l)
);
},
{
closed = 1;
nodes = (
(118,658,o),
(130,673,o),
(130,695,cs),
(130,718,o),
(116,732,o),
(93,732,cs),
(69,732,o),
(55,717,o),
(55,695,cs),
(55,673,o),
(69,658,o),
(93,658,cs)
);
}
);
width = 176.74419;
},
{
layerId = "60FFA52A-095B-47EE-98E9-9B5B7A5F3F54";
shapes = (
{
closed = 1;
nodes = (
(264,-191,o),
(359,-96,o),
(359,78,cs),
(359,525,l),
(318,525,l),
(318,87,ls),
(318,-57,o),
(256,-145,o),
(128,-156,c),
(141,-195,l)
);
},
{
closed = 1;
nodes = (
(363,660,o),
(376,675,o),
(376,698,cs),
(376,720,o),
(362,735,o),
(338,735,cs),
(314,735,o),
(301,719,o),
(301,698,cs),
(301,675,o),
(314,660,o),
(338,660,cs)
);
}
);
width = 569.06977;
},
{
layerId = "C30A2D91-B9D3-4A88-AAF0-AD27EF9042EE";
shapes = (
{
closed = 1;
nodes = (
(165,-210,o),
(244,-142,o),
(244,3,cs),
(244,531,l),
(83,531,l),
(83,41,ls),
(83,-55,o),
(53,-86,o),
(-38,-86,c),
(24,-210,l)
);
},
{
closed = 1;
nodes = (
(225,636,o),
(262,669,o),
(262,719,cs),
(262,772,o),
(226,802,o),
(166,802,cs),
(106,802,o),
(71,768,o),
(71,719,cs),
(71,666,o),
(105,636,o),
(166,636,cs)
);
}
);
width = 317.44099;
},
{
layerId = "F0741901-C5E8-42E7-A5F2-E893972BE6B8";
shapes = (
{
closed = 1;
nodes = (
(324,-210,o),
(442,-96,o),
(442,133,cs),
(442,531,l),
(281,531,l),
(281,171,ls),
(281,7,o),
(230,-73,o),
(82,-72,c),
(142,-209,l)
);
},
{
closed = 1;
nodes = (
(421,640,o),
(458,675,o),
(458,724,cs),
(458,777,o),
(422,807,o),
(362,807,cs),
(302,807,o),
(266,772,o),
(266,724,cs),
(266,670,o),
(301,640,o),
(362,640,cs)
);
}
);
width = 657.78389;
}
);
unicode = 106;
},
{
color = 6;
glyphname = jdotless;
kernLeft = j;
kernRight = j;
layers = (
{
anchors = (
{
name = bottom;
pos = (132,-230);
},
{
name = top;
pos = (138,525);
}
);
layerId = "5A878C7E-547A-4951-B48F-676DBBC9B762";
shapes = (
{
closed = 1;
nodes = (
(114.667,-197,o),
(188,-126.667,o),
(188,-24,cs),
(188,525,l),
(85,525,l),
(85,1,ls),
(85,-77.667,o),
(46.333,-118,o),
(-31,-118,c),
(8,-197,l)
);
}
);
width = 263;
},
{
anchors = (
{
name = bottom;
pos = (338,-230);
},
{
name = top;
pos = (341,525);
}
);
layerId = "649E0662-786D-44F6-8E8D-A6782F19FFAA";
shapes = (
{
closed = 1;
nodes = (
(276,-197,o),
(389,-81,o),
(389,106,cs),
(389,525,l),
(286,525,l),
(286,131,ls),
(286,-16,o),
(226,-105,o),
(90,-105,c),
(129,-197,l)
);
}
);
width = 599;
},
{
anchors = (
{
name = bottom;
pos = (99,-230);
},
{
name = top;
pos = (100,525);
}
);
layerId = "E41BA830-E06B-4916-8D61-039D08A6FFE2";
shapes = (
{
closed = 1;
nodes = (
(69,-195,o),
(122,-143,o),
(122,-51,cs),
(122,525,l),
(81,525,l),
(81,-43,ls),
(81,-114,o),
(50,-160,o),
(-32,-160,c),
(-16,-195,l)
);
}
);
width = 197.76744;
},
{
anchors = (
{
name = bottom;
pos = (337,-230);
},
{
name = top;
pos = (339,525);
}
);
layerId = "60FFA52A-095B-47EE-98E9-9B5B7A5F3F54";
shapes = (
{
closed = 1;
nodes = (
(264,-191,o),
(359,-96,o),
(359,78,cs),
(359,525,l),
(318,525,l),
(318,87,ls),
(318,-57,o),
(256,-145,o),
(128,-156,c),
(141,-195,l)
);
}
);
width = 569.06977;
},
{
anchors = (
{
name = bottom;
pos = (156,-230);
},
{
name = top;
pos = (164,531);
}
);
layerId = "C30A2D91-B9D3-4A88-AAF0-AD27EF9042EE";
shapes = (
{
closed = 1;
nodes = (
(163,-210,o),
(243,-142,o),
(243,3,cs),
(243,531,l),
(82,531,l),
(82,41,ls),
(82,-55,o),
(53,-86,o),
(-38,-86,c),
(23,-210,l)
);
}
);
width = 315.6272;
},
{
anchors = (
{
name = bottom;
pos = (338,-230);
},
{
name = top;
pos = (342,531);
}
);
layerId = "F0741901-C5E8-42E7-A5F2-E893972BE6B8";
shapes = (
{
closed = 1;
nodes = (
(301,-210,o),
(420,-96,o),
(420,133,cs),
(420,531,l),
(259,531,l),
(259,171,ls),
(259,7,o),
(209,-73,o),
(59,-72,c),
(121,-209,l)
);
}
);
width = 600.36289;
}
);
unicode = 567;
},
